<?xml version="1.0" encoding="utf-8"?>
<!-- Generator: Adobe Illustrator 19.0.1, SVG Export Plug-In . SVG Version: 6.00 Build 0)  -->
<svg version="1.1" id="Слой_1" xmlns="http://www.w3.org/2000/svg" xmlns:xlink="http://www.w3.org/1999/xlink" x="0px" y="0px"
	 viewBox="77 40 793 402" style="enable-background:new 77 40 793 402;" xml:space="preserve">
<style type="text/css">
	.st0{clip-path:url(#SVGID_2_);}
	.st1{fill:#5c6ce6;}
</style>
<g>
	<defs>
		<rect id="SVGID_1_" x="77" y="40" width="792.5" height="401.4"/>
	</defs>
	<clipPath id="SVGID_2_">
		<use xlink:href="#SVGID_1_"  style="overflow:visible;"/>
	</clipPath>
	<g class="st0">
		<path class="st1" d="M109.2,41.9l1.3,1.1l1.6-0.3l0.8,0.4l2.6,2.3l2.4-0.5l1,0.3l1.3,0.8l0.8,0.2l1.2,0l0.7,0.1l1.9,0.3l1.1,0
			l0.8-0.5l0.9-0.7l0.6-0.3l2.3,1.5l2.4,0.3l1.1,0.7l1,1.4l1.2,0.5l1.3,0.5l2.1,0.4l2.9,1l0.9,0.1l1.8-1l2.9-3.5l1-0.6l1-0.2
			l0.8-0.3l0.8-0.5l1.2-0.9l1.3,0l0.7,0.2l1,0.9l0.6,1l0.6,1.3l0.7,0.6l1.1,0.4l1,0.2l2,0.1l1.4,0.7l1.8,1l1.2,0.8l1.1,1.1l1.4,0.8
			l2.4,1.1l1.4,0.8l1.6,1.1l4.2-0.1l1.4,0.1l1.5,0.9l0.6,0.6l0.1,0.8l-0.4,1.5l0.1,0.5l0.5,0.6l1.1,0.4l1.1,0.7l0.9,0.8l1.2,2.8
			l1.6,0.6l1.9-0.2l1.1-0.4l0.7-0.9l0.5-0.4l0.7-0.1l0.9,0.3l1.3,1.1l1.3,0.9l1.3,0.6l0.8,1l0.6,1.1l0.1,2l0.3,0.3l1.9,1.1l3.4,0.8
			l1.3-0.1l0.6-0.5l0.4-0.9l0.5-0.8l0.7-0.6l0.7-0.1l1.6,0.1l1.5,0.5l1.5,0.8l1.8,0.5l2.6,1l2.1,0.7l1.9,1l2,1.5l3.7,0.7l0.9,0.4
			l1.1,1l1.3,1.7l1.4-0.1l0.9,0.1l0,0.2l0.3-0.5l1-0.6l0.9-0.9l1.3-2.1l0.8-0.5l0.5,0.1l0.7,0.4h0.4l1.2-0.6l1-0.1l0.7,0.2l1.5,1.3
			l0.3,7l0.3,0.6l0.6,0.3l0.8,0.2l2.8,0.5l0.8-0.1l1.3,0.5l0.6,0.7l0.4,0.7l0.8,0.9l1.1,0.8l2.6,1.3l2.3,1.5l0.6,0.8l0.4,1.1
			l2.2,0.9l1.1,1.3l2,0.3l2.8,1.4l0.9,0.3l1.2-0.2l1.1-0.9l0.9-0.1l0.5,0.2l3.1,1.7l0.5,0.3l0.9,0.2l0.9,0l1-0.5l0.8-0.9l0.6-1.2
			l0.4-0.3l0.6,0l1.4,0.9l1.8,1.8l2.2,0.6l1.4,0.1l2.5,1.2l0.6,0l1.3-0.3l2.6-0.8l1.3-0.8l0.6-1.1l-0.7-1.5l-0.1-0.8l0.2-0.8
			l0.4-0.6l0.7-0.2l0.7,0.1l1.5,1.5l3.1,1.4l2.4,0.2l0.7,0.3l0.5,0.5l0.9,1.5l0.6,0.4l0.9-0.1l1.5-0.8l2.5-0.1l2,0.2l1.5,1.3l1,1.5
			l1.1,0.3l1.1,0.1l2.8-1.7l2.7-0.2l1.1-0.3l2.8-2.1l1-0.1l1.1,0.4l-0.3,0.8l-0.3,1.2l-1,2l-0.3,1l-1,2.1l-0.1,0.6l0,4l1.1,2.3
			l0.1,1l-0.5,1.2l-0.3,1.7l-1,2.1l-0.2,0.9l-1.9,3.9l-0.3,0.4l-1.7,1.7l-0.9,0.8l-1.1,0.7l-0.5,0.5l-0.3,0.5l-0.5,1.1l-0.2,0.6
			l-0.1,1.2l-0.5,0.9l-0.2,0.3l-0.4,0.2l-1.2,0.2l-1,0.3l-0.8,0.1l-2.2,0.1l-1.5,0.5l-2,0.2l-3.3,1.6l-1.8,0.3l-1,0.4l-1.8,0.1
			l-0.6,0.1l-2.5,1.1l-0.4,0.3l-0.2,0.4l0,0.6l0.4,1.1l0.2,1.3l0.6,1l0.2,0.2l0.4,0.1l1.9,0l0.5,0.3l0.2,0.8l-0.1,0.6l-0.4,0.9
			l-0.1,0.6v3.8l0.3,0.7l0.4,0.4l0.6,0.3l0.4,0.5l0.1,0.5l0.1,1.8l0.2,0.6l0.9,0.9l0.2,0.5l-0.1,0.7l-0.7,1.5l-0.7,0.9l-1,0.4
			l-1.6,0.8l-0.7,0.7l-0.4,0.8l-0.7,0.8l-0.2,0.4l0.2,0.5l1.4,1.4v0.7l0.6,1.6l0.1,2.9l0.1,0.5l0.4,0.7l0.1,0.5l0,6.9l0.1,1.2
			l0.4,0.9l0.3,1l0.4,0.7l2.4,2.4l0.5,0.9l0.7,0.9l0.3,0.6l0.1,0.7l0,2.5l-0.1,0.6l-0.4,1l-0.3,1.6l-0.4,0.9l-0.3,1l-0.6,0.7
			l-1.1,0.6l-2,0.7l-1.1,1.4l-0.9,1.8l-1.6,1.8l-0.6,1l-2.4,2.5l-0.9,1.4l-1.7,1.7l-0.9,0.5l-1,0.8l-1,0.5l-1.8,1.5l-1,0.5l-1,0.8
			l-7.5,3.7l-1.9,0.3l-0.9,0.3l-0.9,0.2l-1.4,0.6l-0.4,0.3l-0.5,0.5l-0.8,1.3l-2.3,2.3l-0.3,0.4l-0.3,0.7l-0.8,0.9l-2.9,1.5
			l-3.1,1.4l-2.5,1.3l-0.3-1.1l-0.1-1.3l-0.3-1.5l-0.3-1.7l-0.3-2.1l-0.5-4l-0.1-1.3l-0.2-1.5l-0.2-2.1l-0.1-1.1l-1-6.3l-0.2-1
			l-0.3-1.1l-0.2-0.5l-0.3-1.5l-0.2-0.8l-0.1-0.8l-0.4-1l-0.3-1l-0.7-2.4l-0.3-2L250,185l-0.8-2.3l-0.9-1.9l-0.3-0.6l-0.2-0.6
			l-0.4-0.8l-0.9-1.6l-0.9-1.1l-0.5-0.1l-1.2,0.3l-0.1,0l-0.3-0.7l-0.4-0.3l-0.4-0.7l-0.8-0.9l-1.4-0.9l-1.8-0.6l-0.9,0.1h-0.5
			l-0.7-0.2l-0.5-0.1l-0.6-0.1l-0.4-0.3l-1-0.4l-0.5-0.1l-0.5-0.1l-0.5,0l-0.3,0.1h-0.3l-0.8-0.1l-0.5-0.2l-0.7-0.5l-0.6-0.5
			l-1.1-0.8l-0.9-0.2l-0.7-0.3l-0.8-0.3l-0.6-0.1l-1.7-0.4l-0.7-0.2l-0.7-0.2l-0.6-0.4l-1.3-0.4l-1.7-0.1l-1.1,0.4l-0.3,0.1
			l-0.6,0.4l-0.6,0.5l-0.6,0.3h-0.6l-0.5-0.1l-0.5-0.1l-0.8-0.3l-1-0.1l-0.4-0.1l-0.5-0.5l-0.1-0.2l-0.4-0.9l-0.1-0.7l-0.2-0.3
			l-0.3-0.2l-0.4-0.6l-0.4-0.4l-0.8-0.5l-0.2-0.3l-0.1-0.5l-0.8-1l-0.7-0.5l-0.3-0.5l-0.4-1.3l-0.1-1.1l-0.2-1.2l-0.3-1.1l-0.2-1.6
			l-0.2-1.9l-0.7-4.1l-0.4-1.8l-0.4-2l-0.4-1.1l-0.5-1.2l-0.2-0.9l-0.2-0.5l-0.4-0.9l-0.2-0.4l-0.4-0.5l-0.4-0.6l-0.2-0.8l-0.4-0.6
			l-0.9-0.8l-0.6-0.5l-1.1-0.4l-0.9,0l-0.2,0.3l-0.8,0.3l-1.5-0.2l-1,0l-0.7,0.7l-0.2,0.2l-0.5,0.5l-0.3,0.3l-0.5,0.5l-0.7,0.2
			l-0.6-0.2l-0.2-0.2l-0.2-0.2l-0.4-1.2l-0.6-0.6l-0.9-1l-0.3-0.4l-0.9-0.4l-0.1-0.2l-0.3-0.9l-0.3-0.8l-0.2-0.3l-1.1-1.4l-0.5-0.4
			l-1.1-0.7l-0.4-0.8l-0.5-0.2l-0.3-0.7l-0.3-0.5l-0.4-0.6l-0.6-1.1l-0.7-0.9l-0.4-0.4l-1.4-1.2l-0.7-0.2l-1.7-0.1l-1.2-0.6
			l-1.6-0.4l-1.4,0l-0.3-0.2h-0.4l-0.4,0.1l-0.6,0.3h-0.3l-0.4-0.1l-0.2-0.2L168,121l-2.9-0.4l-2.2,0.1l-0.6,0.2l-0.9,0.1h-0.4
			l-1.4-0.2l-0.6-0.1h-0.5l-0.4,0.2l-0.7-0.1l-0.8-0.1l-1.7-0.8l-1.2-1l-1.1-0.3l-0.4-0.2h-0.4l-1.3,0.6l-2.4,0.7l-1.4,0.3l-1.3,0.1
			l-0.8-0.1l-0.4-0.1l-0.5-0.3l-1.4-1.7l-0.6-1.2l-0.5-0.6l-0.9-1.2l-0.2-0.5l-0.4-0.7l-0.3-0.3l-0.8-0.5l-0.4-0.4l-0.4-0.4
			l-0.5-0.4l-0.8-0.3l-0.5,0h-0.6l-0.5,0l-0.3,0.2h-0.5l-0.9,0l-0.4-0.2h-0.3l-0.3,0.1l-0.3,0.3l-0.3,0.2l-0.3,0.1l-0.5-0.5
			l-0.2-0.5l-0.4-0.4l-0.8-0.4l-0.3-0.2l-0.3-0.1h-0.4l-0.3,0.1l-0.8-0.3l-0.4-0.3l-0.5-0.6l-0.4-0.2l-0.3,0l-0.5-0.2l-0.6-0.5
			l-0.2-0.4l-0.4-0.3l-1.3-0.7l-1-0.1l-1.4,0.4l-1.1,0.6l-0.4,0.4l-0.4,0.4l-0.6,0.8l-0.3,0.4l-0.6,0.5l0.1,0.4l0,0.3l-0.2,0.3
			l-0.1,0.1l-0.4-0.1l-0.7-0.5l-0.5-0.7l-0.5-0.4L114,109l-0.5-0.4l-0.9-1.3l-0.4-0.3h-0.8l-0.4-0.2l-0.8-0.8l-0.4-0.4l-0.3-0.2
			l-0.8-0.7l-0.2-0.4l-0.4-2.2l-0.4-5.9l-0.5-4l-0.7-3.1l-0.5-2l-0.5-1.5l-0.5-1l-0.5-0.7l-0.3-0.3l-0.8-0.4l-1-0.4l-0.5-0.1l-0.3,0
			l-0.3-0.2l-0.3-0.4l-0.6-0.3l-0.5-0.3L98.3,81l-0.7-0.3l-1.5-0.4L95,79.8l-1.1-0.7l-2.4-1.9l-0.7-0.4l-1.2,0l-0.1-0.1l0-0.2
			l-1.5-1L87.2,75L87,74.9l-1.6-1l-0.8-0.2h-1.5l-1.5-0.1l-1.9-0.5l-1.1-0.3L78,72.6l-0.6,0.1l-0.1-2.2l0.6-2.6l-0.2-1.3l0.3-0.9
			l0.6-0.8l2-3.9l0.3-1.2l0.5-2.9l0.7-0.8l1.3-1.8l0.1-0.9l0.4-0.8l0.8-0.7l2.5-2.6l0.4-1l0-0.7L87,45.9l0-1.2l0.4-1L88,43l0.6-0.1
			l2.1,0.5l1.2-0.2l1.5-0.6l1.7-0.8l1.7-0.4l0.8,0l1.2,0.4l2.3,0l0.9-0.3l0.9-0.7l1.1-0.4l1.4-0.1l1.7,0.3L109.2,41.9z"/>
		<path class="st1" d="M284.9,309.6l0.3-0.2l0.9,0.1l0.6,0.1l0.9,0.4l0.5,0.1l6.2,0.1l0.7,0.1l0.9,0.4l0.5,0.1l5.1,0l1,0.1l2.6,1.2
			l0.6,0.8l0.1,0.7l-0.1,3l0.1,0.4l0.3,0.4l0.5,0.1l0.8,0l3.2-0.1l0.9,0.2l0.5,0.3l0.4,0.4l0.7,1.2l0.4,0.5l0.5,0.3l1.2,0.4l0.6,0.3
			l2,0.3l0.8,0.4l0.3,0.3l0.2,0.5l0.1,1.2l0.3,0.5l0.4,0.1l0.5-0.2l3.2-1.6l1-0.2l1.2-0.4l0.5-0.1l4.1,0l0.8,0l0.5,0.1l2.5,1.2
			l0.6,0.6l0.6,1.2l0.5,1.5l1.4-0.4l0.9-0.4l2.3-0.2l0.8-0.3l0.9-0.2l6,0.1l2.8-2.7l2.3-1.2l1.7-1.5l0.4-0.1l0.5-0.1l2.6,0l0.8,0.1
			l0.4,0.2l1.7,1.6l0.5,0.6l1.5,3l0.5,0.5l0.4,0.2l0.5,0l4.1,0l0.3,1.2l1.6,3.2l0.1,0.5l0,0.6l0,3.4l-0.1,0.8l-0.4,0.6l-1.7,1.7
			l-0.3,0.7l0,1.5l0.1,0.6l0.4,0.9l0.2,0.8l1.4,2.8l1.5,1.7l0.5,0.9l0.4,0.4l1.9,0.9l0.9,0.8l1.2,2.4l2.2,2.2l0.4,0.5l0.2,0.6
			l0.2,1.4l0.4,0.7l0.5,1.3l0.8,2.7l-0.6,0.4l-0.5,0.6l-0.2,0.7l0.1,1.8l-0.1,0.9l-1.5,3l0.4,0.5l0.1,1.8l-0.8,0.3l-0.8,0.7
			l-0.9,1.7l-1.5-0.1l-0.5,0.4l-0.1,0.8l-0.5,0.5l-0.9,0.3l-0.4,0.4l-0.7,1.6l1.3,2.2l0.3,1.3l0,0.6l-0.3,0.5l-0.8,0l-1.1-0.9
			l-0.9,0l-3,0.9l-2.9-0.2l-0.9-0.4l-1.1-1.1l-1.8-1.1l-0.8-1.5l-2.6,0.1l-1.7,0.3l-1.1-0.6l-1.2-0.7l-1.4,0.1l-0.8,0.2l-1-0.4
			l-0.9-1.1l-0.9-0.5l-0.9-0.3l-1.7-1.3l-0.8-0.2l-2.1,0.3l-1.7-0.6l-4.8,0.2l-0.6,0.3l-0.7-1.9l-0.4-0.4l-0.6-0.2l-0.7-0.8
			l-1.5-0.1l-2.3,0.9l-0.8,0l-1,0.1l-0.9,0.3l-1.1,0.1L326,371l-0.8-0.1l-1.1,0.7l-1.8-0.4l-1,0.4l-3,2.2l-0.6,0.2l-0.8-0.2
			l-2.7-1.5l-1-0.1l-1.6,0l-0.5-0.1l-0.4-0.6l0-0.9l-1.4-1.4l-2.6,0.1l-0.9,1.3l-2.9,2l-0.6,0.2l-1.3,0.3l-0.5,1.4l-0.8,0.7
			l-0.1,1.2l-1.2,1.4l-0.8,1.4l-3.2,1l-0.2,0.8l-1,1.4l-1.6,0.9l-0.5,0l-0.9-1.3l-0.5-1l-1.3-0.6l-1.1-0.3l-0.3-1.1l-0.8-0.4
			l-1.6-0.7l-1.6-0.8l-3,0.1l-1.5-0.3l-0.3-0.5l0.3-0.8l0.6-0.4l0.1-0.6l-0.3-0.7l-1.2-0.5l-3.9,1.7l-1.4,0.4l-1,0.2l-1-0.5l-3-2
			l-1.5-1.4l-3-1.1l-0.5-0.8l-0.9-0.3l-1.6-0.1l-1.1-0.5l0.1-1.2l0.1-0.2l0.2-0.3l0.1-0.6l0.2-0.2l0.3,0l0.2-0.2l0.4-0.4l0.2-1
			l0.2-1.4l0.1-1.8l0-1.5l0.3-1.8l0.6-1.7l0.6-0.9l0.4-0.4l0.2-0.4l0.3-0.6l0.6-0.7l0.5-0.4l0.7-0.9l0.2-0.4l1-1.3l1.1-1.1l1.1-1
			l0.5-0.3l0.2-0.1h0.4l0.4,0.2v0.4l0.1,0.4l0.3,0.7l0.7-0.1l0.4,0.1l-0.1-0.3l0.1-0.3l0.3-0.3l0.2,0.4l0.5,0l0.5-0.4l0.2-0.1
			l0.4-0.5l0.3-0.3l0.5-0.9l0.6-0.7l0.7-1l0.7-1.2l0.5-0.9l0.3-0.5l0.2-0.6l0.2-0.2l0.4,0l0.3-0.6l0.5-0.7l0.4-1.2l0.4-1l1.2-3.4
			l0.8-3l0.5-0.3l0.2-0.3l0.3-0.8l0.5-0.7l0.8-2l0.1-0.7l0.8-2.2l0.2-1l0.6-3.9l0.1-2.1l0.2-2.5l-0.1-0.9l-0.6-2.7l0-0.8l-0.1-0.7
			L284.9,309.6z"/>
		<path class="st1" d="M283.1,273.2l0.6-0.4l0.4-0.1l1.3-0.2l0.9-0.4l0.6-0.1l8,0.1l0.6-0.1l1.4-0.4l2.2-0.3l0.9-0.3l1.8-0.3
			l1.9-0.9l0.7-0.2l5.7,0l0.7-0.1l0.8-0.3l2.4-0.4l1.4,0.8l1.7,0.3l0.9,0.4l1.6,0.3l0.9,0.4l1.1,0.3l0.8,0.6l2.9,2.9l0.9,0.6
			l1.6,0.2l0.8,0.3l0.5,0.1l5.3,0.1l1.1,0.1l0.9,0.4l1,0.2l1.1,0.6l0.3,0.4l0.4,1l-1,0.5l-0.7,0.5l-0.9,1l-0.2,0.3l-0.1,0.4
			l-0.1,1.5l0.2,0.5l1.3,2.5l0.6,0.6l1.1,0.6l0.5,0.1l3.2,0.1l0.8,0.1l1.4,0.7l1.1,0.8l0.6,0.2l0.5,0h0.6l0.7-0.2l0.6-0.9l0.4-0.9
			l0.5-0.8l0.2-0.2l0.4-0.2l1,0l2.9,0.1l0.5,0.1l0.9,0.4l1,0.2l0.7,0.2l1.7,3.5l0.2,1.6l0.4,0.9l0.3,1.1l0.7,1.4l0.6,1l0.7,0.2h2
			l0.8,0.1l2.8,1.3l1.5,0.8l2.6,2.4l0.4,0.2l0.9,0.2l0.9,0.4l1.3,0.4l0.6,0.5l1.4,1.3l0.7,0.4l0.9,0.1l5.7,0l0.8,0.1l0.6,0.2
			l0.5,0.5l1.1,1.7l0.2,0.7l0,8.5l0.2,1l0.4,0.9l0.1,2.1l-3.2,0l-0.6,0.1l-0.6,0.3l-0.8,0.8l-0.5,0.6l-0.6,1.3l-0.2,1.4l-0.1,0.4
			l-0.5,0.9l-0.4,0.2l-1.2,0.2l-1.1,0.4h-0.7l-0.7-0.3l-1.5-1.3l-0.5-0.2l-0.5-0.1h-2.2l-0.6,0.1l-0.7,0.3l-0.3,0l-2.3,0.1l-4.1,0
			l-0.5,0l-0.4-0.2l-0.5-0.5l-1.5-3l-0.5-0.6l-1.7-1.6l-0.4-0.2l-0.8-0.1l-2.6,0l-0.5,0.1l-0.4,0.1l-1.7,1.5l-2.3,1.2l-2.8,2.7
			l-6-0.1l-0.9,0.2l-0.8,0.3l-2.3,0.2l-0.9,0.4l-1.4,0.4l-0.5-1.5l-0.6-1.2l-0.6-0.6l-2.5-1.2l-0.5-0.1l-0.8,0l-4.1,0l-0.5,0.1
			l-1.2,0.4l-1,0.2l-3.2,1.6l-0.5,0.2l-0.4-0.1l-0.3-0.5l-0.1-1.2l-0.2-0.5l-0.3-0.3l-0.8-0.4l-2-0.3l-0.6-0.3l-1.2-0.4l-0.5-0.3
			l-0.4-0.5l-0.7-1.2l-0.4-0.4l-0.5-0.3l-0.9-0.2l-3.2,0.1l-0.8,0l-0.5-0.1l-0.3-0.4l-0.1-0.4l0.1-3l-0.1-0.7l-0.6-0.8l-2.6-1.2
			l-1-0.1l-5.1,0l-0.5-0.1l-0.9-0.4l-0.7-0.1l-6.2-0.1l-0.5-0.1l-0.9-0.4l-0.6-0.1l-0.9-0.1l-0.3,0.2l-0.1-0.9l-0.2-1l-0.2-0.4
			l-0.2-3.4l-0.2-3.1l-0.5-3.8l0-2.3l0.1-0.8l-0.3-0.7l-0.4-1.6l0-0.6l0.2-0.2l0.2-1.2l-0.1,0l-0.3,0.6l-0.1,0.7l-0.2,0.1l-0.6-1
			l-0.2-0.7l-0.6-0.2l-0.2-0.6l-0.4-0.6l-0.2-0.4l-0.8-1.9l-0.3-1.1l-1.1-1.9l-0.3-0.5l-0.1-0.4l-0.4-0.6l-0.2-0.5l-0.4-0.5v-0.3
			l0.2-0.3h0.3l0.2,0l-0.1-0.4l0-0.1l0.2-0.1h0.2v0.4l0.3,0.8l0.1,0.3v0.5l0.2,0.3l0.2,0.4v0.2l-0.1,0.2l-0.1,0.5l0.4,0.3l0.2,0.1
			l0.1-0.2l0.4,0.1l0.3,0.8h0.1l0.2-0.4l0.1-0.1v-0.3l-0.2-0.4l-0.1-0.2v-0.2l0.1-0.3l0.2,0.1l0.1-0.1l-0.1-0.2l-0.3,0l0-0.1
			l0.1-0.2l0.4-0.2l0.1-0.1v-0.1l-0.1-0.2l-0.5,0l-0.2-0.1l-0.1-0.4l-0.1-0.4l-0.7-0.1l-0.1-0.3l-0.4-0.1l-0.1-0.3l-0.3,0.1
			l-0.1-0.3l0.2-0.4h0.2h0.2l0.4,0.2l0.3,0.1l0.4-0.2l0.2-0.1l0.2-0.1l0.9-0.3l0.6-0.3h0.6l0.3,0l0.2-0.1l0.2-0.3l0.2-0.4l-0.1-0.6
			v-0.8l0.1-0.3l0.3-0.1l0.2-0.1l0.4-0.1l0.3-0.1v-0.2l-0.3-0.3l-0.3-0.1l-0.4-0.1l-0.2,0l-0.2-0.2L283.1,273.2z"/>
		<path class="st1" d="M384.5,210.9l1.3,1.5l0.3,0.8l0,1.5l-0.1,0.5l-0.4,1l-0.1,1.8l0.2,0.9l0.9,1.2l0.2,0.6l0,2.9l-0.1,1.4
			l1.3,0.2l1.2-0.1l0.9-0.4l1.1-0.3l0.8-0.3l1.1-0.3l1.1-0.5l0.6-0.5l1.1-2.1l0.3-0.3l0.4-0.2l1.2,0l1.2,0.5l1.5,0.2l0.5,0.3
			l1.3,1.2l0.2,0.2l0.6,0.2h1l1.2-0.4l1.1-0.2l0.3-0.1l0.2-0.3l0.3-1.6l0.4-1.2l0.2-0.4l0.5-0.2l0.4,0l2.2,0.9l0.2,0.2l0.6,1
			l0.7,0.7l0.3,0.2l1.5,0.3l0.2,0.1l0.1,0.2l1.4,0.4l1.3,0.9l1,0.6l5.3,5.2l0.6,0.8l0.3,1.1l0.4,0.9l0.2,2.8l0.4,0.9l0.2,0.8
			l0.1,0.2l0.4,0.2l0.4,0.1l2.8,0l0.7,0.2l2.5,1.3l1.5,1.3l1.1,0.7l1.1,1l0.5,0.3h0.3l0.2-0.1l1.2-1.1l0.5-0.3l2-0.1l1-0.4l0.6-0.1
			l1.1,0l0.9,0.3l1.2-0.8l1.8-0.3l1.4-0.7l1.1-0.9l0.9-0.5l1.6-1.4l0.6-0.8l0.9-1.8l0.3-0.4l4.2-2.1l1-1l0.1-0.4l0.1-0.2l0.6-0.3
			l1.8,0l1.9,0.1l1.4-0.2l1-0.4l0.6-0.1l6,0l0.8,0.1l0.8,0.3l1,0.3l1,0.4l1.9,0.2l1.2,0.5l1.3,0.1l0.8-0.1l0.9-0.4l1.1-0.3l0.8-0.3
			l1.6-0.3l1.1-0.4l1.2-0.1l0.6,0.2l5.7,2.9l1.6,0.3l1.2,0.5l1.6,0.2l1.8,1.8l0.8,0.5l1.6,0.3l0.9,0.4l0.5,0.1l2.9,0.1l1,0.4
			l0.6,0.1l0.7-0.1l2.4-1.2l1.9-1.6l1.5-0.7l1-0.1l1.5,0l0.6,0.2l0.8,0.5l0.3,0.3l0.6,1l0.6,1.3l0.1,0.6l-0.1,0.6l-0.4,0.7l-0.3,1.1
			l-0.4,0.7l-0.3,1.1l-1,1.8l-0.1,0.4l0,0.8l0.1,0.6l0.4,0.9l0.3,1l-1.3,0.2l-1,0.4l-1.6,0.2l-1.3,0.6l-1.1,0.8l-0.4,0.2l-0.8,0.1
			l-2.7,0l-0.8,0.2l-0.5,0.4l-0.7,0.7l-0.4,0.5l-0.5,0.9l-1,1.1L505,252l-1.8,0.8l-0.5,0.5l-0.7,1.3l-0.2,1l-0.4,0.9l-0.1,0.4
			l0.1,0.7l0.4,0.7l0.3,1.1l0.4,0.9l0.1,0.8l0,3.4l-0.1,0.6l-0.4,1l-0.1,1.7l-2.4,1.2l-0.6,0.6l-0.6,1.2l-0.3,1.1l-0.4,0.7l-0.2,1.6
			l-0.4,0.9l-0.3,1.3l-0.6,1.3l-1.4,1.6l-0.7,1.2l-0.9,0.7l-4.3,2.1l-0.7,0.5l-0.1,1l-0.4,0.9l-0.1,0.8l0,8.6l-0.1,1l-0.4,0.6
			l-1.1,0.7l-2,1.8l-0.9,0.5l-0.5,0.4l-1.2,1.2l-0.6,0.8l-0.6,1.2l-0.1,1l0.1,1.1l0.5,1.2l0.1,1l-1.1,0.1l-1,0.4l-1.3,0.1l-0.4,0.1
			l-1.4,0.7l-1.7,1.6l-0.6,0.4l-1.6,0.2l-1,0.4l-1.3,0.1l-0.4,0.1l-1.4,0.7l-1.6,1.4l-2.5,1.2l-0.4,0.1l-1.5,0.2l-0.8,0.3l-1.1,0.3
			l-0.8,0.3l-1.2,0.3l-0.8,0.3l-1,0.2l-0.9,0.4l-1.1,0.3l-7.1,3.4l-1.6,0.7l-1.5-0.7l-1.3-0.7l-0.7,0.2l-1.5,0.1l-1.6,0.5l-4,0.1
			l-1.7,0.5l-3.2,0l-0.6,0.1l-1.1,0.4l-1.8,0.1l-0.5,0.1l-0.4,0.3l-1.3,1.3l-1.4,0.1l-1-0.1l-0.3-0.1l-3-1.5l-0.4-0.1l-0.8-0.1
			l-3.1,0l-0.8-0.1l-0.6-0.2l-2-1l-0.7-0.1H407l-0.7,0.1l-3.8,1.8l-0.7,0.5l-1.6,1.5l-0.4,0.3l-1.3,0.2l-1.2,0l-1-0.1l-2.3-1.1
			l-0.8-0.1l-1.3,0l-0.6-0.5l-0.7-1.2l-2-2.1l-0.1-2.1l-0.4-0.9l-0.2-1l0-8.5l-0.2-0.7l-1.1-1.7l-0.5-0.5l-0.6-0.2l-0.8-0.1l-5.7,0
			l-0.9-0.1l-0.7-0.4l-1.4-1.3l-0.6-0.5l-1.3-0.4l-0.9-0.4l-0.9-0.2l-0.4-0.2l-2.6-2.4l-1.5-0.8l-2.8-1.3l-0.8-0.1h-2l-0.7-0.2
			l-0.6-1l-0.7-1.4l-0.3-1.1l-0.4-0.9l-0.2-1.6l-1.7-3.5l-0.7-0.2l-1-0.2l-0.9-0.4l-0.5-0.1l-2.9-0.1l-1,0l-0.4,0.2l-0.2,0.2
			l-0.5,0.8l-0.4,0.9l-0.6,0.9l-0.7,0.2h-0.6l-0.5,0l-0.6-0.2l-1.1-0.8l-1.4-0.7l-0.8-0.1l-3.2-0.1l-0.5-0.1l-1.1-0.6l-0.6-0.6
			l-1.3-2.5l-0.2-0.5l0.1-1.5l0.1-0.4l0.2-0.3l0.9-1l0.7-0.5l1-0.5l0.9-0.2l0.7,0l0.5,0.1l0.9,0.4l0.8,0l0.5-0.2l0.9-0.7l0.6-0.3
			l0.4-0.3l0.2-0.3l0.1-0.5l0.1-1.5l0.5-1.2l0.1-1.2l0-11.2l-0.1-0.8l-0.5-1.2l0.1-0.6l0.3-0.3l1.5-0.5l1.4-0.2l0.3-0.3l0.2-0.6l0-1
			l-0.1-1l-0.2-0.8l1.1-2l1-1.6l1.1-1.4l1-2l0.9-1.2l2.9-5.8l1.3-1.3l1-0.6l0.5-0.4l2.2-2.1l0.7-0.8l0.7-1.1l1.6-1.6l0.4-0.5
			l0.1-0.4l0.1-0.6l0-6.7l0-0.8l0.2-0.4l0.4-0.4l1.9-0.9l0.3-0.3l0.2-0.3l0.1-0.8l0-3l0.2-0.6l0.7-0.8l1.2-0.6l0.6-0.5l0.4-0.5
			l0.8-1.8l0.3-0.3l0.3-0.2l1-0.2l4.6,0.1l0.8-0.2l1-0.7l0.5-0.2l1.4-0.1L384.5,210.9z"/>
		<path class="st1" d="M859.4,434.5l-2.4-0.1l-1,0.8l-1.3-0.1l-1.9-2.1l-2.7-1.1l-2.8-0.7l-2.3,1.6l-3.4,4.8l-1.6,3.1l-1.6,0.4
			l-2.7-3.6l-0.5-3.4l-2.7-1.1l-2.6,1.4h-2.2l-3.7-4.6l-1.7-2.5l-3.8-4.6l-3.5-3.2l-6.9-0.3l-4.7,0.5l-2.7-1.3H799l-0.6,0.7
			l-2.2,0.6l-0.8,3.1l-1.6,0.9l-1.9-0.7l-1.5-0.3l-3,0.2l-2.6-0.3l-1.1,0.3l-2.3,0.4l-3.8-0.3l-3.1-1.7l-2.5-2.2l-2.7-1.5l-2-0.9
			l-1.4-0.4l-2.8,0.1l-1.7-0.3l-2.2-0.8l-2.4-1.9l-2.6-1.3l-3.3-2.3l-3.1-4.4l-1.2-1.8l-0.5-0.8l0-0.5l0.4-0.7l0.6-0.1l0.6-0.9
			l0.6-1.3l0.7-0.6l0.5-0.7l0.5-0.2l0.6-0.1l1.8-0.1l0.6-0.2l0.3-0.4l-0.2-0.5l-1.8-1.8l-0.7-0.8l-0.7,0l-2.5,1.5l-0.9-0.1l-1.2-0.4
			l-3.2-1.9l-1.3-0.3l-2.1,0.2l-2.1,0.6l-2-0.8l-0.7-0.5l-0.6-0.8l-0.4-2.3l-0.6-1.3l-1.6-0.7l-3.9-1l-2.3-0.8l-1.1-0.6l-0.7-0.6
			l-2-2.4l-0.8-0.5l-0.9-0.1h-0.9l-0.5-0.1l-1.9,2.3l-1,0.9l-0.7,0.5l-0.9,0.1l-0.9-0.1l-3-1.8l-2.6-1.9l-1.8-1.9l-0.3-1.2l-2.2-4.3
			l0-0.6l0.9-1.7l0-0.4l-0.4-0.5l-1.9-1.8l-0.8-0.5l-1-0.2l-1-0.4l-2.9-0.1l-1.5-0.5l-1.5-0.1l-0.6-0.1l-0.4-0.2l-0.3-0.3l-1.2-2.5
			l-0.1-0.6l0-0.8l0.1-0.4l0.4-0.9l0-0.7l-0.1-0.4l-1.6-3l-0.1-0.4l0-0.6l0.3-0.5l1.7-1.7l0.8-1.3l1.4-1.6l0.6-1.2l0.1-0.4l-0.1-0.4
			L693,348l-0.2-1.5l-0.4-0.9l-0.3-1.1l-0.3-0.7l-0.3-1.6l-0.5-1.2l0-3l-0.1-0.8l-1.7-3.4l-0.3-1.1l-0.3-0.7l-0.2-0.8l-0.2-0.2
			l-0.2-0.1l-0.9-0.1l-2.6,0.1l-0.5,0.1l-0.7,0.4l-0.4,0.1l-0.6,0l-0.4-0.2l-0.4-0.4l-0.9-1.9l-1.4-1.6l-0.5-0.9l-0.9-1.1l-1.7-3.4
			l-1.3-1.4l-0.9-0.7v-1.8l-0.1-0.7l-0.8-1.7l-0.8-0.8l-0.9-0.5l-1.1-0.8l-1.6-0.6l5.7-5.5l0.3-0.1l0.4,0l1.4,0.6l0.8,0.7l1.7,1.7
			l0.7,0.5l1.3,0.6l1.6,0.3l1,0.4l0.6-0.1l2-1l2-0.1l1.2-0.5l1.9-0.2l-0.3-1l-0.8-1.5l-1.9-2l-1-0.8l-1.1-0.3l-1-0.4l-2.3-0.1
			l-1.5-0.5l-2-0.2l-1-0.4l-1.6-0.3l-0.7-0.3l-0.8-0.2l-0.3-0.3l-0.3-1.4l-0.4-0.9l-0.1-0.4l-0.1-0.9l0.1-0.8l0.2-0.6l0.8-0.9
			l0.5-0.9l1.3-1.4l0.1-0.3l0-0.4l-1-2.1l-0.3-1.1l-0.6-1.3l-0.5-0.6l-1.4-1.3l-0.3-0.5l0.1-0.5l1.2-2.4l0.1-0.5l-0.5-1.1l-1.6-2.9
			l-0.1-0.5l0-0.3l0.2-0.4l1.7-1.7l0.4-0.7l0.2-2.6l0.4-1l0.1-0.6l0.1-3.4l0.5-1.2l0.2-1.5l0.4-0.9l0.3-1.1l0.6-0.8l2-1.9l0.4-0.7
			l0.1-0.9l0-3.7l0-0.5l0.2-0.4l0.5-0.6l3.4-3.3l0.6-1l0.8-1.1l0.6-0.9l0.5-0.3l1-0.2l0.8-0.3l1.7-0.2l0.9-0.4l1.1-0.3l0.5-0.4
			l1.3-2.5l0.2-0.7v-0.6l-0.1-0.4L693,240l-0.2-1.4l-0.5-0.9l-0.2-0.7l-0.9-1.9l-0.1-0.4l-0.1-3.5l0.1-0.9l0.3-0.5l0.3-0.3l0.5-0.4
			l1-0.6l1.9-1.7l1.1-0.6l0.4-0.6l0.1-0.9l0-5.1l-0.1-0.6l-0.4-0.7l-0.3-1l-0.4-1l0-0.9l1.9-3.9l0.9-1.2l1-2l1.5-1.6l0.5-0.9
			l0.6-0.7l1,2.2l1.3,1.5l1.1,0.9l1,0.4l1.2,0.1l1.3-0.3l1.3-0.5l2.4-0.7l0.8-0.4l0.8-0.2l3-0.2l3,0.3l3.7,0.1l3-0.2l3.2-1.3l2-0.1
			l1.5,0.3l0.9,0.4l1.7,1.8l1.2,1.1l3.3,1.9l3.6,1.5l5.7,3.4l0.4,0.1l3.4-0.3l1.2,0.1l1.1,0.8l0.8,1.1l0.5,1.3l0.3,1.6l-0.1,1.7
			l-0.2,1.5l-0.8,1.5l-4.1,6.5l-0.4,1.2l-0.2,1l0.6,3l-0.1,1.4l-0.7,2.1l0.4,0.5l1.4,1.3l0.5,0.6l0.2,1.8l-0.4,0.6l-0.8,0.6
			l-2.5,1.1l-1.3,0.3l-0.8,0.3l-1.5,0l-1.3,0.6l-0.8,0l-0.7-0.7l-0.7-0.4l-0.9-0.1l-0.7,0.2l-0.4,0.8l-1.6,5.2l-1.2,3.2l-0.9,2
			l0.3,0.7l0.5,0.5l0.9,0.2l0.6,0.3l2,2.2l2.7,0.8l3,2l1,0.4l0.8,0.7l2.6,1.6l1.5,1.3l0.5,1.6l0.7,0.2l0.8,0.5l0.9,0.9l0.5,0.8
			l1.8,1l1.3,0.2l1,0.8l0.7,0.3l1.1,0.1l2.2-0.5l1.5,0.1l2.6,0.9l1.4,0.8l2.6,2.3l0.2,1l0,1.8l0.2,1.3l0.5,1.1l1.4,1.6l0.3,1.8
			l0.5,0.5l1.1,0.7l0.8,0.2l0.9-0.5l2.1-1.9l0.8-0.1l1,0.4l1.2,0.3l0.9-0.5l1.2-0.3l0.5,0.2l0.3,0.7l0.2,1.5l0.2,0.5l0.6,0.2
			l0.7-0.1l0.7-0.3l0.7-0.7l1.4-1.8l0.9,0.3l0.6,0.6l0.3,2.6l0.3,1.1l0.6,1.2l1.2,1.3l1.3,0.7l0.7-0.2l0.3-0.5l0.3-2.6l0.5-0.9
			l0.5-0.2l0.6,0.2l0.7,0.4l3.8,4.1l1.3,0.2l1.8-0.1l1.3-0.4l2.7-1.8l1.1-0.2l0.6,0.2l0.5,0.6l0.4,1.2l1.2,1.6l3.6,3.3l0.7,1.3
			l1,0.3l0.5,0.4l0.2,0.5l-0.1,0.8l0.1,0.3l1.9,0.1l0.5-0.4l0.3-0.7l0.1-1.4l0.4-0.6l0.7,0l0.6,0.3l0.8,1.2l0.7,0.4l0.6-0.4l1.2-1.6
			l0.5-0.3l0.5,0l0.2,0.4l0.2,1.5l-0.1,1.5l0.4,2.2l0.3,0.8l3.2,1.9l-0.4,4.4l-0.6,1.9l-1.3,2.6l-0.7,0.9l-1.9,2l-1.8,0.9l-2.6,1.7
			L819,328l-5.9,1.2l-5.3,1.9l-3.1,4.1l1.7,8.6l1.7,5l0.2,7.4l2.2,2.6l3.3-3.4l2,0.3l-0.1,0.2l3.5,1.5l0.9,1.8l-0.5,1.3l0.3,1.7
			l0.8,1.8l1.4,1.7l0.3,0.5l1.6,2.2l0.3,1.4l-0.3,2.3l0.5,0.9l1.1,1l4,1.5l3,1.3l0.2,0.7l0,1.4l0.3,0.2l2.6,0.1l0.7,0.4l1.1,1.1
			l1,1.8l0.9,0.7l2.3,1.6l1.7,0.6l6.8,2.7l0.1,0.1l0.2,0.6l0.9,0.4l2.7,0.8l0.1,0.4l0.5,0.3l0.1-0.4l0.3-0.6l0.4,0l0.4,0.5l-0.1,0.6
			l-0.3,0.6l0.1,0.6l0.7,0l0.5-0.4l0.3,0.4l0.2,0.6l0.6,0.2l0.4-1.1l0.6,0.3l0.4,0.7l-0.6,1.3l-0.6,0.2l-0.6,0.1l-0.3,0.5l-0.1,0.4
			l0.9,0.2l0.6,0l0.6,0.7l0.3-0.3l0.3-0.6l-0.1-0.6l0.1-0.8l0.2-0.3l0.6,0.2l0.3,0.9l0,1.5l-0.4,0.6l0.3,0.2l0.7-0.1l0.3,0.3
			l0.1,0.6l-0.2,0.7l0.1,0.4l0.8,0.2l1.2-0.4l0.6,0.2l0.1,0.4l-0.4,0.4l0.1,0.6l0.3,0.6l-0.3,1l0.5,0.8l0.8,0.8l0.2,0.5l-0.3,0.6
			l0.3,0.1l2.8,0.2l0.6,0.8l0,0.7l-0.6,0.6l-1.1,0.6l-1.2,1.7l-0.7,0.6l-0.1,3.2l-2.1,2.1l-0.4,1.2l-0.8,0.9l-1.2,1.9l0.3,1.6
			l0.7,1.1l0.3,0.9l-0.4,0.4v1.8l-0.8,0.4l-0.4,1.2l0.2,4.7l-0.8,1.3l-0.1,1.1L859.4,434.5z"/>
		<path class="st1" d="M653.4,330.6l0.4-0.1l0.6-0.4l1.7-1.6l0.6-0.7l0.2-0.7l0-2.3l0.2-0.9l0.6-1.2l0.9-1.1l0.4-0.8l0.8-1.1
			l0.4-0.7l0.4-0.4l0.4-0.1l0.4,0.1l0.7,0.3l1,0.3l2.2,1l0.8,0.1l3.1,0.1l2.1,0.9l0.4-0.1l1.1-0.8l1.2-0.5l0.9,0.7l1.3,1.4l1.7,3.4
			l0.9,1.1l0.5,0.9l1.4,1.6l0.9,1.9l0.4,0.4l0.4,0.2l0.6,0l0.4-0.1l0.7-0.4l0.5-0.1l2.6-0.1l0.9,0.1l0.2,0.1l0.2,0.2l0.2,0.8
			l0.3,0.7l0.3,1.1l1.7,3.4l0.1,0.8l0,3l0.5,1.2l0.3,1.6l0.3,0.7l0.3,1.1l0.4,0.9l0.2,1.5l0.3,0.7l0.1,0.4l-0.1,0.4l-0.6,1.2
			l-1.4,1.6l-0.8,1.3l-1.7,1.7l-0.3,0.5l0,0.6l0.1,0.4l1.6,3.1l0.1,0.4l0,0.7l-0.4,0.8l-0.1,0.4l0,0.8l0.1,0.6l1.2,2.5l0.3,0.3
			l0.4,0.2l0.6,0.1l1.5,0.1l1.5,0.5l2.9,0.1l1,0.4l1,0.2l0.8,0.5l1.9,1.8l0.4,0.5l0,0.4l-0.9,1.7l0,0.6l2.2,4.3l0.3,1.2l-1.5-0.8
			l-1.2-0.2l-0.9,0.3l-1.3,0.9l-0.9-0.1l-0.9,0.3l-1.5,0l-0.8,0.9l-1,2.9l-1,0.4l-1.7,1.2l-0.9,1l-1.1,1l-3.3,0.7l-0.8,0.5l-1.7,2.1
			l-1.5,1.3l-1.6,2.5l-2.2,3.2l-1.1,1.3l-1.4,0.9l-1.6,0.5l-1,0.4l-2.7,2l-2.6,1.1l-1.7,0.6l-0.7,0.5l-1-0.1l-0.9,0.4l-3.7,3.2
			l-0.4,0.6l-0.2,1.3l-0.7,1.2l-1.1,0.1l-1.3-0.1l-2.7-0.7l-0.5,0l-0.9,0.3l-0.5,0l-0.8-0.6l-1.5-1.4l-0.5-0.1l-0.6,0l-0.9-0.1
			l-2.1-0.9l-1.5-2.8l-0.4-0.4l-0.5,0.1l-0.4,0.2l-0.7,1.8l-0.2,0.8l0.5,0.6l0.1,0.5l-0.9,0.8l-0.2,2.1l2.1,3.5l0.8,0.4l2.2,0.6
			l1.7,1l0.7,0.5l0.5,0.6l-0.2,0.7l-2.3,0.2l-1.2-0.1l-2.9-1.4l-1.1-0.3l-0.9,0.1l-0.9,0.5l-1-0.4l-2.3,0.8H636l-0.9,0.2l-1.1,0.9
			l-1.3,0.4l-0.6-0.3l-0.1-1.3l-0.3-0.4l-0.5-0.2l-1.1,0l-1.2,0.4l-0.7,0l-0.7-0.2l-0.7-0.8l-0.3-0.9l-0.6-0.3l-3.6,0.1l-1.3-0.4
			l-0.8-0.1l-0.4,0.2l-0.9,2l-0.4,1.8l-0.3,2l-0.2,0.6l-0.4,0.6l-0.4,0.3l-0.8,0.3l0-2.2l-0.4-0.6l-0.6,0.1l-1.8,0.6l-2.6,1.4
			l-0.4,0.1l-0.7-0.3l-2.7-0.6l-0.8,0.1l-1.5,0.4l-2.3,1.2l-0.9,0.1l-0.8,0l-1.4-0.5l-3.5-2.4l-2.2-2.1l-4.1-2.5l-0.7-0.2l-0.6,0.1
			l-0.7,0.4l-0.4,0.7l-0.2,1.5l0,0.5l-0.3,0.7l-0.5,0.3l-0.8-0.2l-2.3-1l-2.3-0.2l-2.4,0.3l-1.3-0.3l-0.4-0.3l-0.5-2.5l-0.6-0.8
			l-0.7-0.6l-0.4-0.1l-1.3,1.5l-0.5,0.1l-1,0l-0.8-0.2l-1.4-1.3l-0.7,0l-0.5,0.5l-0.2,0.5l0.1,0.7l0.8,1.6l0.1,0.6l-1.3,3.1
			l-0.6,0.6l-0.8,0.5l-1.5,0.5l-1.1,0.1l-4.9-0.2l-2.3-0.2l-1,0.1l-1.1,0.2l-1.9,1l-1.2,0.4l-1.1,0.1l-1.5,0.5l-1.2,0.9l-1.9,2.3
			l-0.3,0l-0.8-3l-0.2-1l-0.4-0.9l-0.1-0.4l0-4.1l-0.1-0.9l-0.7-1.4l-1.4-1.5l-0.5-0.9l-0.8-1.1l-0.4-1.2l-0.4-1l-0.1-1.5l0.2-1.2
			l0.3-0.7l0.4-1.3l0.7-1.2l0.8-1.1l0.2-0.5l0.1-1l-0.1-3.8l-0.4-1.2l-0.3-1.6l-0.6-1.3l-0.5-0.9l-0.3-0.3l-0.3-0.1l-2.1-0.1
			l-0.3-0.1l-0.2-0.4l0-8.4l-0.1-0.8l-0.4-0.9l-0.1-1l0-1l0.3-0.9l-1.6-0.7l-1.1-0.8l-0.8-0.4l-0.5-0.5l-0.1-0.6l0-0.6l0.1-0.5
			l0.4-0.9l0.1-0.6l0-0.5l-0.2-0.6l-0.6-0.5l-4.7-2.3l-0.7-0.2l-0.7,0.1l-0.7,0.3l-1.1,0.3l-2.2,1l-2,0.1l-1.5,0.5l-9.5,0l-0.1-2.1
			l0.2-0.9l0.4-0.5l1.9-0.9l0.4-0.4l0.3-0.5l0.2-1.4l0.4-1.1l0.1-1l0-4.5l-0.1-0.7l-0.4-1l-0.1-1l0.1-0.6l0.4-0.9l0.2-1.4l0.4-0.9
			l0.1-0.5l0.1-5.8l0.2-0.6l0.6-1.6l0.9-0.6l0.4-0.1l1.6-0.1l1.1,0.1l1.2,0.5l1.6,0.3l0.8,0.3l1.1,0.3l0.9,0.4l1.5,0.2l1,0.4l0.4,0
			l0.3-0.1l0.6-0.5l4.8-4.7l0.5-0.6l0.5-0.9l0.9-1.1l4.5,0l0.9,0.1l0.5,0.1l1.8,0.9l0.7,0.1l9.9,0.1l0.7,0.1l1.1,0.4l3.5,0.1
			l0.5,0.1l0.9,0.4l1.4,0.1l1.4,0l0.7-0.1l3.8-1.8l2.4,0.1l0.9,0.2l1.2,0.6l0.8,0.5l1.9,0l1.5,0.5l1.2,0.1l1-0.2l5.5-2.7l1.4-0.4
			l1.3-0.6l1.2-0.9l0.8-0.4l0.4-0.1l0.5,0.2l0.7,0.6l0.5,0.6l0.5,0.9l1.1,1.2l0.8,0.8l0.6,0.3l1,0.1l8.4,0l1-0.1l0.4-0.2l0.4-0.4
			l0.3-0.6l0.6-0.8l0.1-0.4l0-0.2l-0.7-1.7l1.9,0.2l1,0.4l0.5,0.1l2.4,0.1l0.9,0.4l1.2,0.3l0.8,0.3l1.1,0.3l1,0.5l0.3,0.3l0.6,0.9
			l1.7,3.4l1.1,1.2l1.3,1.2l1-0.1l0.8,0l0.5,0.1l0.9,0.4l0.6,0.1l0.8,0l0.6-0.1l0.6-0.4l0.7-1.1l1-1.4l0.5-0.5l0.8,0.1l1.1,0.3
			l0.8,0.4l0.3,0.2l0.1,0.2l0,0.4l-0.9,2.3l0,0.4l0.3,0.3l0.6,0.1l4.6,0l0.6,0.1l1,0.4l2,0.2l0.8,0.5l2.3,2.2l1,0.6l1.3,0.9l0.8,0.1
			h3l1,0.1l6.1,3l0.8,0.1l1,0l1.5-0.5l2.1-0.1l0.8-0.2l2.5-1.2l0.9-0.5l0.3-0.3l0.5-0.9l0.6-1.3l0.2-1.6l0.4-1l0.2-1.5l0.4-0.8
			l0-0.4l-0.3-0.3l-0.6-0.1l-1.5,0l-0.8,0.2l-0.5,0.5l-0.8,1.8l-0.5,0.7l-1,0.9l-0.4,0.2l-0.5,0.1l-2.1,0l-0.9-0.1l-2.5-1.2
			l-1.1-0.8l-1-0.6l-0.3-0.4l-0.1-0.4v-2.2l-0.1-0.8l-1.3-2.6l-0.4-0.5l-0.6-0.5l-1.8-0.9l-0.2-0.2l-0.1-0.4l0.1-0.6l0.4-0.5
			l0.6-0.5l0.9-0.5l0.7-0.6l1.4-1.4L653.4,330.6z"/>
		<path class="st1" d="M671.5,183.1l4.4,0.6l2.4-0.7l3.2-0.7l3,0.3l1.3,0.6l1.1,1.1l1.2,1.9l2.4,2.4l2.9,3.9l2.9,3.7l1,1l2.9,2.3
			l0.8,1.2l0.7,3.7l0.2,0.4l-0.6,0.7l-0.5,0.9l-1.5,1.6l-1,2l-0.9,1.2l-1.9,3.9l0,0.9l0.4,1l0.3,1l0.4,0.7l0.1,0.6l0,5.1l-0.1,0.9
			l-0.4,0.6l-1.1,0.6l-1.9,1.7l-1,0.6l-0.5,0.4l-0.3,0.3l-0.3,0.5l-0.1,0.9l0.1,3.5l0.1,0.4l0.9,1.9l0.2,0.7l0.5,0.9l0.2,1.4
			l0.4,0.9l0.1,0.4v0.6l-0.2,0.7l-1.3,2.5l-0.5,0.4l-1.1,0.3l-0.9,0.4l-1.7,0.2l-0.8,0.3l-1,0.2l-0.5,0.3l-0.6,0.9l-0.8,1.1l-0.6,1
			l-3.4,3.3l-0.5,0.6l-0.2,0.4l0,0.5l0,3.7l-0.1,0.9l-0.4,0.7l-2,1.9l-0.6,0.8l-0.3,1.1l-0.4,0.9l-0.2,1.5l-0.5,1.2l-0.1,3.4
			l-0.1,0.6l-0.4,1l-0.2,2.6l-0.4,0.7l-1.7,1.7l-0.2,0.4l0,0.3l0.1,0.5l1.6,2.9l0.5,1.1l-0.1,0.5l-1.2,2.4l-0.1,0.5l0.3,0.5l1.4,1.3
			l0.5,0.6l0.6,1.3l0.3,1.1l1,2.1l0,0.4l-0.1,0.3l-1.3,1.4l-0.5,0.9l-0.8,1l-0.2,0.5l-0.1,0.8l0.1,0.9l0.1,0.4l0.4,0.9l0.3,1.3
			l0.3,0.3l0.8,0.2l0.7,0.3l1.6,0.3l1,0.4l2,0.2l1.5,0.5l2.3,0.1l1,0.4l1.1,0.3l1,0.8l1.9,2l0.8,1.5l0.3,1l-1.9,0.2l-1.2,0.4l-2,0.1
			l-2,1l-0.6,0.1l-1-0.4l-1.6-0.3l-1.3-0.6l-0.7-0.5l-1.7-1.7l-0.8-0.7l-1.4-0.6l-0.4,0l-0.3,0.1l-5.7,5.5l1.6,0.6l1.1,0.8l0.9,0.5
			l0.8,0.8l0.8,1.6l0.1,0.7v1.8l-1.2,0.5l-1.1,0.8l-0.4,0.1l-2.1-0.9l-3.1-0.1l-0.8-0.1l-2.2-1l-1-0.3l-0.7-0.3l-0.4-0.1l-0.4,0.1
			l-0.4,0.4l-0.4,0.7l-0.8,1.1l-0.4,0.8l-0.9,1.1l-0.6,1.2l-0.2,0.9l0,2.3l-0.2,0.7l-0.6,0.7l-1.7,1.6l-0.6,0.4l-0.4,0.1l-1.2-0.4
			l-1.4-0.1l-0.4-0.1l-1.4-0.7l-1.8-1.7l-0.6-0.4l-1.3-0.6l-1-0.3l-0.8-0.4l-0.4,0l-0.3,0.2l-0.5,0.9l-0.6,1.3l-0.3,1.1l-0.7,1.4
			l-0.4,0.4l-0.9,0.5l-1,0.8l-1,0.5l-0.3,0.1l-0.4-0.1l-1.6-0.8l-0.7-0.1L634,332l-0.9,0.5l-0.2,0.4l-0.1,0.6l0.1,0.6l0.4,0.9
			l0.1,0.5l0,0.6l-0.1,0.4l-0.3,0.3l-0.7,0.4l-1.4,0.4l-1.2,0.6l-0.7,0.8l-0.7,1.8l-0.5,0.5l-1,1.4l-0.7,1.1l-0.6,0.4l-0.6,0.1
			l-0.8,0l-0.6-0.1l-0.9-0.4l-0.5-0.1l-0.8,0l-1,0.1l-1.3-1.2l-1.1-1.2l-1.7-3.4l-0.6-0.9l-0.3-0.3l-1-0.5l-1.1-0.3l-0.8-0.3
			l-1.2-0.3l-0.9-0.4l-2.4-0.1l-0.5-0.1l-1-0.4l-1.9-0.2l-0.2-0.3l-0.2-1.2l-0.4-1l-0.1-0.6l0-0.5l0.3-0.5l2.5-1.3l0.2-0.2l0.2-0.4
			l0.1-0.8l-0.1-3l-0.1-0.6l-0.4-1l-0.1-1.4l0.1-1.1l0.7-1.7l0.3-0.3l0.4-0.1l3.6,0l1,0.1l1,0.4l0.4,0l0.5-0.1l0.7-1l0.7-1.7
			l0.1-1.3l-0.1-1.7l-0.2-0.5l-1.4-1.6l-0.5-0.9l-0.4-0.5l-2.9-2.8l-0.8-1l-1.8-3.6l-0.1-0.4l-0.1-0.7l0-5.7l-0.1-0.7L607,294
			l-0.4-0.4l-3.1-2.9l-2,0.1l-2.4-0.1l-0.5-0.1l-0.9-0.4l-1.5-0.2l-1.1-0.4l-2.1-0.2l-1.2-0.5l-0.8-0.1l-1,0.1l-1.1,0.4l-1,0.2
			l-0.4,0.2l-0.4,0.4l-0.9,1.9l-0.6,1l-1,0.6l-0.8,0.4l-1.2,0.8l0-4.2l0-0.5l-0.2-0.4l-0.6-0.2l-1.1,0l-0.9,0.1l-0.9,0.3l-0.4,0
			l-0.2-0.1l-0.2-0.2l-0.1-0.9l0-1.8l0.1-1l0.4-0.9l0.3-1.1l1-1.8l0.2-0.6l0-1l-0.4-1l-0.1-0.6l0-3l0.2-1.3l0.9-1.8l0.1-0.4l0-0.7
			l-0.5-1.1l0.1-0.9l1.2-2.5l0.4-0.5l0.6-0.5l1.7-0.9l0.4-0.3l0.5-0.8l0.6-1.3l0.4-1.4l0.6-1l1.2-0.6l1.3-0.3l0.8-0.5l0.3-0.3
			l0.3-1.4l0.5-1.2l0.1-0.8l0-2.5l-0.1-0.6l-0.2-0.4l-0.7-0.8l-0.4-0.8l-0.9-1.2l-0.6-1.3l-0.1-0.6l0-3.8l0.1-0.8l0.3-0.6l1-0.6
			l0.3-0.4l0.2-0.9l-0.1-1.3l-0.7-1.5l-0.6-1.1l-0.3-0.3l-0.4-0.3l-1.9-0.9l-0.9-0.6l-0.2-0.7l0-1.8l-0.1-0.5l-0.4-1.1l-0.1-1.9
			l-0.1-0.6l-0.3-0.3l-0.7-0.4l-1.1-0.4l-0.2-0.2l-0.1-0.5l0.1-0.9l0.4-0.9l0.4-1.2l0.6-0.8l1.1-0.6l0.4-0.4l0.2-0.6l0.1-1.7
			l0.1-0.4l0.6-0.7l1-0.9l1.1-0.9l-0.7-1.1l-0.3-1.3l-0.7-1.2l-1-0.6l-1.1-0.3l-0.4-0.2l-0.3-0.3l-0.5-0.9l-0.8-1l-0.7-1.6l-0.1-2.2
			l-0.2-0.5l-0.3-0.2l-1.7-0.6l-2.6-0.1l-0.8-0.1l-0.8-0.6l-2-2l-0.3-0.5l-1.2-2.5l-0.2-1.6l-0.5-1.3l2.5-0.6l1-0.7l0.5-0.5l1-3.6
			l1.1-2.1l1.1-1.9l0.9-1.3l2.6-1.8l2.4-1.1l2.8-1l2.5-0.4l1.8,0l3.9,0.5l1.5,0.1l1-0.3l1.3-0.6l1.3-0.8l2.5-2l2.1-1.4l2-0.9
			l1.8-0.4l2,0.1l9.4,1.2l3.1-0.3l2-0.5l2-0.2l3,0.7l1.2,0.6l1.1,0.7l0.7,0.9l0.9,0.9l0.8,1l2.3,12.3l0.8,1.7l0.6,0.6l1.1,0.7
			l1.1,0.1l0.7-0.1l1.7-1l2.3-5.6l1.7-5.6l2.3-3.7l1.1-1.5l1.1-1.2l1.1-0.9l1.6-0.5l1.7-0.3l2.5-0.1l3.2,0.7l1.9,0.6l2.9,2.4
			l4.6,4.6L671.5,183.1z"/>
		<path class="st1" d="M472.2,152.4l0.3,0l1.5-0.4l1.2-0.5l2.4-0.1l3.1,0.2l4.3,0.6l2.9,1.2l0.9,0.9l1.1,0.7l1.3,0.4l3.1,0.2l1,0.1
			l1.1,0.3l1.9,1.1l2.4,2l0.8,0.7l0.4,0.9l0.5,1.7l0.5,0.7l0.9,0.7l1,0.9l1.4,1.9l0.6,0.3l0.7,0.1l1.8-0.5l1.1,0.2l1.1,0.4l1.2,1
			l1,1.5l1.7,1.2l6.1,2.5l2,1.2l1,1.3l0.5,1.1l0.2,1.1l-0.2,1.6l-4.3,8.7l-1.4,1.2l-0.8,0.5l-0.8,0.3l-0.6,0.9l-0.5,0.6l-0.3,0.5
			l-0.1,0.6l0.1,1.3l3.5,5.3l1.1,1.1l0.7,0l0.6-0.1l2.3-0.9l0.7-0.1l0.8,0.1l1.7,2.2l0.9,0.3l0.9-0.3l1-0.9l0.8-0.2l0.7,0.3l1.4,1.5
			l0.7,0.1l1.3,0l1.8,0.8l0.1,1l0.4,0.9l0.3,1l0.4,0.9l0.1,0.4l-0.1,0.7l-0.4,1l-0.2,1.3l-0.4,0.9l-0.3,1.1l-0.4,0.5l-2,1l-1.3,0.9
			l-3.2,1.5l-1,0.6l-0.7,1.1l-0.2,1.5l-0.1,0.4l-0.4,0.8l-0.3,0.3l-1.1,0.6l-1.6,0.2l-0.9,0.4l-1,0.2l-1.2,0.5l-3.5,0.1l-0.5,0.1
			l-0.9,0.4l-0.7,0.1l-7.4,0l-0.4,0.1l-0.9,0.4l-1.6,0.3l-0.8,0.3l-1,0.2l-1.1,0.4l-1.6,0.2l-0.9,0.5l-0.3,0.4l-0.2,1.2l-0.4,0.9
			l-0.1,0.5l0,2.1l-1.6-0.1l-1.2-0.5l-1.6-0.3l-5.7-2.9l-0.6-0.2l-1.2,0.1l-1.1,0.4l-1.6,0.3l-0.8,0.3l-1.1,0.3l-0.9,0.4l-0.8,0.1
			l-1.3-0.1l-1.2-0.5l-1.9-0.2l-1-0.4l-1-0.3l-0.8-0.4l-0.8-0.1l-6,0l-0.6,0.1l-1,0.4l-1.4,0.2l-1.9-0.1l-1.8,0l-0.6,0.3l-0.1,0.2
			l-0.1,0.4l-1,1l-4.2,2.1l-0.3,0.4l-0.9,1.8l-0.6,0.8l-1.6,1.4l-0.9,0.5l-1.1,0.9l-1.4,0.7l-1.8,0.3l-1.2,0.8l-0.9-0.3l-1.1,0
			l-0.6,0.1l-1,0.4l-2,0.1l-0.5,0.3l-1.2,1.1l-0.2,0.1h-0.3l-0.5-0.3l-1.1-1l-1.1-0.7l-1.5-1.3l-2.5-1.3l-0.7-0.2l-2.8,0l-0.4,0
			l-0.4-0.2l-0.1-0.2l-0.2-0.8l-0.4-0.9l-0.2-2.8l-0.4-0.9l-0.3-1.1l-0.6-0.8l-5.3-5.2l-1-0.6l-1.3-0.9l-1.4-0.4l-0.1-0.2l-0.2-0.1
			l-1.5-0.3l-0.3-0.2l-0.7-0.7l-0.6-1l-0.2-0.2l-2.2-0.9l-0.4,0l-0.5,0.2l-0.2,0.4l-0.4,1.2l-0.3,1.6l-0.2,0.3l-0.3,0.1l-1.1,0.2
			l-1.2,0.4h-1l-0.6-0.2l-0.2-0.2l-1.3-1.2l-0.5-0.3l-1.5-0.2l-1.2-0.5l-1.2,0l-0.4,0.2l-0.3,0.3l-1.1,2.1l-0.6,0.5l-1.1,0.5
			l-1.1,0.3l-0.8,0.3l-1.1,0.3l-0.9,0.4l-1.2,0.1l-1.3-0.2l0.1-1.4l0-2.9l-0.2-0.6l-0.9-1.2l-0.2-0.9l0.1-1.8l0.4-1l0.1-0.5l0-1.5
			l-0.3-0.8l-1.3-1.5l-0.8-1.5l-0.3-1.8l-1.3-2.5l-0.9-1.2l-1-2.1l-0.9-1.1l-0.4-0.8l-0.9-1.1l-0.4-0.8l-1.5-1.7l-0.7-1.5l-0.1-0.9
			l0-4l0.1-1.1l0.3-0.5l0.5-0.4l1.2-0.6l1.3-0.9l-1.1-1.1l-0.6-1.1l-1.3-1.5l-0.6-1l-0.8-0.8l-3.3-1.6l-1.2-1l-1.3-0.6l-1.3-0.3
			l-0.9-0.4l-1.6-0.2l-1.7-1l-2.6-2.4l-0.9-0.5l-1.1-0.9l-2.3-1.2l-0.7-0.7l-0.7-1.2l-1.1-1l0.7-1.2l2.7-5.4l0.3-0.4l0.3-0.2
			l0.6-0.1h4.5l0.5-0.1l0.9-0.4l1.8-0.1l0.6-0.2l0.4-0.4l1.3-2l0.3-1.6l0.4-0.9l0.1-1.1l0.2-0.5l0.2-0.2l0.6-0.1l2.5,0.1l0.8,0.1
			l4.7,2.3l1,0.1l4.5,0l0.6,0.1l1,0.4l2,0.2l1.4,0.6l3.1,1.6l0.7,0.2l4.2,0l0.8,0.2l0.9,0.4l0.9,0l2.8-1.4l1.7-1.5l0.8-0.4l1-0.8
			l0.6-0.2l0.5,0.1l3,1.5l1.1,0.3l0.9,0.4l1.6,0.3l1.3,0.6l0.7,0.6l2,2l0.4,0.3l0.4,0.2l0.7,0l0.9-0.4l0.5-0.1l2.2-0.1l1.6-0.5
			l6.2,0l0.7-0.1l1.2-0.5l1,0l0.5,0.3l0.5,0.9l0.1,0.4l0.1,1.4l0.5,1.1l0.4,0.3l0.7,0l0.9-0.4l1-0.3l0.4-0.2l1-0.9l0.6-0.8l0.1-1.1
			l-0.1-6l0.1-0.5l0.2-0.4l0.2-0.1l2.5-0.9l0.6-1l0.4-1.4l0.5-1.2l0.4-0.5l0.7-0.6l1-0.6l1.8-1.7l1.2-0.7l1.1-1l0.7,0.5l0.9,0.5
			l0.5,0.4l1.4,0.4l6.8,1.6l6.9,3.3l1.1,1.1l1.6,0.7L472.2,152.4z"/>
		<path class="st1" d="M480.3,307.4l1.1-0.1l1.2-0.5l0.7,0l0.7,0.1l2.3,1.1l2.3,0.1l0.6,0.1l0.5,0.4l1.1,1l0.4,0.3l0.5,0.1l1.3,0.1
			l0.6,0.1l2.5,1.2l0.4,0.4l0.3,0.5l0,2.5l0.1,0.8l0.3,0.4l0.4,0.4l1.4,0.8l0.7,0.8l0.1,0.5l0.2,1.3l0.4,0.9l0.2,1.2l0.2,0.4
			l0.4,0.2l0.4,0l6,0l-0.1,1.1l0.1,1l0.4,1.2l0.2,1l0.1,0.3l0.2,0.2l0.5,0.1l2.1,0.1l1.4,0.6l0.6,0.5l2.2,2.2l0.7,0.3l2.9,0.1
			l0.8-0.1l0.4-0.1l2.1-1l4.7,0l1.3,0.1l0.9,0.4l1,0.3l0.8,0.3l1.1,0.3l1.4,0.6l0.9,0.5l0.2,0.2l0.2,0.8l-0.1,2.6l-0.9,1.1l-0.5,0.9
			l-0.5,0.6l-4.8,4.7l-0.6,0.5l-0.3,0.1l-0.4,0l-1-0.4l-1.5-0.2l-0.9-0.4l-1.1-0.3l-0.8-0.3l-1.6-0.3l-1.2-0.5l-1.1-0.1l-1.6,0.1
			l-0.4,0.2l-0.9,0.6l-0.6,1.6l-0.2,0.6l-0.1,5.8l-0.1,0.5l-0.4,0.9l-0.2,1.4l-0.4,0.9l-0.1,0.6l0.1,1l0.4,1l0.1,0.7l0,4.5l-0.1,1
			l-0.4,1l-0.2,1.4l-0.3,0.5l-0.4,0.4l-1.9,0.9l-0.4,0.5l-0.2,0.9l0.1,2.1l9.5,0l1.5-0.5l2-0.1l2.2-1l1.1-0.3l0.7-0.3l0.7-0.1
			l0.7,0.2l4.7,2.3l0.6,0.5l0.2,0.6l0,0.5l-0.1,0.6l-0.4,0.9l-0.1,0.5l0,0.6l0.1,0.6l0.5,0.5l0.8,0.4l1.1,0.8l1.6,0.7l-0.3,0.9l0,1
			l0.1,1l0.4,0.9l0.1,0.8l0,8.4l0.2,0.4l0.3,0.1l2.1,0.1l0.3,0.1l0.3,0.3l0.5,0.9l0.6,1.3l0.3,1.6l0.4,1.2l0.1,3.8l-0.1,1l-0.2,0.5
			l-0.8,1l-0.7,1.2l-0.4,1.3l-0.3,0.7l-0.2,1.2l0.1,1.5l0.4,1l0.4,1.2l0.8,1.1l0.5,0.9l1.4,1.5l0.7,1.4l0.1,0.9l0,4l0.1,0.5l0.4,0.9
			l0.2,1l0.8,3l-0.4,0.1l-1.3-0.2l-2.3-1.2l-5.5,0.1l-1.6,0.1l-3.9-0.4l-1,0.1l-2.6,1.1l-4,2.7l-1.4,0.6l-0.8,0.7l-0.5,0.9l-1.7,2.2
			l-0.7,0.3l-1.8-0.3l-1.6-0.8l-1.2-0.4l-1.7-1.4l-2-1.1l-1,0.1l-1.7,1.2l-1.9,0.7l-2.8,0l-1.5-1l-1.4-1.3l-1.7-1.2l-1.1-0.3
			l-1.4-0.1l-1.4,0.2l-4.5,2.2l-1.5,0.8l-0.6,0.1l-1.6-0.1l-1-1.8l-0.4-1.8l-0.5-1.3l-0.5-1l-1.6-1.9l-1.5-0.6l-2.3-0.8l-0.8-0.5
			l-1.7-1.3l-1.1-0.4l-1.1-0.1l-1.2,0.2l-4.4,1.3l-5.1,1.8l-3.1,0.7l-2.5,0.2l0.8-1.8l-0.2-0.9l-4-8.6l-0.7-0.7l-0.8-0.3l-1.1-0.1
			l-0.9,0.3l-1.8,1.1l-2.6-0.7l-0.9-0.7l0.5-0.5l1.5-0.8l1.2-0.5l1-0.3l1.8-1.1l1.5-1.6l1-0.7l0.1-0.5l0.5-0.4l0.2-0.4l-0.1-0.5
			l-0.4-0.5l-0.9-0.5l-0.8-0.3l-1.1-0.2l-1,0.1l-0.8-0.2l-0.6-0.8l-3-0.4l-0.6-1l-2.2-4.1l-0.5-0.7l-4.2-2.2l-2.3-0.1l-1.3-0.8
			l-1.4-0.5l-1-1.4l-0.8-1.5l-1.9-1.5l-0.5-0.8l0-0.9l-0.7-1.3l-0.9-0.6l-0.4-0.4v-2l-0.5-0.8l-2.9-1.1l-1.6-2.3l-3.2-1.3l-0.3-0.6
			l0.1-1.1l-0.1-1.1l-0.8-0.7l-2.3,0.1l-1.2,0.6l-0.6,2.4l-0.6,1.4l-0.5,0.4l-0.6,0l-0.7-0.5l-0.6-0.7l-0.6-0.4l-0.9-0.2l-1.6-1.3
			l0-0.9l-0.3-0.8l-1.5-1.4l-0.1-0.6l0.5-1.4l0.8-0.6l0.9-0.3l1-0.8l-0.3-3.4l0.3-0.4l1.4-0.7l0.8-0.9l-0.3-1.9l-0.8-0.8l-4.3-0.1
			l-0.5,0.6l-0.3,0.5l-0.4,0.5l-0.4-0.1l-0.9-0.6l-1.2-0.3l-2.7-1.5l-0.8,0l-1.4-0.4l-1.5-0.1l-3.6,0.1l-4.1,1.2l-0.6,0.1l-1.2,0.4
			l-0.8,0.4l-1.7-0.2l-0.6,0.3l-0.6,1.2l-0.9,0.6l-0.8-2.7l-0.5-1.3l-0.4-0.7l-0.2-1.5l-0.2-0.6l-0.4-0.5l-2.2-2.2l-1.2-2.4
			l-0.9-0.8l-1.9-0.9l-0.4-0.3L372,347l-1.5-1.7l-1.4-2.8l-0.2-0.8l-0.4-0.9l-0.1-0.6l0-1.5l0.3-0.7l1.7-1.7l0.4-0.6l0.1-0.8l0-3.4
			l0-0.6l-0.1-0.4l-1.6-3.2l-0.3-1.2l2.3-0.1l0.3-0.1l0.7-0.3l0.6-0.1h2.2l0.5,0.1l0.5,0.2l1.5,1.3l0.7,0.3h0.7l1.1-0.4l1.2-0.2
			l0.4-0.2l0.5-0.9l0.1-0.4l0.2-1.4l0.6-1.3l0.5-0.6l0.8-0.8l0.6-0.4l0.6-0.1l3.2,0l2,2.1l0.7,1.2l0.6,0.5l1.3,0l0.8,0.1l2.3,1.1
			l1,0.1l1.2,0l1.3-0.2l0.4-0.3l1.6-1.5l0.7-0.5l3.8-1.8l0.7-0.1h2.2l0.7,0.1l2,1l0.6,0.2l0.8,0.1l3.1,0l0.8,0.1l0.4,0.1l3,1.5
			l0.3,0.1l1,0.1l1.4-0.1l1.3-1.3l0.4-0.3l0.5-0.1l1.8-0.1l1.1-0.4l0.6-0.1l3.2,0l1.7-0.5l4,0l1.6-0.5l1.5-0.1l0.7-0.1l1.3,0.7
			l1.5,0.7l1.6-0.7l7.1-3.4l1.1-0.3l0.9-0.4l1-0.2l0.8-0.3l1.2-0.3l0.8-0.3l1.1-0.3l0.8-0.3l1.5-0.2l0.4-0.1l2.5-1.2l1.6-1.4
			l1.4-0.7l0.4-0.1l1.3-0.1l1-0.4l1.6-0.2l0.6-0.4l1.7-1.6l1.4-0.7l0.4-0.1l1.3-0.1l1-0.4L480.3,307.4z"/>
		<path class="st1" d="M570.2,195.1l0.5,1.3l0.2,1.6l1.2,2.5l0.3,0.5l2,2l0.8,0.6l0.8,0.1l2.6,0.1l1.7,0.6l0.3,0.2l0.2,0.5l0.1,2.2
			l0.7,1.6l0.8,1l0.5,0.9l0.3,0.3l0.4,0.2l1.1,0.3l1,0.6l0.7,1.2l0.3,1.3l0.7,1.1l-1.1,0.9l-1,0.9l-0.6,0.7l-0.1,0.4l-0.1,1.7
			l-0.2,0.6l-0.4,0.4l-1.1,0.6l-0.6,0.8l-0.4,1.2l-0.4,0.9l-0.1,0.9l0.1,0.5l0.2,0.2l1.1,0.4l0.7,0.4l0.3,0.3l0.1,0.6l0.1,1.9
			l0.4,1.1l0.1,0.5l0,1.8l0.2,0.7l0.9,0.6l1.9,0.9l0.4,0.3l0.3,0.3l0.6,1.1l0.7,1.5l0.1,1.3l-0.2,0.9l-0.3,0.4l-1,0.6l-0.3,0.6
			l-0.1,0.8l0,3.8l0.1,0.6l0.6,1.3l0.9,1.2l0.4,0.8l0.7,0.8l0.2,0.4l0.1,0.6l0,2.5L591,256l-0.5,1.2l-0.3,1.4l-0.3,0.3l-0.8,0.5
			l-1.3,0.3l-1.2,0.6l-0.6,1l-0.4,1.4l-0.6,1.3l-0.5,0.8l-0.4,0.3l-1.7,0.9l-0.6,0.5l-0.4,0.5l-1.2,2.5l-0.1,0.9l0.5,1.1l0,0.7
			l-0.1,0.4l-0.9,1.8l-0.2,1.3l0,3l0.1,0.6l0.4,1l0,1l-0.2,0.6l-1,1.8l-0.3,1.1l-0.4,0.9l-0.1,1l0,1.8l0.1,0.9l0.2,0.2l0.2,0.1
			l0.4,0l0.9-0.3l0.9-0.1l1.1,0l0.6,0.2l0.2,0.4l0,0.5l0,4.2l1.2-0.8l0.8-0.4l1-0.6l0.6-1l0.9-1.9l0.4-0.4l0.4-0.2l1-0.2l1.1-0.4
			l1-0.1l0.8,0.1l1.2,0.5l2.1,0.2l1.1,0.4l1.5,0.2l0.9,0.4l0.5,0.1l2.4,0.1l2-0.1l3.1,2.9l0.4,0.4l0.3,0.5l0.1,0.7l0,5.7l0.1,0.7
			l0.1,0.4l1.8,3.6l0.8,1l2.9,2.8l0.4,0.5l0.5,0.9l1.4,1.6l0.2,0.5l0.1,1.7l-0.1,1.3l-0.7,1.7l-0.7,1l-0.5,0.1l-0.4,0l-1-0.4l-1-0.1
			l-3.6,0l-0.4,0.1l-0.3,0.3l-0.7,1.7l-0.1,1.1l0.1,1.4l0.4,1l0.1,0.6l0.1,3l-0.1,0.8l-0.2,0.4l-0.2,0.2l-2.5,1.3l-0.3,0.5l0,0.5
			l0.1,0.6l0.4,1l0.2,1.2l0.2,0.3l0.7,1.7l0,0.2l-0.1,0.4l-0.6,0.8l-0.3,0.6l-0.4,0.4l-0.4,0.2l-1,0.1l-8.4,0l-1-0.1l-0.6-0.3
			l-0.8-0.8l-1.1-1.2l-0.5-0.9l-0.5-0.6l-0.7-0.6l-0.5-0.2l-0.4,0.1l-0.8,0.4l-1.2,0.9l-1.3,0.6l-1.4,0.4l-5.5,2.7l-1,0.2l-1.2-0.1
			l-1.5-0.5l-1.9,0l-0.8-0.5l-1.2-0.6l-0.9-0.2l-2.4-0.1l-3.8,1.8l-0.7,0.1l-1.4,0l-1.4-0.1l-0.9-0.4l-0.5-0.1l-3.5-0.1l-1.1-0.4
			l-0.7-0.1l-9.9-0.1l-0.7-0.1l-1.8-0.9l-0.5-0.1l-0.9-0.1l-4.5,0l0.1-2.6l-0.2-0.8l-0.2-0.2l-0.9-0.5l-1.4-0.6l-1.1-0.3l-0.8-0.3
			l-1-0.3l-0.9-0.4L527,330l-4.7,0l-2.1,1.1l-0.4,0.1l-0.8,0.1l-2.9-0.1l-0.7-0.3l-2.2-2.2l-0.6-0.5l-1.4-0.6l-2.1-0.1l-0.5-0.1
			l-0.2-0.2l-0.1-0.3l-0.2-1l-0.4-1.2l-0.1-1l0.1-1.1l-6,0l-0.4-0.1l-0.4-0.2l-0.2-0.4l-0.2-1.2l-0.4-0.9l-0.2-1.3l-0.1-0.4
			l-0.7-0.8l-1.4-0.8l-0.4-0.4l-0.3-0.4l-0.1-0.8l0-2.5l-0.3-0.5l-0.4-0.4l-2.5-1.2l-0.6-0.1l-1.3-0.1l-0.5-0.1l-0.4-0.3l-1.1-1
			l-0.5-0.4l-0.6-0.1l-2.3-0.1l-2.3-1.1l-0.7-0.1l-0.7,0l-1.2,0.5l-1.1,0.1l-0.1-1l-0.5-1.2l-0.1-1.1l0.1-1l0.6-1.2l0.6-0.8l1.2-1.2
			l0.5-0.4l0.9-0.5l2-1.8l1.1-0.7l0.4-0.6l0.1-1l0-8.6l0.1-0.8l0.4-0.9l0.1-1l0.7-0.5l4.3-2.1l0.9-0.7l0.7-1.2l1.4-1.6l0.6-1.3
			l0.3-1.3l0.4-0.9l0.2-1.6l0.4-0.7l0.3-1.1l0.6-1.2l0.6-0.6l2.4-1.2l0.1-1.7l0.4-1l0.1-0.6l0-3.4l-0.1-0.8l-0.4-0.9l-0.3-1.1
			l-0.4-0.7l-0.1-0.7l0.1-0.4l0.4-0.9l0.2-1l0.7-1.3l0.5-0.5l1.8-0.8l0.6-0.5l1-1.1l0.5-0.9l0.4-0.5l0.7-0.7l0.5-0.4l0.8-0.2l2.7,0
			l0.8-0.1l0.4-0.2l1.1-0.8l1.3-0.6l1.6-0.2l1-0.4l1.3-0.2l-0.3-1l-0.4-0.9l-0.1-0.6l0-0.8l0.1-0.4l1-1.8l0.3-1.1l0.4-0.7l0.3-1.1
			l0.4-0.7l0.1-0.6l-0.1-0.6l-0.6-1.3l-0.6-1l-0.3-0.3l-0.8-0.5l-0.6-0.2l-1.5,0l-1,0.1l-1.5,0.7l-1.9,1.6l-2.4,1.2l-0.7,0.1
			l-0.6-0.1l-1-0.4l-2.9-0.1l-0.5-0.1l-0.9-0.4l-1.6-0.3l-0.8-0.5l-1.8-1.8l0-2.1l0.1-0.5l0.4-0.9l0.2-1.2l0.3-0.4l0.9-0.5l1.6-0.2
			l1.1-0.4l1-0.2l0.8-0.3l1.6-0.3l0.9-0.4l0.4-0.1l7.4,0l0.7-0.1l0.9-0.4l0.5-0.1l3.5-0.1l1.2-0.5l1-0.2l0.9-0.4l1.6-0.2l1.1-0.6
			l0.3-0.3l0.4-0.8l0.1-0.4l0.2-1.5l0.7-1.1l1-0.6l3.2-1.5l1.3-0.9l2-1l0.4-0.5l0.3-1.1l0.4-0.9l0.2-1.3l0.4-1l0.1-0.7l-0.1-0.4
			l-0.4-0.9l-0.3-1l-0.4-0.9l-0.1-0.9l2.7,0.8l2,1l0.9,0l1.8-0.5l1.1-1l1.1-1.3l3.1-3.1l1.1-1l1-0.5l3,0.4l3.2-1l2-0.8l1.1-0.2
			l0.8,0l1.7,0.7l1.7-0.2l1.1-0.4l1.3-0.9l0.7-0.3L570.2,195.1z"/>
		<path class="st1" d="M268.7,261.2l0.5,0.2l0.1,0.2l0.3,0.2v-0.2h0.5l0.4,0.4v0.2l0,0.2l0.2,0.4v0.1l-0.2,0.1l-0.5,1.1l-0.6,0.6
			l-0.4,0l0-0.1v-1.1l-0.1-0.5v-0.4l-0.1-0.3l-0.2-0.3l-0.1-0.4v-0.3L268.7,261.2L268.7,261.2z M365.5,98.1l-0.3,0.5l-0.1,0.7
			l0.2,0.7l0.4,0.4l0.5,0.2l1,0.2l1,0.1l2.4,1l2.4,0.8l2,1l1.9,1.2l1.9,0.8l1.4,0.8l1.3,1.1l1.1,0.6l1.8,0.4l1.5,0.6l1.3,1.1
			l3.6,1.7l2,0.5l0.4-0.3l0.1-0.7l-0.1-0.9l-1.5-3.2l0.2-0.8l0.5-0.2l1.7,0.3l0.9,0l1.5-0.6l1.1-0.1l4.9-1.4l1.7,0l1.3,0.3l0.7,0.6
			l0.8,0.4l0.7,0.6l1,0.2l2.6-0.6l2.6,0.9l3.5,0.2l0.3,0.7l0.1,1.3l0.3,0.9l0.5,0.5l0.8,0.4l1.5,0.6l0.9,0.7l0.1,0.8l-0.4,1.7
			l-0.4,1.2h1.4l1.3,0.2l2.4,0.3l2,0.4l1.9,0.8l1.8,1.2l1.7,0.7l0.8,0.4l0.1,0.6l-0.6,1.2l-0.6,0.8l-0.6,1.2l0.1,1.6l0.2,1.2
			l1.1,1.8l0.8,1.1l2.1,1.9l6.3,4.3l6.5,5.9l1.1,1.2l0.9,1.7l0.3,0.3l-0.9-0.5l-0.7-0.5l-1.1,1l-1.2,0.7l-1.8,1.7l-1,0.6l-0.7,0.6
			l-0.4,0.5l-0.6,1.1l-0.4,1.4l-0.6,1l-2.6,0.9l-0.2,0.2l-0.2,0.4l-0.1,0.5l0.1,6l-0.1,1.1l-0.6,0.8l-1,0.9l-0.4,0.2l-1,0.3
			l-0.9,0.4h-0.7l-0.4-0.3l-0.5-1.1l-0.1-1.4l-0.1-0.4l-0.5-0.9l-0.5-0.3l-1,0l-1.2,0.5l-0.7,0.1l-6.1,0l-1.6,0.5l-2.2,0.1l-0.5,0.1
			l-0.9,0.4l-0.7,0l-0.4-0.1l-0.4-0.3l-2-2l-0.7-0.6l-1.3-0.6l-1.6-0.2l-0.9-0.4l-1.1-0.3l-3-1.5l-0.5-0.1l-0.6,0.2l-1,0.8l-0.8,0.4
			l-1.8,1.5l-2.8,1.4l-0.9,0l-0.9-0.4l-0.8-0.1l-4.2,0l-0.7-0.2l-3.1-1.6l-1.4-0.7l-2-0.2l-1-0.4l-0.6-0.1l-4.5,0l-1-0.1l-4.7-2.3
			l-0.8-0.1l-2.5-0.1l-0.6,0.1l-0.3,0.2l-0.2,0.5l-0.1,1.1l-0.4,0.9l-0.3,1.6l-1.3,2l-0.4,0.4l-0.6,0.2l-1.8,0.1l-0.9,0.4l-0.5,0.1
			h-4.5l-0.6,0.1l-0.3,0.2l-0.3,0.5l-2.7,5.4l-0.7,1.2l1.1,1l0.7,1.2l0.7,0.7l2.3,1.2l1.1,0.9l0.9,0.5l2.6,2.4l1.7,1l1.6,0.2
			l0.9,0.4l1.3,0.3l1.3,0.6l1.2,1l3.3,1.7l0.8,0.8l0.5,1l1.3,1.5l0.6,1.1l1.1,1.1l-1.3,0.9l-1.1,0.6l-0.5,0.4l-0.3,0.5l-0.1,1.1l0,4
			l0.1,0.9l0.7,1.5l1.5,1.7l0.4,0.8l0.9,1.1l0.4,0.8l0.9,1.1l1,2.1l0.9,1.2l1.2,2.5l0.3,1.8l0.8,1.5l-1.7-0.2l-1.4,0.1l-0.6,0.2
			l-1,0.7L379,212l-4.6-0.1l-1,0.2l-0.3,0.2l-0.3,0.3l-0.8,1.8l-0.4,0.5l-0.6,0.5l-1.2,0.6l-0.7,0.8l-0.2,0.6l0,3l-0.1,0.8l-0.2,0.3
			l-0.3,0.3l-1.9,0.9l-0.4,0.4l-0.2,0.4l-0.1,0.8l0,6.7l-0.1,0.6l-0.2,0.4l-0.4,0.5l-1.6,1.6l-0.7,1.2l-0.7,0.8l-2.2,2.1l-0.5,0.4
			l-1,0.6l-1.3,1.3l-2.9,5.8l-0.9,1.2l-1,2l-1.1,1.3l-1,1.6l-1.1,2l0.2,0.8l0.1,1l0,1l-0.2,0.6l-0.3,0.3l-1.4,0.2l-1.5,0.5l-0.3,0.3
			l-0.1,0.6l0.5,1.2l0.1,0.9l0,11.2l-0.1,1.2l-0.5,1.2l-0.1,1.5l-0.1,0.5l-0.2,0.3l-0.4,0.3l-0.6,0.4l-0.9,0.7l-0.5,0.2l-0.8,0
			l-0.9-0.4l-0.5-0.1l-0.7,0l-0.9,0.1l-0.4-0.9l-0.3-0.4l-1-0.6l-1-0.2l-0.9-0.4l-1.1-0.1L329,276l-0.5-0.1l-0.8-0.4l-1.6-0.2
			l-0.9-0.6l-2.9-2.9l-0.8-0.6l-1.1-0.3l-0.9-0.4l-1.6-0.3l-0.9-0.4l-1.7-0.3l-1.4-0.8l-2.4,0.4l-0.8,0.3l-0.7,0.1l-5.7,0l-0.7,0.2
			l-1.8,0.9l-1.8,0.3l-0.9,0.4l-2.2,0.3l-1.4,0.4l-0.6,0.1l-8-0.1l-0.6,0.1l-0.9,0.3l-1.3,0.2l-0.4,0.1l-0.6,0.4l-0.2-0.5l-0.4-0.3
			l-0.7-0.3l-0.5-0.2l-0.2-0.1l-0.8-0.1l-0.1,0l-0.4,0l-0.6,0.1h-0.6h-0.3l-0.7,0.1l-0.3,0l-0.5-0.2l-0.1-0.2l-0.2,0l-0.1,0.1
			l-0.3,0.1h-0.5l-0.2,0.1l0.1,0.6l0.3,0.1l0.5,0.8h0.2l0,0.4l-0.2,0.2l0.2,0.8l0.2,0.8l0.1,0.9l0.3,0.8l0.3,0.5l0.1,0.3l0,0.4
			l-0.2,0.4l-0.2,0.2l-0.1,0.1l-0.1,0.1l-0.4,0.1h-0.2l-0.1-0.1l-0.3-0.4l-0.1-0.2l-1.2-1.6l-0.6-0.5l-0.3-0.7l-0.4-0.4l-0.7-1.1
			l-0.2-0.3l-0.5-0.7l-0.4-0.3l-0.2-0.4l-0.2-1.7l-0.2-0.4l-0.1-0.1l-0.7-0.1l0.2-0.2l0.1-0.3l0.2-0.1l0.3,0l0-0.2l-0.4,0.1l0.1-0.2
			l0.2-0.2l0.4,0l0.1-0.1l-0.1-0.3l-0.4-0.1l0.1-0.8l-0.3-0.8l-0.3-0.6l-0.7-1l0.1-0.4l0.3-0.8l0.5-0.6l0.1-0.4l0.3-0.4l0.2-0.1
			l0.1,0.1h0.2l0.1-0.1l0.4,0l0-0.1l-1-0.3l-0.6-0.8l-0.6-0.3l-0.5,0l-0.2-0.3l-0.2-0.2l-0.4-0.3l-0.2-0.1v-0.3l0.3-0.1l0.4-0.6
			l0.5-1.4l0.2-2.5l-0.5-3.3l-0.2-0.8l-0.7-1.9l-0.5-2l-0.4-1.6l-0.7-2.1l-0.7-1.9l-0.4-1.5l-0.6-1.6l-0.1-0.6l-0.2-0.6l-0.4-0.5
			l-0.5-1.2l-0.3-1l-0.6-0.2l-0.9-0.9l-0.9-0.4l-0.6-0.5l-0.5-0.3l-0.4-0.2l0.1-0.6v-0.5l0.2-0.5l0.2-0.5l0.4,0l0.4-0.1h0.8l0.4-0.1
			l0.4-0.1l-0.1-0.3l-0.2,0l-0.2,0l-0.2,0.2l-0.2,0.1l-0.8-0.1h-0.2l-0.6,0.3l-0.3,0.8l-0.2,0.2l-0.1,0.4l0.1,0.5h-0.1l-0.1-0.1
			l-0.2-0.4l0-0.4l-0.4-1.5l2.5-1.3l3.1-1.4l2.9-1.5l0.8-0.9l0.3-0.7l0.3-0.4l2.3-2.3l0.8-1.3l0.5-0.5l0.4-0.3l1.4-0.6l0.9-0.2
			l0.9-0.3l1.9-0.3l7.5-3.7l1-0.8l1-0.6l1.8-1.5l1-0.5l1-0.8l0.9-0.5l1.7-1.7l0.9-1.4l2.4-2.5l0.6-1l1.6-1.8l0.9-1.8l1.1-1.4l2-0.7
			l1.1-0.6l0.6-0.7l0.3-1l0.4-0.9l0.3-1.6l0.4-1l0.1-0.6l0-2.5l-0.1-0.7l-0.3-0.6l-0.7-0.8l-0.5-0.9l-2.4-2.4l-0.4-0.7l-0.3-1
			l-0.4-0.9l-0.1-1.2l0-6.9l-0.1-0.5l-0.4-0.7l-0.1-0.5l-0.1-2.9l-0.6-1.6V165l-1.4-1.4l-0.2-0.5l0.2-0.5l0.6-0.8l0.4-0.8l0.7-0.7
			l1.6-0.8l1-0.4l0.7-0.9l0.7-1.5l0.1-0.7l-0.2-0.5l-0.9-0.9l-0.2-0.6l-0.1-1.8l-0.2-0.5l-0.4-0.5l-0.6-0.3l-0.4-0.4l-0.3-0.7v-3.8
			l0.1-0.6l0.4-0.9l0.1-0.6l-0.2-0.7l-0.5-0.3l-1.9,0l-0.4-0.1l-0.2-0.2l-0.6-1l-0.2-1.3l-0.4-1.1l-0.1-0.5l0.2-0.4l0.4-0.3l2.5-1.1
			l0.5-0.1l1.8-0.1l1-0.4l1.8-0.3l3.3-1.6l2-0.2l1.5-0.5l2.2-0.1l0.9-0.1l0.9-0.3l1.2-0.2l0.4-0.2l0.2-0.3l0.5-0.9l0.1-1.2l0.2-0.6
			l0.5-1.1l0.3-0.5l0.5-0.5l1.1-0.6l0.9-0.8l1.7-1.7l0.3-0.4l1.9-3.9l0.2-0.9l1-2.1l0.3-1.7l0.5-1.1l-0.1-1l-1.1-2.3l0-4l0.1-0.6
			l1-2.2l0.3-1l1-2l0.3-1.2l0.3-0.8l0.1-0.2l3,0.5l0.7-0.2l3-1.9l1,0l1.2,0.3l1.1,0.4l0.9,0.7l1.8,1.9l1.1,0.2l1.8,0.1l1-0.5
			l1.6-1.8l0.9-0.7l0.8,0l1.9,0.3l0.7-0.2l0.4-0.5l0.3-1l0.4-0.6l0.4-0.3l0.9-0.2l3.3-0.3l1.3-0.4l2.5-1.2l1.2,0l0.7,0.3l1.6,1.1
			l1,0.9l0.2,0.8l-0.7,0.5l-0.6,0.6L365.5,98.1L365.5,98.1z"/>
		<path class="st1" d="M628.4,340.7l0.7-1.8l0.7-0.8l1.2-0.6l1.4-0.4l0.7-0.4l0.3-0.3l0.1-0.4l0-0.6l-0.1-0.5l-0.4-0.9l-0.1-0.6
			l0.1-0.6l0.2-0.4l0.9-0.5l0.6-0.1l0.7,0.1l1.6,0.8l0.4,0.1l0.3-0.1l1-0.5l1-0.8l0.9-0.5l0.4-0.4l0.7-1.4l0.3-1.1l0.6-1.3l0.5-0.9
			l0.3-0.2l0.4,0l0.8,0.4l1,0.3l1.3,0.6l0.6,0.4l1.8,1.7l1.4,0.7l0.4,0.1l1.4,0.1l1.2,0.4l-0.7,1.1l-1.4,1.4l-0.7,0.6l-0.9,0.5
			l-0.6,0.5l-0.4,0.5l-0.1,0.6l0.1,0.4l0.2,0.2l1.8,0.9l0.6,0.5l0.4,0.5l1.3,2.6l0.1,0.8v2.2l0.1,0.4l0.3,0.4l1,0.6l1.1,0.8l2.5,1.2
			l0.9,0.1l2.1,0l0.5-0.1l0.4-0.2l1-0.9l0.5-0.7l0.8-1.8l0.5-0.5l0.8-0.2l1.5,0l0.6,0.1l0.3,0.3l0,0.4l-0.4,0.8l-0.2,1.5l-0.4,1
			l-0.2,1.6l-0.6,1.3l-0.5,0.9l-0.3,0.3l-0.9,0.5l-2.5,1.2l-0.8,0.2l-2.1,0.1l-1.5,0.5l-1,0l-0.8-0.1l-6.1-3l-1-0.1h-3l-0.8-0.1
			l-1.3-0.9l-1-0.6l-2.3-2.2l-0.8-0.5l-2-0.2l-1-0.4l-0.6-0.1l-4.6,0l-0.6-0.1l-0.3-0.3l0-0.4l0.9-2.3l0-0.4l-0.1-0.2l-0.3-0.2
			l-0.8-0.4l-1.1-0.3L628.4,340.7z"/>
	</g>
</g>
</svg>
