<svg width="793" height="402" viewBox="0 0 793 402" fill="none" xmlns="http://www.w3.org/2000/svg">
<g clip-path="url(#clip0)">
<path d="M32.241 1.85195L33.491 2.99195L35.091 2.73195L35.911 3.08195L38.511 5.42195L40.911 4.97195L41.891 5.28195L43.171 6.03195L43.991 6.19195L45.221 6.18195L45.961 6.27195L47.871 6.59195L48.981 6.55195L49.821 6.01195L50.671 5.31195L51.241 4.98195L53.521 6.44195L55.901 6.75195L57.041 7.46195L58.041 8.88195L59.251 9.40195L60.521 9.85195L62.611 10.232L65.501 11.272L66.441 11.352L68.241 10.362L71.171 6.83195L72.121 6.20195L73.171 5.99195L73.941 5.71195L74.751 5.23195L75.931 4.32195L77.181 4.34195L77.891 4.51195L78.901 5.42195L79.541 6.45195L80.151 7.70195L80.821 8.27195L81.891 8.70195L82.871 8.93195L84.901 9.02195L86.291 9.67195L88.061 10.642L89.241 11.482L90.311 12.552L91.741 13.332L94.151 14.402L95.571 15.182L97.121 16.322L101.281 16.252L102.701 16.382L104.231 17.322L104.841 17.932L104.991 18.752L104.571 20.272L104.641 20.752L105.151 21.382L106.211 21.762L107.291 22.442L108.171 23.282L109.381 26.032L110.951 26.582L112.801 26.432L113.861 26.072L114.531 25.192L115.021 24.812L115.751 24.692L116.621 25.032L117.891 26.082L119.221 26.942L120.571 27.592L121.331 28.612L121.951 29.692L122.071 31.672L122.341 31.922L124.211 33.032L127.601 33.842L128.931 33.782L129.521 33.262L129.891 32.352L130.431 31.602L131.101 30.982L131.841 30.922L133.401 31.042L134.891 31.532L136.351 32.282L138.101 32.802L140.731 33.812L142.851 34.492L144.791 35.492L146.821 36.982L150.501 37.692L151.431 38.1119L152.531 39.1119L153.781 40.852L155.231 40.772L156.121 40.832L156.091 41.052L156.351 40.542L157.391 39.932L158.341 39.022L159.641 36.922L160.471 36.382L160.991 36.522L161.671 36.882H162.111L163.341 36.332L164.361 36.202L165.101 36.412L166.571 37.762L166.881 44.802L167.191 45.412L167.781 45.732L168.631 45.922L171.421 46.372L172.211 46.322L173.471 46.852L174.071 47.512L174.481 48.172L175.311 49.042L176.431 49.882L179.011 51.162L181.331 52.672L181.971 53.462L182.391 54.6119L184.631 55.462L185.721 56.782L187.681 57.122L190.491 58.542L191.401 58.792L192.591 58.632L193.681 57.722L194.571 57.632L195.081 57.822L198.171 59.472L198.631 59.802L199.551 60.022L200.451 60.062L201.431 59.542L202.231 58.632L202.831 57.422L203.261 57.172L203.831 57.202L205.251 58.132L207.011 59.962L209.231 60.602L210.651 60.732L213.131 61.882L213.761 61.872L215.011 61.592L217.561 60.742L218.861 59.952L219.411 58.802L218.721 57.282L218.581 56.502L218.821 55.702L219.211 55.1119L219.881 54.912L220.621 55.052L222.081 56.552L225.201 57.922L227.571 58.142L228.231 58.412L228.691 58.942L229.601 60.472L230.191 60.922L231.111 60.842L232.631 60.082L235.091 59.942L237.081 60.152L238.551 61.472L239.561 62.992L240.691 63.342L241.801 63.442L244.561 61.772L247.261 61.622L248.321 61.272L251.141 59.142L252.161 59.072L253.301 59.442L252.961 60.212L252.671 61.372L251.691 63.372L251.431 64.382L250.421 66.532L250.291 67.152L250.281 71.182L251.391 73.4419L251.491 74.402L251.021 75.562L250.741 77.242L249.741 79.312L249.541 80.202L247.631 84.132L247.381 84.5219L245.721 86.2319L244.781 87.0219L243.651 87.672L243.131 88.152L242.801 88.632L242.261 89.762L242.091 90.3719L241.951 91.572L241.491 92.5219L241.251 92.8019L240.841 92.9819L239.641 93.152L238.691 93.492L237.841 93.5919L235.621 93.642L234.091 94.142L232.131 94.312L228.841 95.892L227.081 96.202L226.031 96.5919L224.231 96.7319L223.671 96.8719L221.221 98.012L220.871 98.332L220.661 98.762L220.711 99.312L221.111 100.372L221.281 101.682L221.881 102.712L222.101 102.882L222.521 102.982L224.381 103.022L224.841 103.292L225.001 104.042L224.901 104.672L224.501 105.582L224.361 106.232V110.012L224.641 110.692L225.051 111.102L225.641 111.392L226.041 111.872L226.191 112.332L226.271 114.132L226.441 114.702L227.311 115.602L227.471 116.112L227.401 116.792L226.721 118.262L226.061 119.162L225.031 119.552L223.391 120.362L222.691 121.102L222.281 121.852L221.621 122.692L221.461 123.142L221.631 123.622L223.071 125.062V125.712L223.631 127.312L223.751 130.192L223.841 130.672L224.201 131.412L224.281 131.892L224.321 138.812L224.421 139.972L224.811 140.862L225.071 141.882L225.471 142.562L227.831 144.982L228.351 145.922L229.011 146.782L229.311 147.402L229.411 148.132L229.391 150.672L229.311 151.232L228.921 152.192L228.661 153.812L228.291 154.722L228.031 155.732L227.431 156.402L226.311 156.982L224.311 157.662L223.201 159.022L222.311 160.852L220.751 162.662L220.181 163.682L217.751 166.182L216.901 167.552L215.161 169.272L214.261 169.752L213.241 170.522L212.251 171.062L210.501 172.532L209.491 173.072L208.451 173.872L200.941 177.532L199.081 177.822L198.211 178.172L197.311 178.372L195.891 179.002L195.451 179.322L194.951 179.872L194.151 181.172L191.901 183.472L191.571 183.912L191.241 184.582L190.491 185.442L187.591 186.912L184.521 188.342L182.061 189.672L181.771 188.572L181.641 187.242L181.341 185.782L181.081 184.102L180.781 182.022L180.331 177.992L180.261 176.702L180.031 175.242L179.871 173.112L179.741 172.052L178.751 165.762L178.561 164.782L178.261 163.632L178.061 163.142L177.801 161.682L177.641 160.922L177.511 160.072L177.081 159.102L176.781 158.082L176.101 155.642L175.831 153.642L172.951 145.022L172.161 142.712L171.241 140.852L170.981 140.272L170.781 139.652L170.391 138.892L169.471 137.332L168.521 136.272L168.061 136.222L166.851 136.492L166.751 136.532L166.461 135.822L166.061 135.512L165.671 134.842L164.921 133.912L163.511 133.062L161.701 132.482L160.821 132.532H160.291L159.571 132.312L159.051 132.172L158.461 132.042L158.061 131.772L157.111 131.372L156.621 131.242L156.101 131.102L155.571 131.062L155.241 131.192H154.921L154.131 131.062L153.611 130.842L152.881 130.302L152.291 129.772L151.241 128.972L150.331 128.752L149.671 128.482L148.851 128.212L148.261 128.082L146.561 127.632L145.871 127.412L145.181 127.232L144.561 126.832L143.311 126.482L141.571 126.392L140.431 126.742L140.131 126.882L139.571 127.322L138.951 127.862L138.361 128.172H137.801L137.341 128.052L136.821 127.942L136.031 127.682L135.081 127.542L134.721 127.462L134.201 126.922L134.101 126.702L133.741 125.762L133.671 125.052L133.481 124.782L133.181 124.612L132.751 124.032L132.391 123.582L131.641 123.052L131.481 122.782L131.411 122.252L130.621 121.272L129.931 120.772L129.641 120.242L129.211 118.902L129.151 117.832L128.951 116.592L128.661 115.522L128.431 113.962L128.201 112.042L127.481 107.982L127.111 106.152L126.691 104.142L126.261 103.032L125.741 101.872L125.511 100.982L125.281 100.482L124.851 99.5919L124.621 99.1919L124.261 98.652L123.901 98.072L123.671 97.2719L123.311 96.6919L122.461 95.882L121.901 95.352L120.751 94.902L119.841 94.952L119.641 95.3019L118.891 95.572L117.411 95.352L116.461 95.392L115.801 96.112L115.571 96.332L115.111 96.822L114.821 97.142L114.331 97.632L113.671 97.812L113.111 97.582L112.891 97.402L112.691 97.182L112.331 96.0219L111.741 95.392L110.851 94.4119L110.561 94.0519L109.641 93.612L109.511 93.432L109.181 92.532L108.891 91.7719L108.721 91.422L107.641 90.032L107.151 89.582L106.031 88.922L105.641 88.1619L105.121 87.932L104.851 87.222L104.591 86.7719L104.201 86.142L103.571 85.072L102.851 84.182L102.491 83.7719L101.081 82.572L100.391 82.3419L98.721 82.252L97.571 81.672L96.001 81.312L94.561 81.2719L94.231 81.0919H93.801L93.351 81.222L92.791 81.542H92.461L92.071 81.402L91.841 81.182L90.951 80.962L88.001 80.5519L85.771 80.602L85.121 80.822L84.231 80.9119H83.841L82.461 80.7319L81.901 80.602H81.441L81.081 80.782L80.361 80.7319L79.581 80.602L77.841 79.8419L76.621 78.852L75.481 78.5919L75.051 78.4119H74.691L73.441 79.032L71.051 79.702L69.611 80.0219L68.301 80.112L67.541 80.062L67.181 79.932L66.691 79.612L65.311 77.962L64.721 76.8019L64.231 76.172L63.351 75.012L63.121 74.472L62.691 73.8019L62.361 73.532L61.611 73.042L61.221 72.632L60.851 72.2319L60.331 71.8719L59.581 71.562L59.051 71.512H58.461L58.001 71.562L57.741 71.782H57.221L56.331 71.742L55.941 71.562H55.611L55.281 71.652L54.951 71.922L54.691 72.102L54.431 72.2319L53.941 71.6919L53.741 71.202L53.311 70.8419L52.521 70.392L52.201 70.212L51.901 70.082H51.451L51.181 70.212L50.331 69.862L49.971 69.5919L49.451 69.012L49.021 68.782L48.761 68.742L48.301 68.562L47.671 68.0219L47.451 67.6619L47.051 67.392L45.771 66.722L44.721 66.632L43.281 66.992L42.201 67.6219L41.771 67.9819L41.351 68.382L40.761 69.1919L40.431 69.5919L39.841 70.132L39.901 70.532L39.941 70.8019L39.771 71.112L39.641 71.252L39.251 71.1619L38.591 70.6219L38.131 69.902L37.581 69.542L36.951 68.962L36.501 68.562L35.611 67.262L35.221 66.952H34.431L34.071 66.7719L33.311 65.962L32.921 65.512L32.661 65.292L31.901 64.572L31.741 64.212L31.311 61.972L30.921 56.032L30.461 52.062L29.801 48.922L29.281 46.952L28.791 45.472L28.301 44.432L27.841 43.762L27.511 43.452L26.761 43.002L25.741 42.592L25.251 42.502L24.991 42.462L24.691 42.232L24.401 41.872L23.771 41.562L23.251 41.292L21.311 40.982L20.661 40.712L19.151 40.352L18.001 39.812L16.921 39.092L14.561 37.162L13.841 36.802L12.661 36.842L12.531 36.712L12.501 36.532L10.961 35.492L10.171 35.002L10.001 34.912L8.43098 33.882L7.61098 33.652H6.14098L4.66098 33.562L2.73098 33.1119L1.64098 32.802L0.990977 32.572L0.350977 32.622L0.250977 30.382L0.820977 27.792L0.670977 26.532L0.930977 25.652L1.50098 24.882L3.53098 21.022L3.86098 19.852L4.38098 16.942L5.09098 16.122L6.43098 14.342L6.55098 13.402L6.93098 12.552L7.71098 11.882L10.211 9.28195L10.611 8.33195L10.571 7.62195L9.95098 5.94195L9.98098 4.74195L10.381 3.70195L10.961 2.99195L11.531 2.86195L13.651 3.34195L14.831 3.15195L16.301 2.58195L18.021 1.78195L19.721 1.39195L20.501 1.40195L21.661 1.84195L23.971 1.80195L24.831 1.47195L25.691 0.781953L26.821 0.371953L28.271 0.251953L29.991 0.521953L32.241 1.85195Z" fill="#C4C4C4"/>
<path d="M207.901 269.582L208.211 269.372L209.091 269.442L209.721 269.532L210.631 269.912L211.121 270.012L217.281 270.062L217.941 270.192L218.861 270.582L219.361 270.672L224.501 270.702L225.541 270.852L228.141 272.092L228.711 272.912L228.781 273.642L228.711 276.672L228.801 277.112L229.081 277.462L229.531 277.582L230.331 277.612L233.541 277.552L234.461 277.752L234.961 278.092L235.311 278.472L236.031 279.662L236.471 280.202L236.971 280.522L238.171 280.872L238.761 281.152L240.721 281.472L241.541 281.912L241.831 282.162L242.001 282.702L242.091 283.932L242.441 284.402L242.851 284.472L243.371 284.312L246.531 282.732L247.521 282.512L248.721 282.062L249.221 282.002L253.321 282.032L254.151 282.062L254.631 282.202L257.151 283.392L257.741 283.992L258.381 285.192L258.921 286.712L260.311 286.302L261.211 285.912L263.471 285.672L264.231 285.352L265.081 285.152L271.121 285.252L273.961 282.532L276.261 281.362L278.001 279.902L278.441 279.752L278.911 279.702L281.521 279.712L282.311 279.802L282.731 280.002L284.461 281.652L284.931 282.272L286.391 285.282L286.871 285.772L287.291 285.932L287.761 285.982L291.851 286.012L292.131 287.172L293.761 290.382L293.881 290.832L293.911 291.482L293.931 294.902L293.821 295.712L293.431 296.352L291.731 298.032L291.401 298.712L291.351 300.212L291.491 300.792L291.901 301.642L292.081 302.472L293.461 305.242L294.971 306.972L295.441 307.822L295.861 308.172L297.781 309.082L298.631 309.832L299.871 312.222L302.091 314.432L302.471 314.902L302.711 315.462L302.901 316.912L303.251 317.632L303.731 318.942L304.551 321.632L303.941 321.982L303.441 322.632L303.221 323.322L303.301 325.112L303.161 326.052L301.701 329.042L302.061 329.542L302.211 331.302L301.421 331.632L300.671 332.312L299.781 334.042L298.241 333.912L297.741 334.342L297.601 335.172L297.131 335.632L296.271 335.932L295.911 336.292L295.201 337.942L296.471 340.092L296.761 341.342L296.731 341.922L296.411 342.422L295.621 342.462L294.541 341.572L293.611 341.612L290.631 342.522L287.761 342.362L286.861 341.972L285.711 340.832L283.941 339.732L283.111 338.262L280.491 338.312L278.811 338.582L277.761 337.972L276.571 337.262L275.211 337.382L274.421 337.562L273.381 337.142L272.511 336.072L271.641 335.542L270.781 335.262L269.081 333.942L268.251 333.772L266.171 334.112L264.481 333.472L259.711 333.692L259.061 334.022L258.401 332.092L258.041 331.732L257.431 331.522L256.701 330.742L255.231 330.682L252.941 331.562L252.181 331.572L251.181 331.722L250.281 332.022L249.211 332.102L248.981 330.992L248.191 330.852L247.051 331.552L245.281 331.172L244.321 331.542L241.321 333.722L240.681 333.872L239.881 333.632L237.171 332.152L236.201 332.022L234.621 332.042L234.121 331.972L233.751 331.332L233.711 330.472L232.291 329.042L229.711 329.152L228.791 330.412L225.901 332.422L225.331 332.652L224.081 332.952L223.591 334.322L222.771 335.052L222.711 336.272L221.481 337.712L220.671 339.132L217.521 340.142L217.281 340.972L216.271 342.412L214.661 343.302L214.121 343.282L213.171 342.032L212.691 341.072L211.391 340.482L210.241 340.172L209.941 339.062L209.181 338.642L207.591 337.942L205.961 337.142L202.951 337.252L201.431 336.922L201.181 336.422L201.451 335.662L202.021 335.222L202.121 334.612L201.791 333.902L200.631 333.372L196.741 335.082L195.311 335.432L194.271 335.592L193.221 335.142L190.251 333.172L188.721 331.762L185.751 330.662L185.271 329.872L184.371 329.532L182.791 329.412L181.671 328.892L181.771 327.722L181.901 327.502L182.131 327.242L182.191 326.672L182.391 326.492L182.651 326.452L182.881 326.282L183.281 325.932L183.511 324.922L183.671 323.572L183.771 321.742L183.741 320.212L184.061 318.372L184.651 316.632L185.281 315.752L185.701 315.362L185.901 315.012L186.191 314.402L186.751 313.662L187.241 313.262L187.901 312.392L188.131 311.952L189.151 310.682L190.291 309.592L191.371 308.632L191.871 308.322L192.061 308.242H192.491L192.881 308.412V308.852L193.011 309.242L193.281 309.902L193.961 309.772L194.391 309.902L194.331 309.592L194.391 309.292L194.691 309.022L194.881 309.372L195.411 309.422L195.931 309.072L196.101 308.942L196.461 308.462L196.751 308.152L197.281 307.272L197.931 306.582L198.651 305.532L199.341 304.302L199.831 303.432L200.101 302.952L200.261 302.382L200.491 302.202L200.881 302.162L201.141 301.592L201.601 300.932L202.031 299.752L202.461 298.752L203.671 295.382L204.491 292.402L204.951 292.142L205.181 291.872L205.501 291.082L206.031 290.342L206.781 288.332L206.921 287.672L207.731 285.432L207.961 284.472L208.521 280.612L208.651 278.462L208.821 276.012L208.721 275.092L208.091 272.372L208.061 271.532L207.931 270.882L207.901 269.582Z" fill="#C4C4C4"/>
<path d="M206.091 233.212L206.681 232.842L207.101 232.722L208.451 232.522L209.351 232.172L209.981 232.082L217.991 232.152L218.601 232.082L220.011 231.662L222.221 231.412L223.131 231.062L224.901 230.752L226.751 229.902L227.411 229.702L233.081 229.712L233.751 229.592L234.511 229.262L236.931 228.852L238.381 229.642L240.061 229.892L240.981 230.272L242.611 230.532L243.501 230.912L244.571 231.192L245.391 231.842L248.271 234.742L249.191 235.342L250.821 235.572L251.581 235.922L252.051 236.012L257.311 236.072L258.421 236.202L259.321 236.622L260.291 236.842L261.381 237.442L261.681 237.862L262.031 238.812L261.051 239.342L260.311 239.882L259.401 240.852L259.231 241.132L259.121 241.572L259.061 243.052L259.221 243.522L260.481 246.022L261.061 246.602L262.181 247.162L262.631 247.292L265.841 247.352L266.651 247.482L268.041 248.192L269.151 249.032L269.761 249.232L270.251 249.282H270.891L271.591 249.062L272.171 248.202L272.551 247.312L273.021 246.532L273.191 246.342L273.611 246.172L274.591 246.122L277.541 246.202L278.031 246.312L278.921 246.692L279.961 246.882L280.631 247.112L282.371 250.612L282.611 252.202L283.001 253.092L283.281 254.232L283.941 255.622L284.571 256.592L285.261 256.792H287.221L288.001 256.882L290.811 258.222L292.341 259.062L294.931 261.512L295.361 261.722L296.231 261.912L297.141 262.292L298.401 262.652L299.021 263.132L300.391 264.472L301.061 264.872L302.001 264.982L307.691 264.942L308.531 265.002L309.151 265.212L309.631 265.682L310.761 267.382L310.961 268.032L311.001 276.512L311.181 277.492L311.541 278.402L311.681 280.522L308.491 280.492L307.881 280.622L307.311 280.972L306.501 281.742L306.011 282.382L305.421 283.642L305.241 285.082L305.111 285.522L304.571 286.392L304.221 286.612L302.991 286.802L301.931 287.212H301.201L300.491 286.902L299.041 285.622L298.581 285.442L298.081 285.382H295.861L295.211 285.522L294.471 285.862L294.161 285.912L291.851 286.012L287.761 285.982L287.291 285.932L286.871 285.772L286.391 285.282L284.931 282.272L284.461 281.652L282.731 280.002L282.311 279.802L281.521 279.712L278.911 279.702L278.441 279.752L278.001 279.902L276.261 281.362L273.961 282.532L271.121 285.252L265.081 285.152L264.231 285.352L263.471 285.672L261.211 285.912L260.311 286.302L258.921 286.712L258.381 285.192L257.741 283.992L257.151 283.392L254.631 282.202L254.151 282.062L253.321 282.032L249.221 282.002L248.721 282.062L247.521 282.512L246.531 282.732L243.371 284.312L242.851 284.472L242.441 284.402L242.091 283.932L242.001 282.702L241.831 282.162L241.541 281.912L240.721 281.472L238.761 281.152L238.171 280.872L236.971 280.522L236.471 280.202L236.031 279.662L235.311 278.472L234.961 278.092L234.461 277.752L233.541 277.552L230.331 277.612L229.531 277.582L229.081 277.462L228.801 277.112L228.711 276.672L228.781 273.642L228.711 272.912L228.141 272.092L225.541 270.852L224.501 270.702L219.361 270.672L218.861 270.582L217.941 270.192L217.281 270.062L211.121 270.012L210.631 269.912L209.721 269.532L209.091 269.442L208.211 269.372L207.901 269.582L207.831 268.732L207.641 267.762L207.471 267.372L207.241 263.942L207.051 260.822L206.591 257.002L206.551 254.712L206.621 253.882L206.321 253.222L205.961 251.642L206.001 251.072L206.191 250.852L206.391 249.622L206.261 249.572L206.001 250.192L205.901 250.892L205.671 250.982L205.051 250.012L204.851 249.312L204.291 249.132L204.061 248.562L203.641 247.942L203.441 247.502L202.621 245.612L202.361 244.512L201.281 242.622L201.011 242.142L200.951 241.702L200.591 241.132L200.421 240.682L200.031 240.202V239.942L200.191 239.632H200.461L200.691 239.672L200.621 239.232L200.651 239.102L200.821 238.972H200.981V239.412L201.311 240.242L201.411 240.552V241.082L201.641 241.392L201.801 241.832V242.052L201.671 242.222L201.571 242.712L202.001 242.972L202.231 243.022L202.321 242.802L202.691 242.882L202.981 243.632H203.111L203.341 243.242L203.471 243.102V242.802L203.281 242.442L203.211 242.272V242.052L203.341 241.782L203.571 241.832L203.701 241.702L203.601 241.482L203.341 241.432L203.311 241.302L203.441 241.132L203.831 240.902L203.961 240.772V240.642L203.831 240.422L203.371 240.462L203.181 240.382L203.051 239.942L202.921 239.502L202.261 239.362L202.131 239.062L201.731 238.972L201.641 238.622L201.371 238.702L201.241 238.402L201.441 238.042H201.641H201.801L202.231 238.222L202.551 238.352L202.921 238.182L203.111 238.092L203.341 238.002L204.231 237.692L204.881 237.382H205.441L205.771 237.342L206.001 237.212L206.231 236.902L206.391 236.462L206.261 235.842V235.092L206.391 234.832L206.691 234.742L206.921 234.652L207.311 234.522L207.601 234.392V234.212L207.281 233.952L207.011 233.862L206.621 233.772L206.461 233.732L206.231 233.552L206.091 233.212Z" fill="#C4C4C4"/>
<path d="M307.521 170.922L308.801 172.442L309.081 173.192L309.071 174.662L308.951 175.122L308.511 176.162L308.431 177.942L308.601 178.882L309.501 180.112L309.691 180.712L309.721 183.642L309.601 185.062L310.871 185.222L312.061 185.132L312.951 184.752L314.091 184.462L314.841 184.132L315.991 183.862L317.131 183.332L317.761 182.802L318.831 180.702L319.141 180.422L319.561 180.252L320.771 180.282L321.941 180.772L323.441 180.982L323.961 181.282L325.231 182.442L325.461 182.602L326.081 182.772H327.071L328.301 182.322L329.371 182.162L329.631 182.052L329.851 181.802L330.161 180.212L330.581 178.982L330.781 178.622L331.271 178.462L331.691 178.492L333.921 179.392L334.111 179.572L334.661 180.552L335.321 181.232L335.591 181.402L337.101 181.682L337.271 181.782L337.331 181.942L338.751 182.382L340.021 183.292L341.051 183.882L346.361 189.102L346.911 189.852L347.201 190.982L347.581 191.872L347.751 194.622L348.131 195.502L348.341 196.272L348.491 196.492L348.851 196.672L349.271 196.722L352.091 196.712L352.811 196.882L355.341 198.162L356.841 199.482L357.991 200.152L359.091 201.182L359.551 201.462H359.831L360.071 201.352L361.261 200.262L361.791 199.972L363.771 199.822L364.801 199.402L365.391 199.292L366.481 199.312L367.391 199.562L368.601 198.812L370.391 198.552L371.781 197.882L372.911 197.022L373.811 196.552L375.381 195.102L376.021 194.292L376.881 192.522L377.231 192.112L381.461 189.982L382.481 189.022L382.571 188.582L382.701 188.372L383.271 188.122L385.091 188.112L387.041 188.242L388.441 188.082L389.481 187.672L390.121 187.562L396.151 187.572L396.961 187.712L397.711 188.062L398.711 188.312L399.751 188.742L401.701 188.932L402.921 189.402L404.221 189.512L405.031 189.422L405.931 189.032L407.071 188.742L407.831 188.412L409.451 188.162L410.511 187.732L411.661 187.672L412.281 187.832L417.951 190.682L419.571 190.942L420.761 191.402L422.361 191.552L424.141 193.312L424.911 193.852L426.541 194.112L427.431 194.492L427.891 194.592L430.821 194.722L431.851 195.152L432.441 195.252L433.161 195.122L435.551 193.932L437.411 192.372L438.961 191.642L439.931 191.542L441.421 191.592L442.011 191.752L442.831 192.212L443.121 192.472L443.741 193.502L444.341 194.762L444.431 195.352L444.331 195.932L443.981 196.662L443.691 197.792L443.331 198.532L443.051 199.662L442.101 201.512L441.961 201.922L441.921 202.672L442.001 203.272L442.411 204.152L442.751 205.192L441.491 205.432L440.441 205.842L438.821 206.082L437.551 206.692L436.451 207.512L436.021 207.712L435.201 207.812L432.481 207.782L431.711 207.972L431.191 208.352L430.501 209.052L430.101 209.552L429.611 210.482L428.611 211.542L427.961 212.012L426.171 212.842L425.661 213.302L424.971 214.652L424.731 215.652L424.331 216.522L424.251 216.952L424.331 217.682L424.691 218.412L424.991 219.532L425.391 220.422L425.481 221.192L425.461 224.552L425.331 225.152L424.911 226.172L424.781 227.862L422.371 229.032L421.781 229.602L421.171 230.842L420.901 231.982L420.551 232.712L420.321 234.332L419.931 235.212L419.601 236.462L418.961 237.712L417.541 239.302L416.811 240.522L415.941 241.252L411.611 243.312L410.921 243.812L410.811 244.852L410.431 245.732L410.301 246.522L410.321 255.072L410.221 256.032L409.821 256.602L408.691 257.262L406.711 259.032L405.781 259.532L405.261 259.922L404.051 261.082L403.441 261.842L402.811 263.082L402.681 264.032L402.751 265.162L403.221 266.342L403.331 267.392L402.261 267.482L401.231 267.892L399.881 268.042L399.461 268.162L398.061 268.872L396.321 270.502L395.681 270.932L394.041 271.172L393.011 271.572L391.661 271.722L391.241 271.842L389.841 272.542L388.231 273.942L385.691 275.172L385.271 275.292L383.781 275.482L383.031 275.822L381.881 276.092L381.131 276.432L379.981 276.702L379.231 277.042L378.221 277.262L377.331 277.652L376.191 277.912L369.131 281.342L367.551 282.022L366.061 281.332L364.771 280.602L364.081 280.752L362.591 280.882L361.041 281.382L357.061 281.432L355.361 281.962L352.151 282.012L351.521 282.122L350.451 282.512L348.671 282.642L348.211 282.792L347.811 283.062L346.491 284.372L345.071 284.432L344.061 284.332L343.791 284.242L340.781 282.722L340.341 282.592L339.511 282.512L336.391 282.542L335.551 282.482L334.931 282.322L332.911 281.342L332.241 281.242H330.021L329.321 281.392L325.571 283.182L324.921 283.672L323.361 285.162L322.941 285.412L321.621 285.572L320.411 285.552L319.401 285.412L317.101 284.352L316.351 284.262L315.061 284.282L314.421 283.812L313.711 282.602L311.681 280.522L311.541 278.402L311.181 277.492L311.001 276.512L310.961 268.032L310.761 267.382L309.631 265.682L309.151 265.212L308.531 265.002L307.691 264.942L302.001 264.982L301.061 264.872L300.391 264.472L299.021 263.132L298.401 262.652L297.141 262.292L296.231 261.912L295.361 261.722L294.931 261.512L292.341 259.062L290.811 258.222L288.001 256.882L287.221 256.792H285.261L284.571 256.592L283.941 255.622L283.281 254.232L283.001 253.092L282.611 252.202L282.371 250.612L280.631 247.112L279.961 246.882L278.921 246.692L278.031 246.312L277.541 246.202L274.591 246.122L273.611 246.172L273.191 246.342L273.021 246.532L272.551 247.312L272.171 248.202L271.591 249.062L270.891 249.282H270.251L269.761 249.232L269.151 249.032L268.041 248.192L266.651 247.482L265.841 247.352L262.631 247.292L262.181 247.162L261.061 246.602L260.481 246.022L259.221 243.522L259.061 243.052L259.121 241.572L259.231 241.132L259.401 240.852L260.311 239.882L261.051 239.342L262.031 238.812L262.931 238.662L263.621 238.682L264.111 238.782L265.011 239.162L265.851 239.172L266.321 238.972L267.271 238.282L267.911 237.932L268.271 237.612L268.451 237.332L268.581 236.842L268.681 235.312L269.131 234.082L269.241 232.872L269.231 221.652L269.111 220.802L268.641 219.622L268.731 219.022L269.061 218.732L270.561 218.252L271.931 218.052L272.271 217.782L272.431 217.212L272.441 216.222L272.351 215.202L272.141 214.442L273.221 212.422L274.251 210.852L275.361 209.472L276.391 207.442L277.331 206.232L280.261 200.462L281.561 199.172L282.601 198.612L283.091 198.232L285.291 196.102L286.031 195.282L286.701 194.132L288.271 192.542L288.651 192.052L288.801 191.622L288.861 191.012L288.821 184.322L288.871 183.552L289.031 183.142L289.421 182.752L291.311 181.872L291.641 181.622L291.881 181.282L292.031 180.492L292.021 177.482L292.201 176.872L292.941 176.082L294.111 175.442L294.691 174.922L295.061 174.422L295.901 172.662L296.161 172.342L296.501 172.102L297.471 171.952L302.071 172.002L302.841 171.792L303.821 171.062L304.371 170.822L305.801 170.752L307.521 170.922Z" fill="#C4C4C4"/>
<path d="M782.441 394.451L780.031 394.391L779.081 395.201L777.741 395.061L775.861 392.911L773.161 391.831L770.341 391.161L768.051 392.781L764.691 397.621L763.071 400.721L761.461 401.121L758.771 397.551L758.231 394.191L755.541 393.111L752.981 394.461H750.831L747.141 389.811L745.441 387.331L741.681 382.751L738.181 379.521L731.311 379.251L726.601 379.791L723.911 378.451H722.031L721.421 379.171L719.211 379.761L718.381 382.811L716.771 383.711L714.871 383.001L713.411 382.731L710.371 382.901L707.731 382.621L706.641 382.941L704.311 383.321L700.491 383.071L697.441 381.351L694.951 379.111L692.211 377.651L690.211 376.721L688.791 376.351L685.961 376.461L684.221 376.121L682.031 375.291L679.621 373.421L677.061 372.141L673.741 369.881L670.631 365.501L669.391 363.671L668.921 362.821L668.951 362.291L669.301 361.611L669.941 361.471L670.551 360.581L671.121 359.291L671.861 358.721L672.351 358.051L672.871 357.811L673.481 357.681L675.301 357.621L675.921 357.421L676.191 357.001L676.031 356.521L674.221 354.741L673.501 353.901L672.821 353.851L670.341 355.391L669.471 355.301L668.301 354.901L665.141 352.991L663.821 352.671L661.731 352.851L659.591 353.471L657.621 352.701L656.961 352.201L656.331 351.451L655.931 349.111L655.371 347.811L653.791 347.081L649.861 346.121L647.591 345.331L646.531 344.691L645.871 344.061L643.901 341.701L643.051 341.241L642.121 341.111H641.191L640.651 340.991L638.791 343.271L637.831 344.171L637.131 344.621L636.231 344.741L635.331 344.671L632.371 342.821L629.811 340.951L628.031 339.071L627.701 337.851L625.491 333.571L625.501 333.011L626.351 331.271L626.301 330.901L625.881 330.361L624.011 328.571L623.261 328.111L622.251 327.881L621.211 327.461L618.281 327.351L616.781 326.841L615.251 326.751L614.671 326.631L614.321 326.391L614.061 326.081L612.821 323.611L612.711 323.031L612.731 322.281L612.841 321.851L613.251 321.001L613.281 320.281L613.171 319.871L611.551 316.821L611.461 316.391L611.511 315.801L611.801 315.271L613.481 313.601L614.261 312.351L615.691 310.781L616.321 309.561L616.391 309.161L616.311 308.751L615.991 308.031L615.771 306.571L615.381 305.691L615.091 304.571L614.751 303.841L614.501 302.241L614.031 301.071L613.981 298.051L613.891 297.281L612.211 293.921L611.941 292.791L611.611 292.051L611.401 291.291L611.251 291.071L611.011 290.931L610.131 290.831L607.521 290.901L607.071 291.011L606.341 291.361L605.901 291.451L605.311 291.401L604.931 291.201L604.571 290.791L603.651 288.901L602.251 287.321L601.741 286.411L600.891 285.321L599.151 281.921L597.811 280.541L596.901 279.881V278.091L596.821 277.351L596.001 275.701L595.211 274.941L594.291 274.451L593.181 273.611L591.601 273.001L597.301 267.491L597.561 267.371L598.001 267.331L599.381 267.961L600.201 268.621L601.931 270.351L602.631 270.891L603.911 271.491L605.551 271.741L606.561 272.141L607.111 272.071L609.111 271.111L611.101 270.971L612.271 270.521L614.211 270.281L613.861 269.241L613.061 267.731L611.131 265.741L610.121 264.961L608.981 264.661L607.941 264.251L605.621 264.131L604.141 263.621L602.161 263.441L601.121 263.021L599.471 262.771L598.731 262.441L597.951 262.221L597.651 261.971L597.401 260.621L597.021 259.741L596.921 259.301L596.871 258.391L596.941 257.631L597.181 257.081L597.941 256.131L598.451 255.251L599.781 253.811L599.911 253.551L599.951 253.121L598.941 251.041L598.661 249.901L598.051 248.651L597.571 248.021L596.191 246.681L595.921 246.211L595.981 245.741L597.181 243.351L597.261 242.881L596.811 241.791L595.231 238.861L595.101 238.321L595.151 238.041L595.371 237.651L597.061 235.991L597.451 235.331L597.601 232.751L598.021 231.741L598.151 231.141L598.231 227.781L598.691 226.611L598.901 225.141L599.271 224.261L599.571 223.141L600.131 222.381L602.121 220.451L602.521 219.781L602.621 218.851L602.581 215.171L602.631 214.711L602.791 214.271L603.281 213.661L606.641 210.351L607.231 209.321L608.071 208.221L608.651 207.271L609.131 206.981L610.121 206.751L610.871 206.431L612.521 206.211L613.421 205.841L614.551 205.561L615.071 205.131L616.341 202.661L616.511 201.941V201.331L616.431 200.891L616.041 200.001L615.801 198.611L615.351 197.701L615.121 197.001L614.171 195.141L614.041 194.721L613.961 191.191L614.051 190.251L614.351 189.711L614.671 189.371L615.161 189.001L616.211 188.441L618.101 186.721L619.211 186.081L619.601 185.511L619.711 184.611L619.661 179.501L619.541 178.871L619.191 178.131L618.931 177.141L618.501 176.131L618.491 175.241L620.441 171.361L621.371 170.141L622.391 168.111L623.841 166.501L624.291 165.621L624.861 164.951L625.881 167.161L627.151 168.661L628.221 169.571L629.231 170.001L630.391 170.151L631.681 169.851L633.011 169.311L635.441 168.611L636.261 168.201L637.031 168.041L640.001 167.841L642.951 168.181L646.641 168.301L649.641 168.141L652.791 166.811L654.801 166.761L656.331 167.031L657.231 167.461L658.891 169.231L660.131 170.331L663.431 172.231L667.001 173.701L672.721 177.151L673.161 177.271L676.561 176.981L677.771 177.031L678.871 177.791L679.711 178.881L680.211 180.211L680.561 181.761L680.501 183.441L680.301 184.931L679.521 186.471L675.391 192.971L674.991 194.121L674.801 195.141L675.361 198.181L675.311 199.601L674.581 201.691L674.931 202.171L676.381 203.431L676.831 204.021L677.021 205.781L676.601 206.421L675.811 207.051L673.301 208.131L671.981 208.381L671.211 208.681L669.751 208.671L668.491 209.281L667.691 209.251L667.021 208.571L666.311 208.191L665.401 208.081L664.701 208.311L664.311 209.071L662.691 214.291L661.491 217.531L660.621 219.501L660.891 220.201L661.381 220.691L662.251 220.901L662.861 221.171L664.891 223.351L667.591 224.201L670.641 226.231L671.651 226.661L672.421 227.341L674.981 228.991L676.461 230.281L676.991 231.891L677.671 232.061L678.451 232.601L679.331 233.501L679.811 234.281L681.591 235.251L682.891 235.471L683.841 236.271L684.561 236.591L685.681 236.731L687.911 236.201L689.431 236.291L692.051 237.211L693.431 237.991L696.071 240.261L696.221 241.281L696.191 243.101L696.361 244.371L696.831 245.481L698.181 247.091L698.481 248.841L698.971 249.331L700.031 250.021L700.821 250.191L701.671 249.651L703.811 247.801L704.581 247.691L705.581 248.081L706.801 248.381L707.691 247.841L708.861 247.551L709.361 247.751L709.701 248.421L709.931 249.881L710.131 250.391L710.701 250.631L711.431 250.521L712.101 250.181L712.811 249.521L714.181 247.751L715.081 248.081L715.711 248.681L715.971 251.231L716.251 252.331L716.821 253.511L718.001 254.831L719.321 255.571L719.981 255.371L720.251 254.841L720.531 252.281L721.071 251.431L721.551 251.231L722.161 251.431L722.831 251.861L726.621 255.961L727.951 256.191L729.731 256.121L731.081 255.741L733.801 253.921L734.941 253.681L735.581 253.851L736.101 254.421L736.531 255.591L737.691 257.161L741.291 260.501L741.991 261.831L743.031 262.131L743.481 262.581L743.681 263.061L743.541 263.811L743.601 264.101L745.481 264.251L745.961 263.841L746.211 263.131L746.341 261.751L746.771 261.121L747.421 261.071L747.991 261.351L748.771 262.511L749.441 262.901L750.001 262.521L751.161 260.871L751.681 260.531L752.221 260.551L752.461 260.921L752.691 262.421L752.551 263.931L752.961 266.091L753.291 266.901L756.471 268.841L756.061 273.241L755.471 275.171L754.201 277.751L753.511 278.701L751.581 280.681L749.741 281.621L747.171 283.351L742.031 287.981L736.111 289.211L730.851 291.131L727.741 295.191L729.421 303.811L731.091 308.831L731.331 316.251L733.481 318.881L736.831 315.531L738.881 315.831L738.811 316.061L742.291 317.571L743.211 319.401L742.701 320.741L742.981 322.441L743.801 324.211L745.171 325.931L745.481 326.471L747.041 328.641L747.301 330.021L746.991 332.271L747.501 333.181L748.641 334.171L752.631 335.641L755.671 336.981L755.861 337.641L755.911 339.081L756.221 339.311L758.871 339.451L759.611 339.841L760.681 340.931L761.641 342.731L762.541 343.461L764.811 345.031L766.541 345.601L773.351 348.271L773.471 348.361L773.641 349.001L774.521 349.351L777.181 350.141L777.331 350.551L777.811 350.891L777.901 350.491L778.241 349.841L778.641 349.861L779.041 350.351L778.941 350.921L778.681 351.561L778.751 352.211L779.401 352.221L779.891 351.831L780.211 352.241L780.431 352.821L781.001 352.991L781.431 351.871L782.071 352.211L782.461 352.951L781.861 354.231L781.281 354.461L780.721 354.531L780.381 355.001L780.291 355.411L781.171 355.591L781.741 355.611L782.371 356.271L782.711 355.951L782.961 355.391L782.901 354.741L783.001 353.941L783.171 353.621L783.731 353.791L784.031 354.691L784.001 356.151L783.581 356.791L783.901 356.961L784.551 356.811L784.871 357.061L784.931 357.711L784.751 358.441L784.821 358.841L785.631 359.021L786.851 358.651L787.411 358.831L787.561 359.241L787.151 359.631L787.291 360.281L787.601 360.861L787.331 361.821L787.801 362.641L788.591 363.391L788.741 363.881L788.481 364.521L788.801 364.651L791.571 364.881L792.211 365.731L792.251 366.421L791.681 367.031L790.551 367.631L789.351 369.361L788.681 370.011L788.571 373.201L786.501 375.291L786.061 376.451L785.231 377.381L783.991 379.261L784.251 380.811L784.911 381.871L785.261 382.751L784.831 383.151V384.981L784.061 385.391L783.671 386.611L783.901 391.291L783.061 392.611L782.981 393.731L782.441 394.451Z" fill="#C4C4C4"/>
<path d="M576.361 290.572L576.741 290.452L577.331 290.022L579.041 288.392L579.621 287.692L579.811 286.972L579.821 284.672L579.991 283.802L580.641 282.562L581.511 281.492L581.921 280.722L582.751 279.622L583.131 278.882L583.531 278.522L583.941 278.422L584.351 278.502L585.081 278.832L586.081 279.092L588.241 280.132L589.031 280.222L592.121 280.292L594.231 281.212L594.621 281.152L595.691 280.392L596.901 279.882L597.811 280.542L599.151 281.922L600.891 285.322L601.741 286.412L602.251 287.322L603.651 288.902L604.571 290.792L604.931 291.202L605.311 291.402L605.901 291.452L606.341 291.362L607.071 291.012L607.521 290.902L610.131 290.832L611.011 290.932L611.251 291.072L611.401 291.292L611.611 292.052L611.941 292.792L612.211 293.922L613.891 297.282L613.981 298.052L614.031 301.072L614.501 302.242L614.751 303.842L615.091 304.572L615.381 305.692L615.771 306.572L615.991 308.032L616.311 308.752L616.391 309.162L616.321 309.562L615.691 310.782L614.261 312.352L613.481 313.602L611.801 315.272L611.511 315.802L611.461 316.392L611.551 316.822L613.171 319.872L613.281 320.282L613.251 321.002L612.841 321.852L612.731 322.282L612.711 323.032L612.821 323.612L614.061 326.082L614.321 326.392L614.671 326.632L615.251 326.752L616.781 326.842L618.281 327.352L621.211 327.462L622.251 327.882L623.261 328.112L624.011 328.572L625.881 330.362L626.301 330.902L626.351 331.272L625.501 333.012L625.491 333.572L627.701 337.852L628.031 339.072L626.521 338.242L625.301 338.022L624.431 338.282L623.181 339.222L622.291 339.162L621.381 339.422L619.841 339.442L619.061 340.322L618.081 343.172L617.101 343.612L615.451 344.782L614.591 345.802L613.451 346.812L610.171 347.472L609.401 347.922L607.691 350.022L606.151 351.342L604.581 353.882L602.371 357.122L601.261 358.382L599.841 359.242L598.221 359.702L597.241 360.072L594.571 362.052L592.001 363.132L590.301 363.692L589.561 364.142L588.581 364.082L587.671 364.522L584.011 367.762L583.601 368.362L583.381 369.682L582.711 370.842L581.601 370.962L580.351 370.902L577.681 370.192L577.141 370.172L576.211 370.472L575.671 370.502L574.861 369.942L573.321 368.582L572.821 368.462L572.211 368.482L571.351 368.352L569.261 367.412L567.761 364.582L567.371 364.182L566.901 364.242L566.541 364.452L565.861 366.222L565.691 366.972L566.181 367.592L566.311 368.132L565.401 368.932L565.171 371.002L567.241 374.522L568.081 374.942L570.321 375.522L572.051 376.502L572.791 376.982L573.281 377.562L573.121 378.242L570.831 378.432L569.651 378.302L566.791 376.912L565.681 376.632L564.821 376.722L563.921 377.202L562.961 376.822L560.651 377.592H559.011L558.081 377.752L556.981 378.692L555.691 379.062L555.051 378.722L554.941 377.402L554.591 377.032L554.061 376.812L552.951 376.852L551.761 377.262L551.081 377.212L550.401 377.012L549.741 376.182L549.401 375.282L548.801 374.982L545.221 375.052L543.941 374.662L543.161 374.542L542.801 374.782L541.901 376.802L541.541 378.552L541.281 380.582L541.131 381.152L540.691 381.712L540.291 381.962L539.461 382.262L539.471 380.082L539.091 379.432L538.521 379.492L536.681 380.062L534.041 381.442L533.611 381.502L532.871 381.242L530.201 380.682L529.411 380.742L527.861 381.182L525.521 382.352L524.661 382.482L523.871 382.462L522.451 381.932L518.921 379.552L516.711 377.472L512.641 374.962L511.961 374.742L511.391 374.802L510.701 375.182L510.331 375.862L510.171 377.322L510.191 377.862L509.891 378.572L509.421 378.842L508.641 378.652L506.331 377.652L504.051 377.432L501.651 377.752L500.331 377.442L499.941 377.112L499.481 374.572L498.891 373.772L498.151 373.222L497.751 373.072L496.411 374.522L495.911 374.622L494.941 374.602L494.121 374.382L492.681 373.062L492.001 373.092L491.521 373.622L491.331 374.122L491.431 374.832L492.191 376.422L492.331 377.002L491.031 380.092L490.451 380.652L489.651 381.172L488.141 381.622L487.031 381.712L482.141 381.532L479.861 381.312L478.861 381.372L477.751 381.602L475.841 382.612L474.621 382.992L473.481 383.122L472.011 383.632L470.851 384.482L468.931 386.742L468.681 386.782L467.911 383.762L467.731 382.742L467.351 381.882L467.241 381.432L467.221 377.382L467.081 376.452L466.381 375.082L464.971 373.532L464.461 372.632L463.631 371.542L463.251 370.312L462.831 369.282L462.761 367.762L462.921 366.602L463.251 365.872L463.621 364.622L464.271 363.402L465.081 362.352L465.261 361.892L465.331 360.882L465.251 357.102L464.801 355.892L464.541 354.312L463.971 353.052L463.421 352.172L463.101 351.912L462.811 351.822L460.731 351.722L460.471 351.572L460.261 351.182L460.241 342.792L460.101 341.982L459.721 341.082L459.611 340.082L459.651 339.042L459.911 338.132L458.271 337.402L457.151 336.582L456.401 336.192L455.951 335.672L455.811 335.042L455.841 334.402L455.961 333.932L456.381 333.062L456.481 332.432L456.471 331.942L456.271 331.352L455.651 330.822L450.981 328.532L450.281 328.342L449.541 328.412L448.801 328.742L447.661 329.042L445.501 330.032L443.541 330.182L442.011 330.682L432.461 330.662L432.391 328.572L432.561 327.632L433.011 327.132L434.881 326.262L435.301 325.902L435.561 325.372L435.751 323.962L436.151 322.912L436.241 321.882L436.221 317.362L436.131 316.692L435.681 315.662L435.601 314.682L435.731 314.052L436.111 313.172L436.341 311.752L436.711 310.862L436.811 310.402L436.881 304.612L437.031 304.052L437.661 302.442L438.541 301.882L438.931 301.732L440.491 301.652L441.571 301.742L442.751 302.202L444.391 302.462L445.141 302.802L446.281 303.092L447.171 303.482L448.671 303.702L449.671 304.092L450.101 304.062L450.371 303.932L450.961 303.452L455.771 298.732L456.271 298.132L456.731 297.262L457.621 296.172L462.161 296.222L463.041 296.292L463.521 296.442L465.371 297.352L466.051 297.482L475.971 297.572L476.651 297.702L477.721 298.112L481.211 298.232L481.711 298.342L482.621 298.722L484.031 298.852L485.461 298.832L486.141 298.712L489.901 296.942L492.311 297.022L493.231 297.202L494.381 297.762L495.171 298.292L497.091 298.322L498.561 298.862L499.791 298.942L500.821 298.752L506.371 296.052L507.771 295.682L509.051 295.062L510.271 294.122L511.121 293.742L511.491 293.662L512.021 293.902L512.701 294.552L513.201 295.192L513.681 296.102L514.751 297.282L515.571 298.032L516.131 298.312L517.101 298.422L525.501 298.472L526.471 298.382L526.861 298.182L527.231 297.782L527.561 297.162L528.171 296.352L528.301 295.982L528.271 295.742L527.611 294.002L529.501 294.202L530.531 294.622L530.991 294.722L533.431 294.862L534.331 295.252L535.481 295.542L536.231 295.882L537.381 296.152L538.331 296.662L538.621 296.922L539.171 297.822L540.871 301.212L541.971 302.372L543.311 303.572L544.281 303.502L545.121 303.542L545.601 303.652L546.501 304.042L547.141 304.152L547.961 304.172L548.601 304.072L549.191 303.682L549.851 302.602L550.871 301.222L551.401 300.692L552.161 300.832L553.221 301.152L554.011 301.602L554.281 301.842L554.371 302.082L554.321 302.452L553.381 304.742L553.411 305.112L553.721 305.382L554.301 305.462L558.921 305.452L559.521 305.572L560.551 305.992L562.531 306.152L563.301 306.622L565.551 308.802L566.601 309.402L567.851 310.292L568.641 310.442H571.671L572.651 310.542L578.751 313.512L579.561 313.612L580.551 313.572L582.071 313.052L584.191 312.982L584.951 312.822L587.491 311.622L588.401 311.082L588.661 310.802L589.211 309.902L589.801 308.652L590.041 307.042L590.461 306.032L590.701 304.572L591.071 303.792L591.051 303.422L590.751 303.152L590.181 303.072L588.721 303.102L587.971 303.312L587.501 303.792L586.661 305.542L586.111 306.262L585.091 307.172L584.671 307.362L584.201 307.442L582.071 307.432L581.131 307.292L578.601 306.052L577.471 305.222L576.481 304.662L576.141 304.232L576.021 303.792V301.562L575.931 300.782L574.651 298.142L574.281 297.652L573.701 297.132L571.861 296.182L571.691 295.972L571.591 295.582L571.681 295.022L572.041 294.522L572.631 294.022L573.561 293.562L574.301 292.982L575.661 291.632L576.361 290.572Z" fill="#C4C4C4"/>
<path d="M594.451 143.062L598.871 143.692L601.311 142.982L604.481 142.262L607.511 142.562L608.811 143.182L609.921 144.312L611.111 146.252L613.501 148.622L616.351 152.552L619.281 156.262L620.281 157.272L623.211 159.622L624.011 160.852L624.671 164.532L624.861 164.952L624.291 165.622L623.841 166.502L622.391 168.112L621.371 170.142L620.441 171.362L618.491 175.242L618.501 176.132L618.931 177.142L619.191 178.132L619.541 178.872L619.661 179.502L619.711 184.612L619.601 185.512L619.211 186.082L618.101 186.722L616.211 188.442L615.161 189.002L614.671 189.372L614.351 189.712L614.051 190.252L613.961 191.192L614.041 194.722L614.171 195.142L615.121 197.002L615.351 197.702L615.801 198.612L616.041 200.002L616.431 200.892L616.511 201.332V201.942L616.341 202.662L615.071 205.132L614.551 205.562L613.421 205.842L612.521 206.212L610.871 206.432L610.121 206.752L609.131 206.982L608.651 207.272L608.071 208.222L607.231 209.322L606.641 210.352L603.281 213.662L602.791 214.272L602.631 214.712L602.581 215.172L602.621 218.852L602.521 219.782L602.121 220.452L600.131 222.382L599.571 223.142L599.271 224.262L598.901 225.142L598.691 226.612L598.231 227.782L598.151 231.142L598.021 231.742L597.601 232.752L597.451 235.332L597.061 235.992L595.371 237.652L595.151 238.042L595.101 238.322L595.231 238.862L596.811 241.792L597.261 242.882L597.181 243.352L595.981 245.742L595.921 246.212L596.191 246.682L597.571 248.022L598.051 248.652L598.661 249.902L598.941 251.042L599.951 253.122L599.911 253.552L599.781 253.812L598.451 255.252L597.941 256.132L597.181 257.082L596.941 257.632L596.871 258.392L596.921 259.302L597.021 259.742L597.401 260.622L597.651 261.972L597.951 262.222L598.731 262.442L599.471 262.772L601.121 263.022L602.161 263.442L604.141 263.622L605.621 264.132L607.941 264.252L608.981 264.662L610.121 264.962L611.131 265.742L613.061 267.732L613.861 269.242L614.211 270.282L612.271 270.522L611.101 270.972L609.111 271.112L607.111 272.072L606.561 272.142L605.551 271.742L603.911 271.492L602.631 270.892L601.931 270.352L600.201 268.622L599.381 267.962L598.001 267.332L597.561 267.372L597.301 267.492L591.601 273.002L593.181 273.612L594.291 274.452L595.211 274.942L596.001 275.702L596.821 277.352L596.901 278.092V279.882L595.691 280.392L594.621 281.152L594.231 281.212L592.121 280.292L589.031 280.222L588.241 280.132L586.081 279.092L585.081 278.832L584.351 278.502L583.941 278.422L583.531 278.522L583.131 278.882L582.751 279.622L581.921 280.722L581.511 281.492L580.641 282.562L579.991 283.802L579.821 284.672L579.811 286.972L579.621 287.692L579.041 288.392L577.331 290.022L576.741 290.452L576.361 290.572L575.201 290.142L573.831 289.992L573.411 289.872L572.021 289.162L570.241 287.472L569.651 287.032L568.371 286.422L567.361 286.172L566.541 285.802L566.161 285.812L565.871 286.042L565.351 286.932L564.771 288.192L564.511 289.322L563.821 290.672L563.431 291.052L562.561 291.512L561.551 292.292L560.561 292.742L560.211 292.822L559.851 292.722L558.261 291.942L557.521 291.832L556.951 291.952L556.041 292.482L555.821 292.842L555.761 293.452L555.861 294.082L556.281 294.952L556.401 295.422L556.421 296.042L556.301 296.472L556.031 296.772L555.341 297.152L553.931 297.502L552.771 298.112L552.071 298.872L551.401 300.692L550.871 301.222L549.851 302.602L549.191 303.682L548.601 304.072L547.961 304.172L547.141 304.152L546.501 304.042L545.601 303.652L545.121 303.542L544.281 303.502L543.311 303.572L541.971 302.372L540.871 301.212L539.171 297.822L538.621 296.922L538.331 296.662L537.381 296.152L536.231 295.882L535.481 295.542L534.331 295.252L533.431 294.862L530.991 294.722L530.531 294.622L529.501 294.202L527.611 294.002L527.391 293.672L527.191 292.482L526.741 291.442L526.661 290.812L526.691 290.342L526.961 289.852L529.451 288.562L529.651 288.392L529.821 288.002L529.881 287.242L529.821 284.282L529.701 283.662L529.271 282.632L529.191 281.192L529.291 280.072L529.951 278.332L530.291 278.082L530.731 278.002L534.331 278.052L535.331 278.172L536.341 278.612L536.761 278.652L537.281 278.502L537.931 277.552L538.651 275.852L538.731 274.522L538.661 272.862L538.491 272.402L537.111 270.822L536.601 269.922L536.191 269.412L533.321 266.582L532.491 265.582L530.661 261.972L530.531 261.532L530.471 260.882L530.491 255.222L530.351 254.492L530.021 253.982L529.601 253.542L526.511 250.612L524.511 250.682L522.151 250.622L521.681 250.522L520.771 250.142L519.311 249.922L518.251 249.502L516.141 249.272L514.931 248.812L514.111 248.732L513.131 248.792L512.061 249.192L511.081 249.432L510.711 249.632L510.341 250.032L509.441 251.912L508.801 252.902L507.791 253.522L507.011 253.872L505.811 254.652L505.861 250.432L505.811 249.942L505.601 249.532L505.001 249.292L503.941 249.282L503.051 249.392L502.201 249.732L501.811 249.772L501.581 249.672L501.411 249.432L501.321 248.512L501.361 246.762L501.471 245.772L501.861 244.882L502.151 243.762L503.101 241.922L503.261 241.362L503.231 240.312L502.801 239.292L502.671 238.682L502.631 235.702L502.781 234.422L503.731 232.592L503.851 232.182L503.811 231.452L503.351 230.312L503.411 229.432L504.651 226.952L505.021 226.452L505.601 225.942L507.331 225.032L507.701 224.682L508.181 223.892L508.781 222.632L509.151 221.242L509.771 220.232L510.931 219.592L512.211 219.292L513.011 218.842L513.281 218.562L513.531 217.192L513.981 216.002L514.051 215.182L514.031 212.672L513.891 212.042L513.661 211.642L512.991 210.802L512.561 210.032L511.621 208.812L511.001 207.552L510.881 206.932L510.851 203.132L510.921 202.342L511.261 201.722L512.291 201.092L512.641 200.672L512.811 199.742L512.701 198.442L511.991 196.902L511.401 195.792L511.141 195.462L510.691 195.142L508.771 194.252L507.911 193.672L507.701 192.982L507.661 191.232L507.561 190.772L507.151 189.712L507.091 187.802L506.961 187.232L506.681 186.942L506.001 186.562L504.861 186.202L504.671 186.022L504.531 185.492L504.611 184.622L505.031 183.742L505.441 182.522L506.061 181.762L507.141 181.142L507.521 180.752L507.701 180.202L507.761 178.532L507.901 178.112L508.471 177.412L509.471 176.462L510.531 175.612L509.811 174.502L509.481 173.242L508.821 172.092L507.791 171.482L506.661 171.202L506.291 171.002L506.001 170.712L505.511 169.842L504.741 168.862L504.001 167.312L503.921 165.092L503.721 164.572L503.381 164.372L501.671 163.792L499.061 163.732L498.281 163.592L497.501 163.022L495.521 160.992L495.181 160.512L493.941 157.992L493.701 156.362L493.221 155.102L495.721 154.542L496.691 153.892L497.171 153.432L498.181 149.852L499.311 147.752L500.441 145.902L501.341 144.632L503.971 142.802L506.411 141.712L509.171 140.692L511.671 140.262L513.431 140.292L517.311 140.832L518.841 140.902L519.801 140.622L521.131 140.022L522.431 139.242L524.921 137.202L527.001 135.842L529.041 134.932L530.801 134.562L532.821 134.632L542.181 135.812L545.271 135.502L547.221 135.002L549.211 134.782L552.161 135.472L553.361 136.042L554.481 136.732L555.191 137.662L556.121 138.562L556.911 139.532L559.161 151.782L559.931 153.482L560.571 154.042L561.691 154.732L562.821 154.862L563.521 154.772L565.261 153.742L567.591 148.122L569.261 142.562L571.511 138.832L572.571 137.352L573.631 136.172L574.711 135.312L576.301 134.842L577.991 134.512L580.531 134.392L583.771 135.062L585.671 135.692L588.581 138.042L593.221 142.632L594.451 143.062Z" fill="#C4C4C4"/>
<path d="M395.161 112.441L395.511 112.461L397.021 112.061L398.231 111.551L400.581 111.421L403.631 111.661L407.931 112.231L410.781 113.471L411.731 114.391L412.791 115.131L414.111 115.511L417.201 115.721L418.191 115.871L419.321 116.211L421.221 117.291L423.631 119.261L424.391 120.001L424.831 120.881L425.291 122.541L425.801 123.281L426.741 124.021L427.691 124.951L429.141 126.831L429.721 127.091L430.381 127.241L432.151 126.751L433.281 126.981L434.341 127.391L435.581 128.391L436.631 129.871L438.301 131.101L444.401 133.581L446.371 134.811L447.341 136.071L447.881 137.171L448.051 138.271L447.891 139.881L443.541 148.561L442.181 149.751L441.401 150.261L440.631 150.541L440.071 151.411L439.551 152.031L439.291 152.541L439.211 153.131L439.351 154.411L442.881 159.681L443.931 160.781L444.621 160.831L445.211 160.761L447.481 159.871L448.211 159.771L448.981 159.891L450.671 162.101L451.581 162.401L452.461 162.121L453.431 161.181L454.271 160.971L455.001 161.231L456.411 162.711L457.141 162.831L458.421 162.841L460.261 163.611L460.381 164.561L460.761 165.451L461.021 166.441L461.411 167.311L461.491 167.751L461.411 168.481L460.991 169.491L460.811 170.831L460.441 171.721L460.141 172.841L459.701 173.351L457.671 174.351L456.421 175.271L453.231 176.791L452.211 177.401L451.541 178.541L451.361 180.031L451.241 180.451L450.791 181.261L450.531 181.551L449.471 182.121L447.821 182.331L446.931 182.711L445.921 182.951L444.701 183.411L441.231 183.491L440.721 183.591L439.801 183.961L439.101 184.051L431.671 184.061L431.231 184.151L430.321 184.521L428.701 184.771L427.951 185.101L426.951 185.341L425.891 185.751L424.261 185.971L423.341 186.471L423.011 186.901L422.821 188.121L422.451 189.021L422.351 189.491L422.361 191.551L420.761 191.401L419.571 190.941L417.951 190.681L412.281 187.831L411.661 187.671L410.511 187.731L409.451 188.161L407.831 188.411L407.071 188.741L405.931 189.031L405.031 189.421L404.221 189.511L402.921 189.401L401.701 188.931L399.751 188.741L398.711 188.311L397.711 188.061L396.961 187.711L396.151 187.571L390.121 187.561L389.481 187.671L388.441 188.081L387.041 188.241L385.091 188.111L383.271 188.121L382.701 188.371L382.571 188.581L382.481 189.021L381.461 189.981L377.231 192.111L376.881 192.521L376.021 194.291L375.381 195.101L373.811 196.551L372.911 197.021L371.781 197.881L370.391 198.551L368.601 198.811L367.391 199.561L366.481 199.311L365.391 199.291L364.801 199.401L363.771 199.821L361.791 199.971L361.261 200.261L360.071 201.351L359.831 201.461H359.551L359.091 201.181L357.991 200.151L356.841 199.481L355.341 198.161L352.811 196.881L352.091 196.711L349.271 196.721L348.851 196.671L348.491 196.491L348.341 196.271L348.131 195.501L347.751 194.621L347.581 191.871L347.201 190.981L346.911 189.851L346.361 189.101L341.051 183.881L340.021 183.291L338.751 182.381L337.331 181.941L337.271 181.781L337.101 181.681L335.591 181.401L335.321 181.231L334.661 180.551L334.111 179.571L333.921 179.391L331.691 178.491L331.271 178.461L330.781 178.621L330.581 178.981L330.161 180.211L329.851 181.801L329.631 182.051L329.371 182.161L328.301 182.321L327.071 182.771H326.081L325.461 182.601L325.231 182.441L323.961 181.281L323.441 180.981L321.941 180.771L320.771 180.281L319.561 180.251L319.141 180.421L318.831 180.701L317.761 182.801L317.131 183.331L315.991 183.861L314.841 184.131L314.091 184.461L312.951 184.751L312.061 185.131L310.871 185.221L309.601 185.061L309.721 183.641L309.691 180.711L309.501 180.111L308.601 178.881L308.431 177.941L308.511 176.161L308.951 175.121L309.071 174.661L309.081 173.191L308.801 172.441L307.521 170.921L306.701 169.471L306.421 167.701L305.171 165.181L304.231 163.951L303.201 161.901L302.341 160.801L301.931 160.011L301.071 158.911L300.671 158.131L299.151 156.391L298.411 154.861L298.321 153.921L298.311 149.901L298.461 148.821L298.801 148.301L299.261 147.871L300.411 147.251L301.671 146.351L300.581 145.301L299.951 144.181L298.631 142.681L298.081 141.661L297.271 140.851L293.961 139.201L292.721 138.241L291.461 137.601L290.181 137.261L289.281 136.871L287.641 136.631L285.911 135.611L283.351 133.231L282.461 132.761L281.331 131.881L279.051 130.721L278.361 129.981L277.661 128.751L276.611 127.801L277.351 126.591L280.021 121.171L280.351 120.721L280.691 120.481L281.331 120.351H285.791L286.271 120.251L287.171 119.881L288.951 119.761L289.541 119.571L289.941 119.211L291.231 117.211L291.491 115.591L291.851 114.681L292.001 113.601L292.221 113.071L292.461 112.921L293.061 112.821L295.581 112.881L296.391 113.021L301.081 115.351L302.061 115.451L306.551 115.491L307.141 115.611L308.181 116.031L310.161 116.211L311.581 116.861L314.711 118.481L315.451 118.661L319.661 118.701L320.421 118.851L321.301 119.241L322.191 119.261L324.991 117.901L326.731 116.401L327.511 115.991L328.471 115.241L329.031 115.071L329.561 115.201L332.561 116.741L333.701 117.031L334.601 117.411L336.241 117.661L337.511 118.271L338.241 118.841L340.221 120.841L340.621 121.131L341.061 121.281L341.801 121.251L342.681 120.881L343.171 120.771L345.401 120.661L346.961 120.151L353.121 120.131L353.791 120.041L355.011 119.561L355.961 119.541L356.471 119.801L357.011 120.711L357.121 121.141L357.241 122.501L357.771 123.581L358.201 123.891L358.891 123.901L359.771 123.511L360.771 123.261L361.191 123.061L362.171 122.191L362.741 121.411L362.881 120.351L362.831 114.331L362.881 113.861L363.081 113.461L363.301 113.321L365.841 112.461L366.481 111.471L366.851 110.071L367.401 108.921L367.771 108.421L368.471 107.821L369.491 107.271L371.311 105.551L372.541 104.861L373.621 103.861L374.301 104.371L375.241 104.851L375.691 105.241L377.131 105.651L383.921 107.251L390.851 110.521L391.911 111.631L393.521 112.371L395.161 112.441Z" fill="#C4C4C4"/>
<path d="M403.331 267.391L404.391 267.281L405.601 266.821L406.261 266.781L406.921 266.861L409.231 267.951L411.501 268.061L412.131 268.201L412.661 268.551L413.741 269.531L414.151 269.781L414.621 269.901L415.921 269.971L416.561 270.081L419.091 271.291L419.501 271.651L419.751 272.191L419.761 274.691L419.901 275.491L420.151 275.891L420.581 276.331L422.011 277.161L422.741 277.961L422.891 278.411L423.051 279.691L423.401 280.601L423.581 281.801L423.771 282.181L424.161 282.381L424.611 282.431L430.601 282.421L430.531 283.561L430.591 284.551L431.021 285.761L431.181 286.801L431.281 287.061L431.481 287.261L431.991 287.401L434.131 287.491L435.541 288.131L436.181 288.611L438.401 290.771L439.111 291.111L442.031 291.181L442.831 291.121L443.261 290.991L445.351 289.941L450.011 289.961L451.351 290.111L452.241 290.491L453.241 290.751L454.001 291.081L455.141 291.371L456.581 292.021L457.441 292.561L457.611 292.781L457.761 293.531L457.621 296.171L456.731 297.261L456.271 298.131L455.771 298.731L450.961 303.451L450.371 303.931L450.101 304.061L449.671 304.091L448.671 303.701L447.171 303.481L446.281 303.091L445.141 302.801L444.391 302.461L442.751 302.201L441.571 301.741L440.491 301.651L438.931 301.731L438.541 301.881L437.661 302.441L437.031 304.051L436.881 304.611L436.811 310.401L436.711 310.861L436.341 311.751L436.111 313.171L435.731 314.051L435.601 314.681L435.681 315.661L436.131 316.691L436.221 317.361L436.241 321.881L436.151 322.911L435.751 323.961L435.561 325.371L435.301 325.901L434.881 326.261L433.011 327.131L432.561 327.631L432.391 328.571L432.461 330.661L442.011 330.681L443.541 330.181L445.501 330.031L447.661 329.041L448.801 328.741L449.541 328.411L450.281 328.341L450.981 328.531L455.651 330.821L456.271 331.351L456.471 331.941L456.481 332.431L456.381 333.061L455.961 333.931L455.841 334.401L455.811 335.041L455.951 335.671L456.401 336.191L457.151 336.581L458.271 337.401L459.911 338.131L459.651 339.041L459.611 340.081L459.721 341.081L460.101 341.981L460.241 342.791L460.261 351.181L460.471 351.571L460.731 351.721L462.811 351.821L463.101 351.911L463.421 352.171L463.971 353.051L464.541 354.311L464.801 355.891L465.251 357.101L465.331 360.881L465.261 361.891L465.081 362.351L464.271 363.401L463.621 364.621L463.251 365.871L462.921 366.601L462.761 367.761L462.831 369.281L463.251 370.311L463.631 371.541L464.461 372.631L464.971 373.531L466.381 375.081L467.081 376.451L467.221 377.381L467.241 381.431L467.351 381.881L467.731 382.741L467.911 383.761L468.681 386.781L468.251 386.841L466.971 386.611L464.701 385.401L459.191 385.511L457.621 385.641L453.731 385.271L452.691 385.401L450.141 386.521L446.151 389.261L444.721 389.821L443.891 390.491L443.341 391.341L441.611 393.501L440.931 393.811L439.151 393.471L437.581 392.641L436.381 392.201L434.711 390.751L432.761 389.661L431.761 389.761L430.031 390.921L428.171 391.661L425.421 391.631L423.931 390.621L422.581 389.361L420.841 388.201L419.781 387.911L418.351 387.831L416.921 387.991L412.441 390.181L410.901 391.021L410.251 391.121L408.621 391.021L407.661 389.181L407.281 387.421L406.791 386.101L406.261 385.131L404.631 383.231L403.101 382.611L400.851 381.851L400.031 381.341L398.361 380.081L397.251 379.721L396.151 379.641L394.971 379.811L390.531 381.111L385.411 382.881L382.301 383.541L379.761 383.751L380.591 382.001L380.381 381.141L376.411 372.581L375.701 371.861L374.911 371.611L373.801 371.461L372.911 371.781L371.121 372.881L368.541 372.231L367.651 371.551L368.151 371.011L369.621 370.161L370.841 369.631L371.841 369.341L373.671 368.271L375.211 366.701L376.221 366.031L376.291 365.561L376.761 365.201L376.981 364.781L376.911 364.311L376.511 363.811L375.621 363.341L374.831 363.051L373.691 362.871L372.691 362.931L371.901 362.721L371.331 361.931L368.321 361.561L367.721 360.591L365.541 356.541L365.011 355.821L360.851 353.591L358.601 353.441L357.341 352.621L355.951 352.111L354.981 350.681L354.161 349.131L352.261 347.591L351.801 346.761L351.831 345.831L351.151 344.501L350.291 343.861L349.901 343.431V341.451L349.441 340.631L346.531 339.581L344.921 337.321L341.761 336.031L341.511 335.421L341.611 334.271L341.471 333.151L340.681 332.441L338.381 332.581L337.231 333.161L336.661 335.531L336.051 336.891L335.551 337.291L334.971 337.321L334.291 336.791L333.641 336.071L333.031 335.641L332.101 335.421L330.551 334.171L330.591 333.271L330.271 332.521L328.751 331.081L328.651 330.431L329.151 329.071L329.971 328.491L330.841 328.201L331.881 327.381L331.591 323.961L331.841 323.531L333.241 322.811L333.991 321.911L333.701 320.001L332.881 319.211L328.631 319.111L328.141 319.711L327.881 320.221L327.481 320.731L327.051 320.621L326.191 320.011L325.041 319.761L322.341 318.221L321.551 318.191L320.141 317.761L318.601 317.621L315.011 317.731L310.941 318.931L310.331 319.011L309.141 319.411L308.351 319.771L306.671 319.531L306.091 319.851L305.451 321.031L304.551 321.631L303.731 318.941L303.251 317.631L302.901 316.911L302.711 315.461L302.471 314.901L302.091 314.431L299.871 312.221L298.631 309.831L297.781 309.081L295.861 308.171L295.441 307.821L294.971 306.971L293.461 305.241L292.081 302.471L291.901 301.641L291.491 300.791L291.351 300.211L291.401 298.711L291.731 298.031L293.431 296.351L293.821 295.711L293.931 294.901L293.911 291.481L293.881 290.831L293.761 290.381L292.131 287.171L291.851 286.011L294.161 285.911L294.471 285.861L295.211 285.521L295.861 285.381H298.081L298.581 285.441L299.041 285.621L300.491 286.901L301.201 287.211H301.931L302.991 286.801L304.221 286.611L304.571 286.391L305.111 285.521L305.241 285.081L305.421 283.641L306.011 282.381L306.501 281.741L307.311 280.971L307.881 280.621L308.491 280.491L311.681 280.521L313.711 282.601L314.421 283.811L315.061 284.281L316.351 284.261L317.101 284.351L319.401 285.411L320.411 285.551L321.621 285.571L322.941 285.411L323.361 285.161L324.921 283.671L325.571 283.181L329.321 281.391L330.021 281.241H332.241L332.911 281.341L334.931 282.321L335.551 282.481L336.391 282.541L339.511 282.511L340.341 282.591L340.781 282.721L343.791 284.241L344.061 284.331L345.071 284.431L346.491 284.371L347.811 283.061L348.211 282.791L348.671 282.641L350.451 282.511L351.521 282.121L352.151 282.011L355.361 281.961L357.061 281.431L361.041 281.381L362.591 280.881L364.081 280.751L364.771 280.601L366.061 281.331L367.551 282.021L369.131 281.341L376.191 277.911L377.331 277.651L378.221 277.261L379.231 277.041L379.981 276.701L381.131 276.431L381.881 276.091L383.031 275.821L383.781 275.481L385.271 275.291L385.691 275.171L388.231 273.941L389.841 272.541L391.241 271.841L391.661 271.721L393.011 271.571L394.041 271.171L395.681 270.931L396.321 270.501L398.061 268.871L399.461 268.161L399.881 268.041L401.231 267.891L402.261 267.481L403.331 267.391Z" fill="#C4C4C4"/>
<path d="M493.221 155.102L493.701 156.362L493.941 157.992L495.181 160.512L495.521 160.992L497.501 163.022L498.281 163.592L499.061 163.732L501.671 163.792L503.381 164.372L503.721 164.572L503.921 165.092L504.001 167.312L504.741 168.862L505.511 169.842L506.001 170.712L506.291 171.002L506.661 171.202L507.791 171.482L508.821 172.092L509.481 173.242L509.811 174.502L510.531 175.612L509.471 176.462L508.471 177.412L507.901 178.112L507.761 178.532L507.701 180.202L507.521 180.752L507.141 181.142L506.061 181.762L505.441 182.522L505.031 183.742L504.611 184.622L504.531 185.492L504.671 186.022L504.861 186.202L506.001 186.562L506.681 186.942L506.961 187.232L507.091 187.802L507.151 189.712L507.561 190.772L507.661 191.232L507.701 192.982L507.911 193.672L508.771 194.252L510.691 195.142L511.141 195.462L511.401 195.792L511.991 196.902L512.701 198.442L512.811 199.742L512.641 200.672L512.291 201.092L511.261 201.722L510.921 202.342L510.851 203.132L510.881 206.932L511.001 207.552L511.621 208.812L512.561 210.032L512.991 210.802L513.661 211.642L513.891 212.042L514.031 212.672L514.051 215.182L513.981 216.002L513.531 217.192L513.281 218.562L513.011 218.842L512.211 219.292L510.931 219.592L509.771 220.232L509.151 221.242L508.781 222.632L508.181 223.892L507.701 224.682L507.331 225.032L505.601 225.942L505.021 226.452L504.651 226.952L503.411 229.432L503.351 230.312L503.811 231.452L503.851 232.182L503.731 232.592L502.781 234.422L502.631 235.702L502.671 238.682L502.801 239.292L503.231 240.312L503.261 241.362L503.101 241.922L502.151 243.762L501.861 244.882L501.471 245.772L501.361 246.762L501.321 248.512L501.411 249.432L501.581 249.672L501.811 249.772L502.201 249.732L503.051 249.392L503.941 249.282L505.001 249.292L505.601 249.532L505.811 249.942L505.861 250.432L505.811 254.652L507.011 253.872L507.791 253.522L508.801 252.902L509.441 251.912L510.341 250.032L510.711 249.632L511.081 249.432L512.061 249.192L513.131 248.792L514.111 248.732L514.931 248.812L516.141 249.272L518.251 249.502L519.311 249.922L520.771 250.142L521.681 250.522L522.151 250.622L524.511 250.682L526.511 250.612L529.601 253.542L530.021 253.982L530.351 254.492L530.491 255.222L530.471 260.882L530.531 261.532L530.661 261.972L532.491 265.582L533.321 266.582L536.191 269.412L536.601 269.922L537.111 270.822L538.491 272.402L538.661 272.862L538.731 274.522L538.651 275.852L537.931 277.552L537.281 278.502L536.761 278.652L536.341 278.612L535.331 278.172L534.331 278.052L530.731 278.002L530.291 278.082L529.951 278.332L529.291 280.072L529.191 281.192L529.271 282.632L529.701 283.662L529.821 284.282L529.881 287.242L529.821 288.002L529.651 288.392L529.451 288.562L526.961 289.852L526.691 290.342L526.661 290.812L526.741 291.442L527.191 292.482L527.391 293.672L527.611 294.002L528.271 295.742L528.301 295.982L528.171 296.352L527.561 297.162L527.231 297.782L526.861 298.182L526.471 298.382L525.501 298.472L517.101 298.422L516.131 298.312L515.571 298.032L514.751 297.282L513.681 296.102L513.201 295.192L512.701 294.552L512.021 293.902L511.491 293.662L511.121 293.742L510.271 294.122L509.051 295.062L507.771 295.682L506.371 296.052L500.821 298.752L499.791 298.942L498.561 298.862L497.091 298.322L495.171 298.292L494.381 297.762L493.231 297.202L492.311 297.022L489.901 296.942L486.141 298.712L485.461 298.832L484.031 298.852L482.621 298.722L481.711 298.342L481.211 298.232L477.721 298.112L476.651 297.702L475.971 297.572L466.051 297.482L465.371 297.352L463.521 296.442L463.041 296.292L462.161 296.222L457.621 296.172L457.761 293.532L457.611 292.782L457.441 292.562L456.581 292.022L455.141 291.372L454.001 291.082L453.241 290.752L452.241 290.492L451.351 290.112L450.011 289.962L445.351 289.942L443.261 290.992L442.831 291.122L442.031 291.182L439.111 291.112L438.401 290.772L436.181 288.612L435.541 288.132L434.131 287.492L431.991 287.402L431.481 287.262L431.281 287.062L431.181 286.802L431.021 285.762L430.591 284.552L430.531 283.562L430.601 282.422L424.611 282.432L424.161 282.382L423.771 282.182L423.581 281.802L423.401 280.602L423.051 279.692L422.891 278.412L422.741 277.962L422.011 277.162L420.581 276.332L420.151 275.892L419.901 275.492L419.761 274.692L419.751 272.192L419.501 271.652L419.091 271.292L416.561 270.082L415.921 269.972L414.621 269.902L414.151 269.782L413.741 269.532L412.661 268.552L412.131 268.202L411.501 268.062L409.231 267.952L406.921 266.862L406.261 266.782L405.601 266.822L404.391 267.282L403.331 267.392L403.221 266.342L402.751 265.162L402.681 264.032L402.811 263.082L403.441 261.842L404.051 261.082L405.261 259.922L405.781 259.532L406.711 259.032L408.691 257.262L409.821 256.602L410.221 256.032L410.321 255.072L410.301 246.522L410.431 245.732L410.811 244.852L410.921 243.812L411.611 243.312L415.941 241.252L416.811 240.522L417.541 239.302L418.961 237.712L419.601 236.462L419.931 235.212L420.321 234.332L420.551 232.712L420.901 231.982L421.171 230.842L421.781 229.602L422.371 229.032L424.781 227.862L424.911 226.172L425.331 225.152L425.461 224.552L425.481 221.192L425.391 220.422L424.991 219.532L424.691 218.412L424.331 217.682L424.251 216.952L424.331 216.522L424.731 215.652L424.971 214.652L425.661 213.302L426.171 212.842L427.961 212.012L428.611 211.542L429.611 210.482L430.101 209.552L430.501 209.052L431.191 208.352L431.711 207.972L432.481 207.782L435.201 207.812L436.021 207.712L436.451 207.512L437.551 206.692L438.821 206.082L440.441 205.842L441.491 205.432L442.751 205.192L442.411 204.152L442.001 203.272L441.921 202.672L441.961 201.922L442.101 201.512L443.051 199.662L443.331 198.532L443.691 197.792L443.981 196.662L444.331 195.932L444.431 195.352L444.341 194.762L443.741 193.502L443.121 192.472L442.831 192.212L442.011 191.752L441.421 191.592L439.931 191.542L438.961 191.642L437.411 192.372L435.551 193.932L433.161 195.122L432.441 195.252L431.851 195.152L430.821 194.722L427.891 194.592L427.431 194.492L426.541 194.112L424.911 193.852L424.141 193.312L422.361 191.552L422.351 189.492L422.451 189.022L422.821 188.122L423.011 186.902L423.341 186.472L424.261 185.972L425.891 185.752L426.951 185.342L427.951 185.102L428.701 184.772L430.321 184.522L431.231 184.152L431.671 184.062L439.101 184.052L439.801 183.962L440.721 183.592L441.231 183.492L444.701 183.412L445.921 182.952L446.931 182.712L447.821 182.332L449.471 182.122L450.531 181.552L450.791 181.262L451.241 180.452L451.361 180.032L451.541 178.542L452.211 177.402L453.231 176.792L456.421 175.272L457.671 174.352L459.701 173.352L460.141 172.842L460.441 171.722L460.811 170.832L460.991 169.492L461.411 168.482L461.491 167.752L461.411 167.312L461.021 166.442L460.761 165.452L460.381 164.562L460.261 163.612L462.931 164.432L464.921 165.452L465.841 165.462L467.641 164.932L468.781 163.892L469.861 162.622L472.971 159.522L474.121 158.512L475.151 158.012L478.141 158.382L481.301 157.402L483.331 156.582L484.431 156.422L485.201 156.462L486.941 157.152L488.631 156.992L489.771 156.612L491.061 155.752L491.761 155.432L493.221 155.102Z" fill="#C4C4C4"/>
<path d="M191.701 221.172L192.221 221.352L192.321 221.572L192.651 221.752V221.532H193.171L193.531 221.882V222.102L193.501 222.282L193.731 222.722V222.812L193.531 222.942L193.071 224.042L192.451 224.612L192.091 224.572L192.061 224.482V223.422L191.931 222.892V222.492L191.801 222.182L191.641 221.872L191.541 221.522V221.262L191.701 221.172V221.172ZM288.511 58.1119L288.201 58.642L288.061 59.312L288.251 60.012L288.621 60.412L289.171 60.632L290.131 60.812L291.161 60.882L293.531 61.872L295.931 62.632L297.931 63.652L299.781 64.862L301.701 65.702L303.111 66.512L304.371 67.652L305.481 68.242L307.291 68.682L308.771 69.3019L310.031 70.402L313.611 72.1219L315.601 72.632L315.971 72.3719L316.121 71.702L315.971 70.852L314.521 67.642L314.741 66.862L315.261 66.672L316.921 66.962L317.841 66.992L319.321 66.392L320.461 66.282L325.331 64.832L327.071 64.792L328.401 65.0519L329.141 65.602L329.921 66.012L330.591 66.642L331.621 66.792L334.241 66.1619L336.861 67.082L340.371 67.3019L340.701 67.962L340.811 69.292L341.141 70.212L341.621 70.6919L342.431 71.132L343.981 71.762L344.861 72.422L344.971 73.202L344.601 74.932L344.191 76.112H345.631L346.961 76.262L349.321 76.5919L351.311 77.002L353.231 77.852L355.071 79.032L356.801 79.702L357.571 80.112L357.681 80.702L357.091 81.882L356.501 82.7319L355.871 83.9119L355.941 85.492L356.161 86.672L357.261 88.512L358.031 89.582L360.091 91.532L366.371 95.852L372.831 101.722L373.971 102.902L374.921 104.562L375.241 104.842L374.301 104.362L373.611 103.852L372.531 104.842L371.291 105.542L369.471 107.262L368.451 107.812L367.751 108.412L367.381 108.912L366.831 110.062L366.461 111.462L365.821 112.452L363.271 113.312L363.051 113.462L362.851 113.862L362.801 114.332L362.861 120.352L362.711 121.412L362.141 122.192L361.161 123.052L360.741 123.262L359.741 123.512L358.871 123.902H358.171L357.751 123.582L357.221 122.502L357.101 121.142L356.981 120.722L356.441 119.812L355.931 119.552L354.981 119.572L353.761 120.052L353.081 120.152L346.931 120.162L345.371 120.672L343.141 120.782L342.661 120.892L341.781 121.272L341.041 121.302L340.601 121.152L340.201 120.862L338.221 118.862L337.491 118.292L336.221 117.682L334.581 117.442L333.681 117.052L332.531 116.762L329.541 115.222L329.001 115.092L328.441 115.262L327.481 116.012L326.701 116.432L324.951 117.922L322.161 119.282L321.271 119.272L320.391 118.872L319.631 118.732L315.421 118.682L314.681 118.502L311.561 116.882L310.141 116.232L308.161 116.052L307.131 115.632L306.541 115.512L302.041 115.472L301.061 115.372L296.381 113.042L295.571 112.902L293.041 112.852L292.451 112.942L292.201 113.092L291.981 113.622L291.831 114.702L291.481 115.622L291.221 117.242L289.931 119.242L289.521 119.612L288.931 119.792L287.151 119.912L286.251 120.282L285.771 120.382H281.311L280.671 120.522L280.321 120.762L279.991 121.212L277.321 126.632L276.581 127.842L277.631 128.802L278.321 130.032L279.011 130.762L281.291 131.922L282.411 132.802L283.301 133.262L285.871 135.652L287.601 136.672L289.241 136.912L290.131 137.302L291.411 137.632L292.671 138.272L293.911 139.232L297.221 140.882L298.031 141.702L298.581 142.722L299.901 144.222L300.541 145.342L301.631 146.392L300.371 147.292L299.221 147.912L298.761 148.342L298.411 148.862L298.271 149.942L298.281 153.962L298.371 154.892L299.111 156.432L300.621 158.162L301.021 158.942L301.871 160.042L302.281 160.822L303.141 161.922L304.171 163.972L305.111 165.202L306.351 167.722L306.641 169.492L307.451 170.952L305.741 170.782L304.311 170.852L303.751 171.092L302.771 171.822L301.991 172.032L297.391 171.982L296.431 172.132L296.091 172.372L295.831 172.692L294.991 174.462L294.631 174.962L294.051 175.482L292.871 176.122L292.141 176.922L291.951 177.532L291.961 180.542L291.811 181.332L291.571 181.672L291.251 181.922L289.351 182.802L288.971 183.192L288.811 183.602L288.751 184.372L288.801 191.062L288.741 191.672L288.581 192.102L288.201 192.592L286.631 194.172L285.961 195.322L285.221 196.142L283.031 198.272L282.541 198.652L281.501 199.212L280.201 200.512L277.281 206.272L276.341 207.492L275.311 209.512L274.251 210.852L273.221 212.432L272.151 214.452L272.361 215.202L272.441 216.222L272.431 217.212L272.271 217.782L271.931 218.052L270.561 218.252L269.071 218.732L268.731 219.022L268.641 219.622L269.111 220.802L269.231 221.662L269.241 232.882L269.131 234.092L268.681 235.322L268.581 236.862L268.451 237.352L268.271 237.632L267.901 237.952L267.261 238.302L266.311 238.992L265.841 239.192L265.001 239.182L264.101 238.802L263.611 238.692L262.921 238.682L262.021 238.832L261.671 237.882L261.371 237.462L260.321 236.882L259.321 236.642L258.421 236.222L257.311 236.092L252.041 236.022L251.571 235.932L250.811 235.582L249.181 235.352L248.261 234.752L245.371 231.852L244.551 231.202L243.481 230.922L242.591 230.542L240.961 230.282L240.041 229.902L238.361 229.652L236.911 228.862L234.491 229.272L233.731 229.602L233.061 229.722L227.391 229.712L226.731 229.912L224.891 230.772L223.121 231.082L222.201 231.432L220.001 231.682L218.591 232.092L218.001 232.162L209.971 232.092L209.341 232.192L208.441 232.542L207.091 232.732L206.671 232.862L206.091 233.222L205.891 232.732L205.531 232.472L204.871 232.162L204.411 231.982L204.251 231.892L203.431 231.762L203.331 231.802L202.941 231.842L202.381 231.972H201.821H201.561L200.871 232.062L200.571 232.022L200.081 231.842L199.951 231.662L199.751 231.622L199.651 231.752L199.321 231.842H198.861L198.701 231.972L198.771 232.542L199.031 232.672L199.521 233.462H199.721L199.751 233.902L199.591 234.122L199.791 234.872L199.951 235.662L200.081 236.542L200.411 237.332L200.701 237.862L200.831 238.122L200.861 238.522L200.661 238.962L200.431 239.182L200.301 239.312L200.171 239.402L199.781 239.532H199.551L199.421 239.442L199.161 239.092L199.091 238.872L197.941 237.292L197.351 236.762L197.091 236.062L196.661 235.622L195.941 234.562L195.741 234.252L195.251 233.592L194.891 233.282L194.661 232.842L194.501 231.122L194.271 230.682L194.141 230.592L193.451 230.462L193.611 230.282L193.741 230.022L193.921 229.892L194.171 229.852L194.141 229.632L193.711 229.722L193.781 229.502L194.011 229.282L194.371 229.242L194.471 229.112L194.401 228.852L193.971 228.722L194.041 227.932L193.751 227.182L193.421 226.612L192.731 225.642L192.801 225.202L193.131 224.412L193.651 223.792L193.781 223.392L194.111 222.952L194.341 222.822L194.471 222.912H194.671L194.771 222.822L195.131 222.862L195.161 222.732L194.211 222.422L193.621 221.672L193.001 221.362L192.481 221.322L192.281 221.062L192.121 220.882L191.691 220.622L191.491 220.492V220.182L191.751 220.092L192.181 219.472L192.641 218.102L192.801 215.582L192.341 212.272L192.171 211.522L191.521 209.582L191.061 207.592L190.631 205.962L189.941 203.842L189.281 201.982L188.891 200.482L188.301 198.842L188.171 198.222L187.971 197.602L187.611 197.072L187.121 195.882L186.831 194.862L186.271 194.642L185.381 193.762L184.461 193.322L183.871 192.832L183.351 192.562L182.991 192.382L183.121 191.762V191.272L183.321 190.782L183.481 190.252L183.871 190.212L184.231 190.122H185.081L185.441 190.032L185.801 189.902L185.731 189.552L185.531 189.592L185.301 189.632L185.071 189.852L184.841 189.942L184.091 189.852H183.891L183.301 190.162L183.041 190.912L182.881 191.132L182.781 191.572L182.851 192.102H182.721L182.651 192.012L182.491 191.572L182.461 191.172L182.031 189.662L184.481 188.332L187.551 186.902L190.451 185.432L191.201 184.572L191.531 183.902L191.861 183.452L194.111 181.152L194.911 179.852L195.411 179.312L195.861 178.992L197.281 178.362L198.171 178.172L199.041 177.822L200.911 177.532L208.421 173.872L209.461 173.072L210.481 172.522L212.231 171.052L213.221 170.512L214.241 169.742L215.141 169.262L216.881 167.542L217.731 166.172L220.171 163.672L220.731 162.652L222.291 160.842L223.181 159.022L224.291 157.652L226.291 156.982L227.411 156.392L228.011 155.722L228.271 154.712L228.641 153.812L228.901 152.182L229.281 151.222L229.361 150.652L229.381 148.112L229.281 147.392L228.981 146.762L228.321 145.912L227.801 144.972L225.441 142.542L225.041 141.872L224.781 140.842L224.391 139.952L224.291 138.792L224.261 131.872L224.171 131.392L223.821 130.662L223.731 130.172L223.611 127.292L223.041 125.692V125.042L221.601 123.602L221.431 123.122L221.601 122.672L222.251 121.832L222.661 121.072L223.371 120.332L225.001 119.522L226.041 119.132L226.701 118.232L227.381 116.762L227.451 116.092L227.281 115.582L226.411 114.682L226.241 114.102L226.161 112.312L226.011 111.852L225.611 111.372L225.021 111.082L224.611 110.662L224.331 109.982V106.202L224.471 105.562L224.871 104.652L224.961 104.022L224.801 103.282L224.341 103.012L222.481 102.972L222.061 102.872L221.841 102.702L221.251 101.672L221.071 100.362L220.681 99.3019L220.621 98.752L220.831 98.322L221.181 98.002L223.641 96.862L224.191 96.7319L226.001 96.5919L227.051 96.202L228.811 95.882L232.101 94.3019L234.061 94.132L235.601 93.632L237.821 93.582L238.671 93.4819L239.621 93.142L240.821 92.972L241.231 92.792L241.471 92.512L241.941 91.572L242.081 90.3719L242.251 89.762L242.791 88.632L243.121 88.152L243.641 87.672L244.771 87.032L245.711 86.2319L247.371 84.5219L247.621 84.132L249.531 80.202L249.731 79.312L250.731 77.242L251.001 75.5519L251.471 74.402L251.381 73.4419L250.271 71.182L250.281 67.1619L250.411 66.542L251.431 64.382L251.691 63.382L252.661 61.382L252.961 60.212L253.301 59.452L253.351 59.272L256.391 59.742L257.131 59.592L260.141 57.682L261.101 57.672L262.321 57.922L263.431 58.322L264.361 59.012L266.151 60.882L267.261 61.062L269.031 61.162L270.021 60.672L271.671 58.922L272.521 58.252L273.301 58.242L275.191 58.522L275.851 58.332L276.221 57.852L276.551 56.852L276.921 56.222L277.361 55.922L278.211 55.692L281.501 55.372L282.831 54.992L285.301 53.792L286.521 53.752L287.221 54.042L288.851 55.142L289.851 56.022L290.041 56.802L289.301 57.282L288.671 57.842L288.511 58.1119V58.1119Z" fill="#C4C4C4"/>
<path d="M551.401 300.692L552.071 298.872L552.771 298.112L553.931 297.502L555.341 297.152L556.031 296.772L556.301 296.472L556.421 296.042L556.401 295.422L556.281 294.952L555.861 294.082L555.761 293.452L555.821 292.842L556.041 292.482L556.951 291.952L557.521 291.832L558.261 291.942L559.851 292.722L560.211 292.822L560.561 292.742L561.551 292.292L562.561 291.512L563.431 291.052L563.821 290.672L564.511 289.322L564.771 288.192L565.351 286.932L565.871 286.042L566.161 285.812L566.541 285.802L567.361 286.172L568.371 286.422L569.651 287.032L570.241 287.472L572.021 289.162L573.411 289.872L573.831 289.992L575.201 290.142L576.361 290.572L575.661 291.632L574.301 292.982L573.561 293.562L572.631 294.022L572.041 294.522L571.681 295.022L571.591 295.582L571.691 295.972L571.861 296.182L573.701 297.132L574.281 297.652L574.651 298.142L575.931 300.782L576.021 301.562V303.792L576.141 304.232L576.481 304.662L577.471 305.222L578.601 306.052L581.131 307.292L582.071 307.432L584.201 307.442L584.671 307.362L585.091 307.172L586.111 306.262L586.661 305.542L587.501 303.792L587.971 303.312L588.721 303.102L590.181 303.072L590.751 303.152L591.051 303.422L591.071 303.792L590.701 304.572L590.461 306.032L590.041 307.042L589.801 308.652L589.211 309.902L588.661 310.802L588.401 311.082L587.491 311.622L584.951 312.822L584.191 312.982L582.071 313.052L580.551 313.572L579.561 313.612L578.751 313.512L572.651 310.542L571.671 310.442H568.641L567.851 310.292L566.601 309.402L565.551 308.802L563.301 306.622L562.531 306.152L560.551 305.992L559.521 305.572L558.921 305.452L554.301 305.462L553.721 305.382L553.411 305.112L553.381 304.742L554.321 302.452L554.371 302.082L554.281 301.842L554.011 301.602L553.221 301.152L552.161 300.832L551.401 300.692Z" fill="#C4C4C4"/>
</g>
<defs>
<clipPath id="clip0">
<rect width="792.507" height="401.404" fill="white"/>
</clipPath>
</defs>
</svg>
