<svg width="586" height="793" viewBox="0 0 586 793" fill="none" xmlns="http://www.w3.org/2000/svg">
<g clip-path="url(#clip0)">
<path d="M181.255 750.71L181.835 752.8L180.405 752.22L178.375 752.94L179.385 751.89L178.755 750.51L181.255 750.71V750.71ZM206.665 571.21L212.475 571.55L215.315 570.87L216.025 569.62L216.605 569.65L218.195 567.6L217.305 565.74L219.445 563.63L221.965 564.72L223.475 563.4L224.615 564.76L225.975 564.57L226.845 563.24L225.595 561.9L226.955 560.16L226.815 558.07L224.745 556.17L224.435 558.82L222.905 558.78L222.005 557.35L223.875 556.36L218.915 555.41L220.645 554.87L220.165 552.48L222.465 552.41L223.755 551.43L225.035 552.33L227.155 550.38L229.235 552.37L230.625 550.64L232.085 550.46L232.735 552.8L234.845 552.62L235.895 554.81L235.565 551.82L236.255 551.03L237.245 551.45L241.485 550.17L241.235 551.96L241.105 553.54L241.305 555.46L240.065 556.01L241.035 556.85L239.955 558.74L241.755 560.43L242.285 560.25L243.205 559.82L243.315 557.55L245.385 556.48L246.465 560.35H247.055L248.115 558.18L251.035 556.13L250.745 557.09L253.175 558.91L252.975 563.87L254.555 564.8L255.645 567.95L253.735 569.55L254.115 571.24L251.765 573.41L254.805 574.39L255.155 572.23L257.325 570.27L258.385 570.79L257.295 572.74L258.685 572.69L258.725 573.56H258.985L258.275 579.46L259.145 580.33L264.955 580.24L265.665 578.44L267.635 577.11L266.275 575.9L267.915 574.23L269.595 575.4L269.195 577.62L271.595 577.87L270.215 579.67L271.595 582.36L270.515 582.46L269.835 583.92L272.355 584.9L274.145 588.99L270.665 590.63L271.695 593.42L270.635 593.28L270.395 594.26L270.845 595.51L272.895 596.11L272.255 598.3L273.845 600.28L272.395 601.99L271.755 600.72L270.845 602.39L272.345 602.96L271.445 603.46L272.745 606.98L271.885 606.96L271.765 608.11L273.745 608.76L274.565 610.19L275.285 609.75L276.525 612.44L277.785 611.62L279.635 613.03L280.105 614.91L278.165 615.95L277.185 617.68L278.375 618.78L279.805 618.59L278.795 620.13L280.545 621.39L279.805 623.58L282.555 623.35L284.335 624.94L286.035 624.78L286.535 627.07L288.125 627.43V628.63L289.015 628.46L289.695 629.56L290.175 629.04L289.635 630.72L290.475 630.52L291.265 632.61L292.615 633.43L291.785 633.9L292.995 635.53L290.825 636.62L292.785 638.25L292.775 641.15L291.135 642.64L292.495 643.86L292.525 645.73L290.725 646.93L291.495 649.13L290.195 649.61L291.175 651.02L290.425 651.94L292.365 653.72L293.455 653.04L292.885 653.7L294.635 655.68L293.905 656.19L295.405 657.67L293.495 659.3L290.055 660.18L291.045 659.07L290.805 657.4L291.795 657.12L289.885 656.68L288.615 659.68L286.865 660.94L285.225 657.49L283.235 657.86L280.995 656.18L281.275 657.81L280.205 658.36L280.105 659.81L284.405 665.23L282.845 665.73L282.555 667.07L283.815 669.48L283.065 671.54L283.655 673.45L278.815 674.55L278.325 675.03L279.245 675.11L279.215 676.44L275.545 677.99L274.725 679.68L272.285 679.93L270.625 677.8L267.875 680L266.225 679.57L265.635 681.63L266.515 682.43L261.985 687.3L262.275 688.69L263.785 688.74L263.725 690.27L268.005 696.53L267.945 701.11L270.765 710.87L272.535 712.7L273.075 716.33V717.79L272.805 718.31L272.885 718.94L271.225 725.73L269.475 726.46V728.21L270.945 729.66L270.865 731.82L269.995 734.27L270.615 734.74L268.815 736L269.125 737.01L270.545 736.28L269.655 738.32L270.635 737.3L270.365 738.28L272.615 741.37L271.485 741.14L271.115 742.25L269.645 741.89L267.885 743.49L271.355 746.06L271.245 749.92L272.745 751.6L272.175 753.88L270.975 754.97L269.645 754.29L268.725 757.49L267.945 754.07L265.815 754.15L265.565 753.06L263.805 753.62L261.575 756.35L254.425 753.86L253.085 754.81L253.035 755.23L252.075 756.6L250.505 756.81L250.695 757.97L248.065 760.1L245.035 761.08L242.015 760.15L240.785 760.97L239.065 763L238.315 766.14L229.745 764.57L211.975 755.83L205.825 753.7L201.335 753.12L193.435 756.67L190.645 753.52L190.685 752.17L192.105 752.36L192.005 751.44L188.615 750.51L187.985 748.2L185.535 750.03L185.495 751.12L188.035 752.35L186.935 754.2L182.765 752.41L183.355 750.28L181.855 749.15L182.445 747.6L183.655 747.25L182.515 745.69L180.655 746.51L180.015 743.81L178.125 742.36L177.495 743.49L177.995 744.9L176.515 746.26L175.785 742.48L173.145 742.4L172.555 741.61L172.215 742.96L173.135 744.12L171.595 743.83L169.565 745.15L167.255 745.23L165.045 748.05L165.355 749.71L162.305 751.97L163.245 753.38L162.275 754.32L164.785 756.17L166.215 755.92L166.725 757.61L166.575 756.61L167.885 757.38L169.965 757.09L169.945 755.62L170.845 755.9L171.095 754.96L173.335 755.4L174.945 754.44L176.425 756.79L175.635 757.73L175.205 756.36L174.385 757.23L174.945 760.02L173.085 761.76L172.155 761.18L172.665 759.69L169.495 758.16L168.745 759.64L165.485 761.14L166.175 762.78L167.535 762.35L167.405 763.41L163.875 764.46L161.725 763.42L160.785 764.47L156.995 763.78L154.775 760.35L152.745 759.82L150.805 760.81L149.445 759.3L146.895 761.77L143.365 762.96L142.095 765.25L140.715 764.61L137.645 765.92L133.785 765.24L132.745 766.55L130.815 765.95L129.495 762.46L125.055 762.4L123.395 765.26L116.805 767.62L115.175 767.25L113.085 764.9L116.375 764.47L115.475 762.49L116.785 761.2L115.595 762.05L113.915 761.7L112.175 763.38L110.285 762.23L108.765 758.2L105.965 755.4L105.275 752.08L107.595 748.65L106.435 744.34L108.505 738.47L108.155 734.89L109.755 733.17L109.845 730L112.345 726.07L111.435 723.29L108.985 720.15L109.455 711.93L115.175 702.29L116.875 694.63L120.165 692.2L119.385 685.77L121.395 680.1L121.675 676.59L124.075 674.24L123.695 667.58L126.185 662.1L129.375 660.07L134.135 654.3L134.635 650.91L137.425 650.6L138.315 648.14L140.665 647.85L142.125 646.55L145.925 636.7L149.005 631.6L151.235 630.74L154.535 627.91L155.375 626.1L156.315 622.23L159.295 617.68L159.875 611.05L162.235 606.16L160.975 606.23L161.315 604.67L167.545 598.8L165.115 595.9L168.145 591.83L168.275 589.7L166.595 591.16L165.895 590.4L167.975 588.45L168.755 585.16L164.635 583.67L165.955 581.66L162.905 573.55L163.355 570.59L164.965 570.02L166.725 570.62L172.185 577.39L174.425 575.73L175.155 576.05L175.685 574.78L174.365 568.03L180.555 566.7L180.255 568.17L179.855 566.81L179.125 567.34L180.875 569.24L179.795 571.36L181.375 574L181.175 575.28L183.145 576.97L183.135 576.71L187.265 577.62L188.895 576.37L188.555 578.2L189.485 579.58L190.425 578.68L193.745 578.5L193.835 580.27L192.345 582.01L191.415 582.08L190.805 580.39L189.095 581.89L189.865 585.26L187.555 587.55L188.405 588.88L189.465 587.82L190.625 589.03L193.425 586.48L193.945 584.27L194.635 584.89L196.995 583.14L195.795 581.73L196.375 580.29L197.245 580.48L197.095 578.41L199.255 577.79L201.795 579.04L203.155 577.97L203.415 577.49L204.335 575.85L206.545 576.25L206.985 577.85L208.225 577.14L204.815 572.43L204.905 571.39L205.515 572.78L206.595 572.88L206.665 571.21V571.21Z" fill="#C4C4C4"/>
<path d="M266.495 478.28L268.455 477.24L268.345 476.32L270.745 473.54L272.935 475.64L273.455 474.69L275.015 475.64L275.265 474.74L276.825 474.5L277.125 475.88L278.605 476.82L278.635 478.81L280.155 478.61L283.105 480.55L284.895 480.52L285.335 483.37L287.305 486.06L288.175 485.94L287.495 486.69L289.505 487.33L288.345 489.01L289.025 490.5L292.665 489.72L294.005 492.53H294.475L295.185 492.35L295.165 494.35L296.465 493.9L296.645 494.86L297.765 493.31L298.535 493.48L299.625 496.08L302.055 496.5L301.565 499.08L302.335 500.57L301.515 502.69L302.565 502.67L301.975 503.5L302.765 504.9L301.905 505.25L302.555 506.78L303.955 507.49L305.835 506.8L308.125 508.59H308.455L309.525 509.32L310.355 508.65L310.465 504.68L312.875 505.66L314.905 504.64L316.265 506.03L317.795 505.37L317.725 502.3L315.555 501.91H315.205L315.035 500.69L312.975 500.53L311.135 498.3L309.475 497.78L310.285 495.43L309.315 495.28L309.495 493.44L311.945 494.07L313.955 491.42L315.175 491.95L316.885 490.65L318.805 491.1L319.695 490.25L320.655 491.85L321.735 491.2L322.215 491.01L323.485 490.66L326.605 495.1L327.425 494.94L327.165 493.35L329.925 493.88L330.385 495.48L333.005 494.7L333.235 493.35L334.915 493.22L335.085 494.97L336.355 494.57L337.625 496.82L336.065 499.87L336.875 501.28L339.175 501.77L338.765 502.85L339.685 502.53L339.995 500.54L343.585 502.98L343.915 500.96H344.175L343.595 500.48L344.725 499.23L344.215 496.16L345.165 496.24L344.225 494.71L345.695 493.84L344.005 489.86L344.575 486.82L343.385 484.97L343.355 482L345.855 481.37L346.105 482.32L346.815 480.94L348.105 480.8L348.055 479.03L349.685 478.81L349.615 477.81L355.035 478.76L355.665 479.95L355.315 480.74L354.345 480.5L354.365 485.45L356.295 486.71L355.805 487.9L357.195 486.69L358.355 486.87L358.115 489.82L360.765 490.3L360.855 492.4L363.275 491.35L363.995 489.89L365.415 489.6L367.395 491.14L372.705 489.65L373.085 490.29L374.675 488.99L376.235 489.31L375.535 488.44L376.815 488.87L377.255 487.95L380.155 489.64V490.95L386.435 487.57L388.345 489.12L388.085 490.36L389.045 489.92L390.235 491.06L389.865 494.82L391.135 494.46L394.255 497.31L394.325 496.69L397.155 496.53L397.735 498.07L399.295 499.22L398.895 500.14L400.235 502.28L397.545 503.6L397.145 504.89L399.405 506.53L400.885 506.25L401.495 508.72L402.425 508.45L402.965 509.87L403.865 509.92L403.355 510.36L405.055 512.93L403.685 515.54L404.025 518.81L406.055 520.29L407.115 519.99L408.835 522.07L407.945 523.86L411.545 524.4L412.215 526.41L412.855 525.72L414.765 527.92L416.865 528.07L416.955 529.14L418.795 529.39L418.865 531.15L420.665 530.11L422.545 531.49L423.135 532.4L421.325 534.7L421.775 535.95L426.205 537.46L426.395 539.43L423.035 543.79L423.065 545.59L421.585 545.83L420.935 548.29L421.435 550.68L416.925 553.21L417.035 555.01L419.475 558.84L422.375 560.45L424.555 560.52L424.955 567.22L427.025 567.07L428.895 575.07L430.915 576.18L431.865 575.61L432.355 576.48L431.685 581.03L433.165 583.36L433.195 585.2L436.455 586.16L439.575 589.08L441.035 593.75L445.365 593.98L447.535 595.46L447.505 593.43L451.465 594.04L455.465 597.79L456.875 597.94L457.185 601.8L458.485 601.88L458.955 603.16L460.235 603.54L460.665 605.38L462.325 606.33L462.155 607.87L466.005 610.76L466.435 614.21L470.065 616.47L473.485 616.01L480.125 622.31L480.755 628.8L486.615 633.2L487.435 633.08L487.415 630.53L488.945 630.03L492.055 630.4L493.855 633.56L495.155 632.44L494.745 633.46L497.845 639.11L500.685 639.36L502.075 638.54L503.735 643.45L505.575 643.99L506.965 647.06L506.355 648.72L508.565 649.61L505.675 655.04L506.785 656.37L508.405 656.66L506.815 657.35L507.495 664.76L506.025 666.51L506.055 668.57L504.035 670.5L503.325 669.54L502.545 670.58L502.715 672.62L501.665 674.32L497.475 672.44L496.735 671.09L493.695 669.33L491.605 669.95L487.475 667.1L487.315 668.48L485.385 670.33L483.765 669.56L483.015 670.13L484.205 674.58L482.205 679.86L483.015 682.37L481.215 687.74L476.345 692.39L471.315 695.56L466.645 695.34L456.395 698.9L452.355 703.48L446.785 704.22L445.345 707.51L442.275 709.53L441.395 711.75L439.635 711.44L439.085 713.08L439.905 716.54L445.585 721.99L447.055 726.98L449.565 727.61L450.095 729.21L451.115 728.85L455.285 737.74L450.465 745.04L451.415 745.8L449.195 749.64L450.485 750.84L453.255 751.13L456.145 749.64L460.195 753.09L459.965 754.7L461.345 758L459.045 761.11L459.605 762.46L457.795 763.52L458.775 764.86L457.105 767.39L458.105 768.63L458.025 771.47L455.245 774.12L454.675 772.69L453.385 772.09L453.015 773.11L449.255 770.97L447.565 768.64L445.715 767.84L445.345 766.31L442.125 765.45L441.095 763.03L442.195 760.77L443.895 760.11L439.725 756.46L441.235 754.36L439.685 755.24L437.945 753.69L434.695 753.48L432.695 754.66L429.885 754.43L428.035 758.21L425.565 757.9L423.035 758.94L419.235 754.2L419.295 752.35L414.685 753.38L412.675 752.18L407.525 753.86L406.635 752.44L408.105 748.77L407.315 747.84L404.915 750.75L401.655 751.87L404.005 757.72L404.185 760.71L402.395 761.22L402.585 759.97L400.095 760.78L395.235 759.51L392.615 760.35L391.855 758.91L389.775 760.01L385.805 759.97L382.125 761.09L381.405 762.98L377.455 762.1L369.845 762.78L368.155 761.79L368.005 763.11L366.075 763.28L365.055 768.28L364.065 769.26L359.835 770.19L355.155 769.42L352.015 773.27L353.515 773.7L354.405 775.88L349.035 775.45L346.065 777.53L345.975 779.37L344.625 780.35L341.785 780.54L343.635 777.45L340.605 776.91L335.635 778.94L334.865 780.42L326.005 780.25L325.555 778.69L326.445 777.25L322.965 773.42L323.365 772.51L319.145 772.37L319.375 770.53L322.225 769.47L320.325 767.22L313.365 769.37L312.165 767.48L308.105 766.51L307.825 765.14L301.975 764.24L300.305 767.53L297.205 767.41L292.875 765.48L294.495 762.69L291.775 762.77L291.275 763.45L292.695 765.61L291.335 770.39L292.105 772.13L293.725 772.88L294.165 776.97L291.665 779.04L291.635 781.81L289.115 782.31L284.895 788.95L278.705 792.2L276.655 791.62L275.055 792.28L275.265 789.83L277.505 788.3L276.545 786.86L278.945 781.74L278.315 781.2L277.405 781.98L275.495 780.74L274.315 783.04L271.345 782.45L270.095 784.28L268.305 778.98L270.505 777.41L269.765 775.06L267.295 773.88L266.565 771.85L263.835 772.28L262.965 770.89L263.495 770.4L261.565 768.65L261.905 766.33L261.425 767.41L258.725 767.89L256.195 766.15L255.715 768.02L251.965 766.15L252.725 763.24L251.065 761.71L248.555 762.8L246.925 767.52L238.255 766.17L239.005 763.03L240.725 761L241.955 760.18L244.975 761.12L248.015 760.14L250.645 758.01L250.455 756.85L252.025 756.64L252.975 755.27L253.025 754.85L254.365 753.89L261.515 756.38L263.745 753.66L265.505 753.1L265.755 754.2L267.875 754.12L268.665 757.53L269.585 754.34L270.925 755.02L272.115 753.93L272.695 751.65L271.185 749.96L271.295 746.11L267.825 743.54L269.585 741.94L271.045 742.3L271.415 741.19L272.555 741.42L270.305 738.32L270.575 737.35L269.595 738.37L270.485 736.33L269.065 737.06L268.755 736.05L270.555 734.79L269.925 734.32L270.795 731.87L270.875 729.71L269.405 728.26V726.51L271.155 725.78L272.815 718.99L272.735 718.36L273.015 717.84V716.37L272.475 712.75L270.705 710.92L267.895 701.16L267.955 696.58L263.675 690.32L263.735 688.79L262.215 688.74L261.935 687.35L266.465 682.48L265.585 681.67L266.175 679.61L267.815 680.05L270.565 677.84L272.225 679.97L274.665 679.72L275.495 678.03L279.165 676.48L279.185 675.15L278.265 675.07L278.755 674.59L283.595 673.49L283.015 671.58L283.755 669.51L282.495 667.1L282.785 665.77L284.345 665.27L280.045 659.84L280.135 658.39L281.205 657.84L280.925 656.21L283.175 657.89L285.165 657.52L286.805 660.97L288.555 659.71L289.825 656.7L291.735 657.15L290.755 657.43L290.985 659.09L289.995 660.2L293.435 659.32L295.345 657.7L293.845 656.21L294.575 655.7L292.825 653.73L293.395 653.07L292.305 653.76L290.365 651.97L291.115 651.05L290.135 649.64L291.435 649.16L290.665 646.96L292.465 645.76L292.445 643.89L291.075 642.67L292.725 641.18L292.735 638.29L290.775 636.65L292.955 635.56L291.735 633.92L292.575 633.45L291.225 632.63L290.435 630.54L289.595 630.74L290.135 629.06L289.665 629.58L288.975 628.47L288.095 628.64V627.44L286.505 627.08L286.005 624.79L284.305 624.95L282.525 623.36L279.775 623.59L280.515 621.4L278.765 620.14L279.785 618.59L278.355 618.79L277.165 617.69L278.145 615.96L280.085 614.92L279.625 613.05L277.765 611.64L276.515 612.46L275.275 609.76L274.555 610.2L273.735 608.77L271.745 608.12L271.865 606.97L272.735 606.99L271.435 603.47L272.335 602.97L270.835 602.4L271.745 600.73L272.385 602L273.825 600.29L272.235 598.31L272.875 596.12L270.835 595.52L270.375 594.27L270.625 593.29L271.675 593.43L270.645 590.64L274.125 589L272.335 584.9L269.815 583.92L270.495 582.47L271.585 582.37L270.205 579.68L271.585 577.88L269.185 577.62L269.585 575.4L267.895 574.24L266.265 575.9L267.625 577.11L265.655 578.45L264.945 580.25L259.145 580.33L258.265 579.46L258.975 573.57H258.715L258.665 572.7L257.275 572.75L258.365 570.8L257.315 570.28L255.145 572.24L254.795 574.39L251.755 573.41L254.095 571.25L253.725 569.56L255.635 567.96L254.545 564.81L252.965 563.88L253.165 558.92L250.735 557.1L251.025 556.14L248.105 558.19L247.045 560.36H246.465L245.375 556.49L243.305 557.56L243.195 559.83L242.285 560.26L241.755 560.44L239.955 558.75L241.035 556.86L240.065 556.03L241.305 555.48L241.105 553.56L241.245 551.97L241.495 550.18L237.255 551.46L236.265 551.04L235.565 551.83L235.895 554.82L234.855 552.62L232.745 552.8L232.095 550.46L230.635 550.64L229.245 552.37L227.165 550.38L225.045 552.33L223.765 551.43L222.465 552.42L220.165 552.49L220.655 554.88L218.925 555.42L223.885 556.37L222.015 557.36L222.915 558.79L224.445 558.83L224.755 556.18L226.815 558.07L226.955 560.17L225.595 561.91L226.845 563.24L225.985 564.58L224.615 564.76L223.475 563.4L221.965 564.71L219.445 563.62L217.295 565.73L218.195 567.6L216.605 569.65L216.025 569.62L215.315 570.87L212.475 571.55L206.665 571.21L205.425 568.94L204.375 568.76L204.365 567.08L206.605 564.94L205.835 559.83L208.275 559.09L207.905 557.8L209.515 555.15L206.935 553.39L208.665 551.09L208.225 549.73L205.845 550.19L205.025 547.62L205.565 544.75L204.225 546.21L203.475 545.47L204.005 544.79L202.395 545L202.195 542.78L203.295 542.72L201.545 538.45L201.245 531.79L201.725 530.39L203.235 530.25L202.275 529.17L201.925 525.62L198.595 524.86L199.995 522.78L199.945 520.54L201.305 518.6L207.695 517.1L209.925 518.04L209.755 520.55L212.265 517.07L211.935 515.96L214.185 514.86L216.305 515.91L219.845 516.43L221.025 515.7L221.825 516.59L223.665 516.61L225.705 520.67L227.725 521.26L232.715 520.25L232.425 515.22L233.245 514.8L233.735 513.18L233.645 513.05L231.815 512.13L231.945 510.51L232.915 509.9L231.615 507.19L231.945 505.68L234.605 507.36L236.785 506.58L237.205 507.66L242.405 506.49L242.475 505.74L240.695 504.79L241.755 502.74L244.775 501.76L247.645 498.89L247.665 495.74L246.795 494.31L248.625 487.38L249.845 488.02L251.195 487.38L251.605 488.57L254.785 490.2L255.575 488.88L256.285 489.9L257.545 489.51L261.195 487.48L263.735 483.71L264.995 483.22L266.495 478.28Z" fill="#C4C4C4"/>
<path d="M485.395 257.98L485.465 258.02L486.175 257.68L486.105 259.07L488.385 260.48L486.765 264.36L487.455 265.98L490.125 266.46L492.185 268.23L492.295 270.53L495.525 271.29L495.025 272.41L496.845 272.53L493.915 278.6L494.695 279.18L496.265 277.85L499.985 280.36L499.635 279.01L503.335 281.58L502.095 282.72L501.165 282.5L502.295 283.04L502.325 283.28L502.015 283.32L501.655 283.96L502.095 285.1L501.465 286.14L498.735 287.54L499.585 288.72L497.875 289.62L496.285 292.48L495.575 291.74L496.035 288.49L495.095 287.9L493.665 288.7L492.695 286.79L489.215 287.2L489.145 286.09L485.575 286.52L484.725 284.02L481.765 285.05L481.745 288.6L479.765 288.41L479.615 287.32L478.595 287.29L476.875 285L475.405 285.76L474.415 285.44L473.945 284.37L472.475 285.61L470.875 285.59L470.665 283.97L469.375 283.84L465.675 285.41L465.105 286.42L465.915 286.55L463.475 287.04L463.135 287.06L463.765 286.24L461.575 284.99L461.265 284.82L460.805 284.81L461.205 283.72L462.895 282.08L462.065 280.9L462.595 277.88L465.725 274.63L464.195 273.55L462.545 273.84L463.175 270.39L464.365 270.11L464.865 267.8L463.285 266.58L465.525 265.29L468.885 266.44L467.925 264.45L469.145 262.23L471.885 262.29L471.715 260.94L473.095 260.75L473.115 258.77L474.815 259.13L474.795 262.12L477.995 262.67L480.205 260.11L482.045 261.37L483.395 259.87L485.065 259.78L483.775 258.56L484.335 257.86L485.245 257.33L485.625 257.44L485.395 257.98Z" fill="#C4C4C4"/>
<path d="M344.565 210.13L352.585 211.32L352.865 208.32L354.385 208.16L355.625 208.8L357.055 208.24L357.595 209.67L359.625 210.33L361.465 209.83L363.005 208.48L362.625 207.1L363.685 205.56L362.675 200.86L364.965 200.39L367.485 197.62L370.075 197.11L373.945 198.42L374.135 199.95L376.995 198.93L379.675 199.2L380.465 197.98L378.295 196.18L382.355 196.66L384.405 193.66L388.015 194.35L389.595 191.41L390.915 192.06L392.725 191.11L392.365 187.53L395.095 185.75L394.255 183.46L396.425 183.92L396.575 186.14L398.455 186.42L400.985 184.63L402.135 186.94L403.185 186.57L403.305 185.49L406.015 184.89L407.795 188.62L411.105 188.17L416.345 191.14L416.385 192.84L418.585 193.87L419.675 196.58L424.785 195.04L429.895 197.19L433.475 196.14L434.415 196.65L433.755 198.3L434.905 199.04L439.485 199.34L438.345 201.85L440.335 203.17L445.265 201.68L447.225 203.96L448.855 202.45L450.485 202.29L449.935 203.09L451.165 203.24L451.005 202.41L452.805 201.77L453.815 202.69L451.445 204.52L452.475 204.14L453.515 205.88L455.405 205.39L457.565 202.35L460.005 201.83L460.565 200.42L461.795 200.24L461.725 198.09L463.325 198.11L464.625 196.56L466.765 196.63L468.035 199.52L469.785 200.19L470.715 195.94L474.205 193.37L476.655 194.17L478.075 193.69L479.705 197.43L480.945 196.78L480.835 196.6L483.025 192.87L482.905 191.44L484.035 191.4L484.535 192.42L485.935 192.06L487.075 188.52L488.325 189.16L487.925 185.62L488.445 184.18L489.625 184.33L490.535 182.97L490.145 180.74L492.435 179.15L494.955 179.5L495.405 176.14L500.545 171.89L502.175 171.43L504.475 172.71L506.835 171.46L507.475 170.18L504.405 168.34L505.575 163.55L507.475 167.92L510.945 169.35L510.815 172.62L513.335 174.8L512.425 177.21L513.435 178.2L518.805 176.84L521.695 177.36L522.055 179.12L524.275 179.4L526.535 176.17L530.275 178.17L532.075 178.01L532.995 176.85L534.075 177.53L534.385 181.81L533.195 184.92L527.085 191.45L525.035 195.28L528.945 194.78L532.295 196.11L535.465 195.56L535.565 193.76L538.025 192.76L539.035 190.09L540.975 190.22L545.045 188.02L545.625 193.6L546.805 193.87L547.285 195.25L544.535 200.84L542.785 201.99L542.215 206.05L543.455 208.19L541.975 214.81L540.735 217.58L535.325 222.69L527.995 227.2L529.035 235.28L526.625 240.16L527.845 241.61L532.705 242.44L536.555 246.83L541.195 249.36L548.375 258.71L556.845 264.23L559.455 268.06L557.275 272.09L559.155 276.57L555.735 281.66L553.775 282.55L552.825 286.54L554.555 293.43L555.955 295.52L555.425 297.42L556.535 299.13L562.625 300.95L564.265 303.03L563.785 305.88L562.455 307.16L563.675 309.81L562.095 312.67L562.225 315.49L567.135 320.74L566.265 321.91L566.435 324.22L564.305 327.25L564.765 328.27L563.725 329.99L564.705 333.46L563.065 337.7L557.675 342.46L556.435 345.37L557.465 347.67L559.965 348.63L561.415 355.79L565.805 359.65L567.055 362.53L567.535 367.94L565.325 370.51L563.205 368.9L563.635 370.88L562.095 373.46L558.005 373.76L556.795 371.55L554.975 370.67L553.495 371.45L553.085 372.83L547.755 373.01L547.315 374.48L543.555 374.59L540.615 376.97L540.045 378.52L539.495 377.69L539.455 377.21L536.015 375.56L534.475 376.03L532.425 374.83L527.575 374.43L527.055 375.57L527.755 376.47L525.535 376.72L524.845 379.07L523.555 379.61L524.425 381.2L520.955 381.31L522.775 384.44L521.185 385.44L521.715 387.14L519.845 388.53L520.555 389.4L519.075 389.55L518.715 391.75L516.935 391.41L516.985 389.68L516.185 389.36L512.815 391.06L508.265 390.58L507.295 392.12L504.985 392.02L504.355 392.82L503.925 392.02L502.285 392.89L497.555 391.39L496.995 392.12L493.035 392.18L492.515 390.67L491.305 390.53L489.695 392.12L489.295 390.88L488.405 390.83L488.185 388.81L484.555 387.78L485.215 387.1L483.485 385.69L481.865 386.76L482.305 385.54L480.515 383.59L479.015 385.34L479.175 386.45L475.685 385.28L476.025 386.38L473.325 387.88L473.285 389.18L471.695 389L472.095 390.58L468.755 389.43L467.395 385.34L467.095 386.61L466.245 386.18L468.015 383.87L466.695 381.4L466.845 379.69L467.915 379.61L468.295 376.38L466.885 372.99L464.235 371.79L465.355 369.25L462.865 366.51L460.625 367.68L458.465 363.86L464.555 359.92L465.355 359.1L464.845 357.22L466.945 356.64L464.845 353.71L465.595 353.08L464.525 351.33L465.485 347.46L462.875 342.31L464.815 341.85L463.955 339.9L462.755 339.68L460.295 341.1L457.755 340.78L456.915 339.84L457.615 339.85L458.015 337.81L453.395 337.86L453.515 335.66L452.305 335.45L452.435 334.16L449.975 333.74L448.035 334.97L447.855 334.27L445.685 334.17L445.215 330.79L441.075 331.32L439.525 328.85L434.155 326.24L433.185 326.17L432.455 328.06L430.535 328.33L430.405 329.33L425.785 328.97L425.535 327.22L422.645 326.07L421.935 324.04L420.785 323.93L420.075 325.72L419.095 325.8L416.165 323.04L414.245 322.57L411.325 317.97L408.925 316.72L408.055 313.82L405.295 310.02L405.845 308.42L407.095 308.44L407.145 305.61L410.335 303.9L407.945 303.2L408.725 302.67L407.025 301.41L409.005 294.73L410.965 291.61L409.385 289.6L410.785 288.32L410.025 287.47L410.505 285.32L408.805 284.49L410.255 283.55L409.755 282.84L412.465 277.9L411.045 276.79L412.425 275.9L408.625 276.96L407.915 276.02L408.575 275.49L406.825 273.28L405.275 275.42L403.185 275.94L402.015 274.06L403.475 272.1L402.285 271.39L400.535 272.34L402.825 267.69L402.175 262.37L404.255 263.04L405.985 261.95L406.105 260.95L406.495 256.49L405.395 255.65L405.725 254.1L404.585 253.31L404.795 252.4L404.035 252.6L405.515 249.86L404.685 248.34L405.415 245.28L407.285 245.1L407.795 243.5L406.255 237.56L404.155 236.88L403.745 235.82L399.345 238.49L399.225 234.22L398.465 236.05L392.775 234.62L390.025 236.15L384.315 234.15L382.895 232.6L380.655 232.57L379.885 231.33L381.565 229.27L381.295 228.05L377.595 227.18L374.795 224.17L371.765 225.4L370.665 222.15L367.435 221.78L368.315 218.96L365.795 219.2L362.495 217.34L360.035 217.85L356.495 214.66L349.205 217.1L345.015 212.57L344.565 210.13V210.13ZM484.335 257.86L483.775 258.56L485.065 259.78L483.395 259.87L482.045 261.37L480.205 260.11L477.995 262.67L474.795 262.13L474.815 259.13L473.115 258.77L473.095 260.75L471.715 260.94L471.885 262.29L469.145 262.23L467.925 264.45L468.885 266.44L465.525 265.29L463.285 266.59L464.865 267.8L464.365 270.11L463.165 270.39L462.535 273.84L464.195 273.55L465.715 274.63L462.585 277.89L462.055 280.91L462.885 282.09L461.205 283.73L460.805 284.82L461.265 284.83L461.575 285L463.765 286.25L463.135 287.07L463.475 287.05L465.915 286.56L465.105 286.42L465.675 285.41L469.375 283.85L470.665 283.98L470.875 285.61L472.465 285.63L473.935 284.39L474.405 285.45L475.395 285.77L476.865 285.01L478.585 287.3L479.595 287.33L479.745 288.41L481.725 288.61L481.745 285.06L484.705 284.03L485.555 286.53L489.125 286.1L489.185 287.2L492.665 286.79L493.645 288.7L495.075 287.9L496.005 288.49L495.545 291.74L496.255 292.48L497.845 289.63L499.545 288.72L498.695 287.54L501.425 286.14L502.055 285.1L501.625 283.95L501.985 283.31L502.295 283.27L502.265 283.03L501.135 282.49L502.065 282.71L503.305 281.57L499.605 279L499.955 280.35L496.235 277.85L494.665 279.18L493.885 278.61L496.815 272.53L494.995 272.41L495.495 271.29L492.265 270.53L492.155 268.23L490.095 266.46L487.415 265.98L486.725 264.36L488.345 260.48L486.065 259.08L486.125 257.69L485.415 258.03L485.585 257.45L485.205 257.35L484.685 258.06L484.335 257.86V257.86Z" fill="#C4C4C4"/>
<path d="M167.595 199.06L168.315 198.96L171.625 201L173.185 200.12L174.495 200.65L173.265 202.83L175.245 202.87L176.055 204.88L179.505 204.54L180.925 203.48L181.295 204.36L182.755 204.01L183.675 205.75L189.205 205.71L189.855 206.44L190.045 207.37L191.255 208.85L191.365 209.18L194.565 209.07L196.535 206.98L198.995 209.71L196.755 210.8L197.715 212.55L199.405 212.81L197.665 214.14L197.835 216.78L198.855 218.22L196.065 220.55L195.915 221.64L193.325 221.63L191.525 218.86L191.465 220.82L188.715 220.97L185.875 218.95L185.525 217.47L184.475 219.04L182.095 218.94L181.275 217.33L181.605 215.07L178.765 213.51L178.995 212.21L176.495 208.44L175.785 205.41L168.865 202.17L168.595 201.83L167.045 199.3L167.545 198.93L167.595 199.06V199.06ZM169.535 158.63L174.135 159.99L175.585 158.75L177.495 159.05L177.325 158.19H178.425L175.715 161.95L176.405 163.85L177.475 164.05L177.065 166.91L177.815 168.4L176.675 170.43L175.035 171.67L173.725 170.74L172.945 171.43L171.245 167.79L171.775 167.44L172.635 167.56L172.715 165.13L173.195 165.6L172.005 164.34L172.105 161.69L171.425 161.6L171.235 162.98L169.535 158.63V158.63Z" fill="#C4C4C4"/>
<path d="M246.595 163.84L249.205 155.81L249.295 157.39L250.845 157.89L251.035 159.85L253.355 160.66L256.815 156.76L257.835 153.61L262.445 154.26L263.725 150.53L267.965 150.87L268.775 148.04L268.125 147.36L268.965 146.32L271.545 147.07L274.575 144.36L276.195 145.19L276.105 145.94L275.455 147.5L273.855 148.05L274.015 149.51L272.975 150.86L275.605 152.39L276.505 154.06L276.005 155.07L277.935 155.58L275.975 157.88L276.475 160.73L273.415 162.08L274.125 167.51L275.755 168.63L277.265 167.7L279.165 171.81L282.455 175.05L284.605 175.39L283.475 177.04L280.625 178.47L279.045 181.02H274.945L267.135 173.84L266.855 175.6L265.095 175.64L265.755 176.9L262.855 178.89L260.105 177.64L258.425 179.14L257.865 178.92L258.765 176.83L257.665 174.63L254.965 176.49L254.995 177.43L251.515 173.88L251.315 170.77L249.965 170.95L250.125 169.99L248.695 168.98L249.665 167.78L248.845 165.57L249.425 164.2L246.595 163.84Z" fill="#C4C4C4"/>
<path d="M228.835 363.91L231.695 362.86L231.415 365.01L232.565 365.96L234.775 364.59L236.395 366.19L239.975 364.99L240.715 367.78L244.035 371.02L243.315 371.98L240.205 370.29L239.975 371.74L241.275 373.62L239.775 373.93L238.655 372.64L239.645 375.49L237.395 377.17L241.035 381.9L240.045 384.34L241.115 387.22L240.135 388.55L236.915 388.95L235.705 391.18L236.835 392.03L236.305 392.94L233.945 392.43L235.855 394.69L238.595 396.74L240.355 396.66L240.255 398.08L242.775 397.4L246.855 399.74L249.035 398.59L249.315 395.52L247.185 397.27L244.825 392.76L247.405 392.06L249.225 390.3L250.985 390.56L250.795 388.27L252.255 387.89L253.555 388.84L253.625 390.76L255.225 391.99L254.305 387.61L256.075 388.54L256.315 387.58L257.555 387.3L259.385 389.81L259.225 391.6L259.025 393.73L260.515 397.26L259.935 398.53L261.835 399.22L262.045 400.83L267.345 401.43L266.815 403.97L268.765 405.04L268.185 406.71L271.005 407.84L272.665 407.29L273.275 408.65L274.365 408.19L276.285 410.18L278.915 410.86L276.685 414.36L277.295 416.95L276.485 418.25L274.385 414.18L271.435 415.58L274.945 417.9L273.075 421.11L273.655 422.69L272.815 423.64L276.925 426.1L277.535 427.03L276.145 427.78L276.865 428.87L273.185 430.39L271.445 428.61L270.375 429.26L266.335 428.34L265.075 431.53L266.435 432.94L266.575 434.79L267.865 435.24L265.695 435.97L265.385 435.37L264.605 436.27L260.665 435.49L260.895 437.38L261.575 436.45L263.055 436.55L262.025 438.94L264.595 437.55L267.055 439.71L266.855 440.81L267.605 440.73L267.685 441.51L265.275 443.2L265.205 444.95L266.265 444.51L265.565 446.35L264.225 446.09L263.655 447.23L262.645 446.77L262.235 446.62L260.815 447.7L260.235 449.87L260.855 452.47L259.095 452.43L258.835 453.95L259.905 454.29L260.005 455.96L257.985 459.32L258.905 460.47L256.115 462.86L255.945 465.85L261.265 466.94L261.765 465.75L260.565 464.21L260.865 463.15L263.855 462.24L267.265 462.77L269.085 467.63L266.965 467.54L266.195 468.82L267.735 474.31L266.295 476.97L266.495 478.28L264.995 483.22L263.735 483.71L261.195 487.48L257.545 489.51L256.285 489.9L255.575 488.88L254.785 490.2L251.605 488.57L251.195 487.38L249.845 488.02L248.625 487.38L246.795 494.31L247.665 495.74L247.645 498.89L244.775 501.76L241.755 502.74L240.695 504.79L242.475 505.74L242.405 506.49L237.205 507.66L236.785 506.58L234.605 507.36L231.945 505.68L231.615 507.19L232.915 509.9L231.945 510.51L231.815 512.13L233.645 513.05L233.735 513.18L233.245 514.8L232.425 515.22L232.715 520.25L227.725 521.26L225.705 520.67L223.665 516.61L221.825 516.59L221.025 515.7L219.845 516.43L216.305 515.91L214.185 514.86L211.935 515.96L212.265 517.07L209.755 520.55L209.925 518.04L207.695 517.1L201.305 518.6L199.945 520.54L199.995 522.78L198.595 524.86L201.925 525.62L202.275 529.17L203.235 530.25L201.725 530.39L201.245 531.79L201.545 538.45L203.295 542.72L202.195 542.78L202.395 545L204.005 544.79L203.475 545.47L204.225 546.21L205.565 544.75L205.025 547.62L205.845 550.19L208.225 549.73L208.665 551.09L206.935 553.39L209.515 555.15L207.905 557.8L208.275 559.09L205.835 559.83L206.605 564.94L204.365 567.08L204.375 568.76L205.425 568.94L206.665 571.21L206.485 572.89L205.405 572.8L204.795 571.4L204.705 572.44L208.115 577.15L206.875 577.87L206.435 576.27L204.225 575.87L203.305 577.52L203.045 578L201.685 579.06L199.145 577.81L196.985 578.43L197.135 580.49L196.275 580.31L195.695 581.74L196.885 583.15L194.535 584.9L193.845 584.29L193.315 586.49L190.515 589.04L189.355 587.83L188.285 588.9L187.435 587.57L189.745 585.28L188.975 581.91L190.695 580.41L191.305 582.11L192.235 582.04L193.725 580.3L193.635 578.52L190.315 578.7L189.375 579.6L188.445 578.22L188.785 576.39L187.165 577.64L183.035 576.73V577L181.065 575.3L181.275 574.02L179.695 571.38L180.765 569.27L179.025 567.36L179.755 566.83L180.155 568.2L180.455 566.73L174.265 568.06L175.585 574.81L175.055 576.09L174.325 575.76L172.085 577.42L166.625 570.65L164.865 570.05L163.255 570.62L160.805 566.43L159.225 559.98L164.245 557.04L166.875 553.09L166.395 552.41L163.335 552.46L160.545 547.11L160.875 543.86L158.335 541.73L158.985 537.77L156.885 531.97L151.935 526.95L148.075 526.17L138.915 529.28L134.385 531.83L129.055 532.43L127.895 531.59L126.995 528.37L121.925 523.95L123.805 521.38L126.035 521.35L125.585 519.91L126.915 517.07L128.945 518.32L130.085 517.62L131.885 519.48L131.325 516.36L132.045 515.37L128.975 512.96L128.895 511.64L130.615 510.44L130.625 509.49L132.925 508.86L133.185 507.9L135.455 507.07L135.595 506.07L137.135 508.05L138.445 508.24L139.725 506.13L139.465 505.78L137.765 504.11L138.685 502.77L141.045 502.63L141.475 503.71L143.155 503.82L143.965 499.98L142.915 498.93L142.865 497.25L140.965 496.7L141.255 495.15L140.185 492.5L139.305 492.42L139.125 491.38L137.375 491.48L137.775 489.9L135.455 489.99L134.055 488.84L135.435 487.66L135.615 486.5L134.785 486.14L137.035 484.6L134.965 481.19L136.045 477.44L139.125 474.17L140.875 476.02L142.925 476.57L144.985 474.83L146.015 470L144.385 468.95L145.265 466.69L143.335 463.95L144.275 461.36L147.005 456.48L144.615 451.95L144.865 450.92L145.265 450.79L153.335 441.74L154.905 441.63L155.855 443.72H159.205L163.885 438.01L165.655 437.89L165.015 435.65L165.545 433.15L166.805 432.82L166.595 432.09L170.575 427.74L169.415 425.28L168.525 425.59L169.915 423.28L168.355 421.61L169.975 419.88L171.895 419.28L178.195 420.13L179.945 418.79L182.245 418.59L181.015 417.23H180.775L180.705 415.81L184.665 411.78L183.975 409.58L185.245 408.55L183.575 407.54L182.705 404.26L183.265 403.12L182.345 401.97L180.435 401.73L174.295 404.67L171.845 401.6L175.855 395.63L176.925 394.85L178.035 395.29L178.325 393.71L179.765 393.24L179.465 392.09L180.575 391.5L182.945 391.93L187.505 390.06L189.685 390.27L190.825 391.4L193.145 389.85L196.135 390.21L196.715 386.31L194.955 385.99L194.935 384.17L193.145 380.77L201.265 377.07L202.585 378.64L204.985 378.57L205.905 379.39L205.085 382.42L206.185 384.55L208.785 383.97L210.245 384.69L211.785 382.4L213.865 383.07L214.385 379.93L216.895 379.04L218.075 377.47L219.685 377.51L220.195 373.55L223.785 369.6L221.575 367.2L226.995 365.64L228.835 363.91Z" fill="#C4C4C4"/>
<path d="M506.605 98.0406L508.545 102.651L510.765 105.331L519.915 110.521L533.275 123.921L530.605 125.531L532.465 126.891L532.375 130.501L521.205 129.751L518.235 132.511L514.985 133.021L513.895 132.201L515.165 132.471L515.845 131.411L514.245 129.731L513.155 133.091L511.065 133.411L507.715 132.301L508.375 129.991L512.265 129.251L514.815 125.981L513.825 121.571L512.185 119.891L512.965 117.331L516.485 117.341L516.115 123.231L516.655 120.781L517.715 120.281L520.235 120.221L519.465 121.441L521.365 122.391L521.815 117.821L521.345 114.871L519.925 113.871L519.185 114.981L518.475 111.471L516.895 109.201L513.035 109.281L512.865 111.511L514.515 113.071L514.075 114.381L513.395 113.831L513.795 112.351L512.365 114.741L509.845 116.081L509.405 114.611L511.095 111.951L509.615 110.921L505.965 114.091L504.025 114.011L503.815 112.801L504.915 111.921L506.525 107.371L506.725 104.391L505.325 103.931L503.165 101.231L502.685 98.9106L505.105 97.3106L506.605 98.0406V98.0406ZM463.365 82.7406L462.725 83.3706L462.215 82.2606L463.015 81.8706L463.365 82.7406V82.7406ZM488.605 81.8206L488.425 82.4906L488.065 81.7906L489.615 79.9706L489.865 80.9606L488.605 81.8206ZM436.165 69.5506L437.775 70.9906L434.355 70.8806L435.285 69.3606L436.165 69.5506ZM451.655 68.0206L452.685 68.5906L450.185 68.9706L450.485 67.9906L451.655 68.0206V68.0206ZM458.395 67.4506L453.305 68.8406L455.045 67.5906L457.125 67.5006L458.115 66.1106L458.395 67.4506ZM425.155 63.7406L424.225 64.6506L427.205 66.8206L433.885 68.0506L449.715 67.7206L450.335 69.6906L447.125 71.1206L443.825 70.3706L442.465 71.7406L441.405 70.9206L438.245 70.9706L437.255 69.2106L435.245 69.2606L433.685 71.7406L431.835 70.9306L431.935 69.8806L430.485 71.9006L428.025 72.2806L429.385 73.6106L428.965 74.5906L428.605 73.7706L426.535 73.7506L424.785 74.7706L424.445 75.4906L425.455 76.5206L426.655 75.0506L427.455 75.7506L430.805 75.6306L433.805 73.8306L433.835 71.7806L436.335 71.4406L436.785 72.3406L435.065 72.7706L435.445 74.2806L434.395 75.8706L435.065 75.9506L435.925 72.8306L436.825 72.8206L437.155 75.7406L438.165 75.9106L438.755 74.5506L440.195 75.8106L441.425 73.1306L443.035 78.8006L447.455 76.1906L448.455 72.5906L450.175 71.2506L454.265 69.8506L455.665 68.5106L456.965 68.7806L456.715 73.0206L458.125 74.7906L460.085 74.7006L460.975 76.1806L459.885 78.6006L460.665 81.4406L462.385 83.5406L461.735 85.5706L463.595 87.0606L465.625 86.0706L466.495 86.9006L464.265 88.6906L466.995 87.2706L468.825 90.0906L473.495 90.6906L475.825 96.2306L478.665 96.4606L476.715 96.9206L475.245 98.8206L479.025 97.0206L481.025 98.0606L480.115 96.5006L481.615 97.2706L481.465 98.7806L481.065 98.2806L479.265 99.7006L479.375 100.481L481.175 99.2306L480.975 100.251L482.395 101.301L484.865 106.741L486.945 106.821L485.425 103.531L486.315 102.651L494.875 100.851L499.305 97.4706L500.365 97.7806L500.705 98.5106L499.395 99.0206L499.555 99.9306L501.745 101.351L502.795 100.941L503.095 103.091L506.165 105.441L505.305 109.201L504.395 109.711L504.775 111.031L502.445 113.041L503.265 113.081L503.505 114.471L505.615 116.571L508.145 117.771L509.575 121.511L511.175 121.611L513.295 124.541L512.535 125.881L510.155 126.951L509.015 129.311L507.585 129.441L507.625 130.731L506.395 131.291L507.125 133.081L509.355 133.171L512.355 137.371L513.475 137.091L516.825 140.651L525.325 144.141L529.355 143.911L530.405 144.631L533.535 141.841L535.805 143.221L535.745 145.161L532.495 148.161L536.145 148.841L536.645 149.861L535.965 152.031L536.845 152.611L536.905 155.491L538.995 157.321L538.385 165.201L539.605 169.311L541.345 170.771L543.805 185.441L545.055 188.001L540.985 190.201L539.045 190.071L538.035 192.741L535.575 193.741L535.475 195.541L532.305 196.091L528.955 194.761L525.045 195.261L527.095 191.431L533.205 184.901L534.395 181.791L534.085 177.511L533.005 176.831L532.085 177.991L530.285 178.151L526.545 176.151L524.285 179.381L522.065 179.101L521.705 177.341L518.815 176.821L513.445 178.181L512.435 177.191L513.345 174.781L510.825 172.601L510.955 169.331L507.485 167.901L505.585 163.531L504.415 168.321L507.485 170.161L506.845 171.441L504.485 172.691L502.185 171.411L500.555 171.871L495.415 176.121L494.965 179.481L492.445 179.131L490.155 180.721L490.545 182.951L489.635 184.311L488.455 184.161L487.935 185.601L488.335 189.141L487.085 188.501L485.945 192.041L484.545 192.401L484.045 191.381L482.915 191.421L483.035 192.851L480.845 196.581L480.955 196.761L479.715 197.411L478.085 193.671L476.665 194.151L474.215 193.351L470.725 195.921L469.795 200.171L468.045 199.501L466.775 196.611L464.635 196.541L463.335 198.091L461.735 198.071L461.805 200.221L460.575 200.401L460.015 201.811L457.575 202.331L455.415 205.371L453.525 205.861L452.485 204.121L451.455 204.501L453.825 202.671L452.815 201.751L451.015 202.391L451.175 203.221L449.945 203.071L450.495 202.271L448.865 202.431L447.235 203.941L445.275 201.661L440.345 203.151L438.355 201.831L439.495 199.321L434.915 199.021L433.765 198.281L434.425 196.631L433.485 196.121L429.905 197.171L424.795 195.021L419.685 196.561L418.595 193.851L416.395 192.821L416.355 191.121L411.115 188.151L407.805 188.601L406.025 184.871L403.315 185.471L403.195 186.551L402.145 186.921L400.995 184.611L398.465 186.401L396.585 186.121L396.435 183.901L394.265 183.441L395.105 185.731L392.375 187.511L392.735 191.091L390.925 192.041L389.605 191.391L388.025 194.331L384.415 193.641L382.365 196.641L378.305 196.161L380.475 197.961L379.685 199.181L377.005 198.911L374.145 199.931L373.955 198.401L370.085 197.091L367.495 197.601L364.975 200.371L362.685 200.841L363.695 205.541L362.635 207.081L363.015 208.461L361.475 209.811L359.635 210.311L357.605 209.651L357.065 208.221L355.635 208.781L354.395 208.141L352.875 208.301L352.595 211.301L344.575 210.111L341.915 207.811L339.265 208.581L338.655 206.361L340.085 203.941L333.255 200.391L329.325 193.421L328.195 193.281L326.765 187.661L324.385 187.561L322.355 186.071L317.085 190.741L312.275 188.211L312.475 187.051L310.995 186.621L308.435 183.711L301.785 184.391L303.115 182.461L304.205 174.831L305.515 174.091L308.005 174.661L308.615 172.261L312.085 171.751L314.045 168.821L316.455 168.491L315.785 167.731L317.015 165.411L316.285 161.941L317.325 161.761L318.065 163.021L321.905 162.301L323.095 156.081L324.555 154.011L323.905 150.101L322.505 149.541L322.695 148.531L318.065 148.241L315.615 146.251L315.195 144.381L312.215 142.871L312.485 141.041L313.165 138.471L311.605 132.141L313.065 129.851L314.935 129.461L315.925 127.551L317.705 127.181L319.995 124.221L322.025 125.251L321.415 126.141L321.955 127.101L325.405 126.071L320.815 124.451L321.475 120.811L330.095 115.461L339.085 114.491L340.885 117.411L344.165 117.881L343.085 120.911L344.025 123.111L346.005 123.531L349.005 120.541L351.085 123.241L353.465 123.101L353.335 124.641L355.085 125.581L355.405 127.021L356.905 127.291L355.965 125.721L358.245 123.921L358.425 119.671L357.695 120.121L357.175 119.381L356.005 120.561L355.945 116.271L354.845 117.711L355.115 120.221L352.955 118.941L352.225 119.681L353.715 119.811H352.375L351.565 118.181L352.235 115.881L356.145 113.631L358.895 113.681L357.445 118.981L358.875 119.641L359.505 117.741L358.915 116.851L360.155 114.651L361.675 113.951L360.755 112.671L362.695 113.311L364.205 112.421L364.685 109.241L367.255 107.801L367.485 106.291L366.135 104.921L361.465 110.861L361.195 108.111L363.175 105.751L366.385 104.481L370.915 99.5706L375.855 99.3406L381.565 100.371L392.015 96.8006L399.265 96.1706L403.135 90.3206L412.705 83.9706L417.305 75.0606L421.005 70.6706L423.145 64.6506L425.155 63.7406V63.7406ZM464.395 50.5606L465.035 53.7506L464.375 51.1406L464.395 53.6506L463.695 52.0706L464.105 50.8506L462.105 52.6606L462.445 57.6406L459.735 61.8006L459.215 66.3406L458.945 64.3206L461.345 55.4106L461.425 51.8706L462.945 50.3906L464.395 50.5606V50.5606ZM482.575 41.6406L482.345 44.1806L480.065 45.1606L478.995 47.0906L479.985 50.9106L481.765 53.1806L484.435 54.0606L495.405 52.4506L498.215 54.7506L498.235 58.3406L491.665 64.3106L491.605 67.4906L494.075 72.2506L497.835 72.6306L501.435 77.6506L503.815 79.1106L502.185 79.6906L500.875 82.2506L501.165 86.2506L500.275 87.0006L498.635 85.3406L500.205 85.7606L499.735 83.9906L497.085 84.9106L496.155 83.8506L499.595 81.7706L499.865 80.6706L497.795 80.2906L493.875 81.7706L498.135 79.3906L498.655 77.9606L496.085 78.3706L494.245 80.3106L492.265 77.7906L490.255 79.1906L487.065 79.0006L481.865 83.3006L479.615 87.3206L479.925 85.8706L477.505 86.8906L477.845 89.4206L478.305 87.5306L479.255 88.6606L480.815 87.4606L481.695 88.6106L482.135 90.3106L480.055 92.1706L473.595 88.9906L475.575 89.5606L476.355 85.9506L474.765 87.3106L475.435 88.1906L472.185 88.6506L469.065 85.9506L467.835 86.8606L467.445 83.9806L464.025 85.5806L464.995 83.1706L466.875 83.5706L462.385 80.0806L463.215 75.8706L467.585 75.3306L469.125 76.2106L471.685 74.4106L470.165 73.9906L469.755 72.5206L471.235 72.0106L469.905 72.2406L468.555 69.4306L464.645 70.2206L466.445 66.5906L463.005 68.1206L462.805 67.4906L465.875 62.6206L469.545 63.4506L469.255 65.6406L466.955 65.6206L466.705 66.5906L467.745 67.5306L468.185 66.1406L471.125 65.7406L469.795 65.2606L472.295 63.9806L469.595 63.3706L469.775 60.6206L467.735 61.4606L465.895 60.9206L464.265 56.7406L470.635 55.7806L473.455 57.2106L473.385 59.4106L474.435 60.2406L474.915 59.0806L473.985 56.0006L477.645 53.0106L478.565 53.4406L476.625 56.4906L477.705 56.8606L478.965 55.2706L481.415 59.6806L481.315 62.5006L483.215 63.2306L483.765 64.9606L485.155 63.7606L487.095 63.8806L487.785 58.7106L486.365 55.4006L487.525 55.4906L487.625 54.6806L486.235 55.0406L486.295 56.2406L483.425 56.2006L482.115 54.3206L480.075 53.7706L478.605 49.2906L475.955 51.5806L476.295 52.7506L470.565 55.3506L473.125 49.0206L473.185 45.8806L469.535 48.1506L470.215 51.4206L465.315 55.4106L465.555 54.1506L468.915 51.2006L468.995 46.7406L470.725 44.5306L473.505 42.6806L482.575 41.6406V41.6406Z" fill="#C4C4C4"/>
<path d="M60.665 159.34L57.005 159.69L54.625 160.93L57.255 162.71L56.365 163.97L55.475 162.56L54.025 163.62L50.625 160.83L50.915 159.07L56.675 157.04L60.665 159.34V159.34ZM66.705 153.91L65.575 154.49L67.015 154.58L65.695 155.23L66.215 156.16L64.575 156.11L64.075 154.36L66.705 153.91V153.91ZM61.335 154L62.865 154.77L61.435 155.16L61.205 152.65L61.335 154V154ZM77.615 149.91L78.695 150.91L63.955 152.02L77.615 149.91ZM93.935 145.75L94.695 146.69L91.615 147.63L91.095 147.06L91.405 147.71L89.765 148.09L85.825 147.88L84.975 148.71L83.295 147.78L82.375 148.9L81.395 147.79L84.585 146.07L93.935 145.75ZM147.205 145.12L148.635 145.84L146.545 146.07L146.125 147.29L143.945 147.21L145.165 145.4L147.205 145.12V145.12ZM98.135 144.71L100.185 145.09L100.485 146.62L95.495 145.73L98.135 144.71ZM109.425 142.18L112.505 142.65L112.765 143.65L105.265 143.98L104.855 145.98L104.625 145.28L104.515 146.11L102.205 145.99L103.115 142.72L109.425 142.18V142.18ZM137.065 141.92L137.725 143.69L136.645 142.99L137.065 141.92V141.92ZM137.305 140.84L136.715 141.64L136.155 141.19L136.835 139.84L137.305 140.84V140.84ZM118.655 139.72L124.655 140.82L120.825 142.08L116.965 141.54L116.145 142.96L115.225 142.68L116.185 140.28L118.655 139.72V139.72ZM129.675 138.29L134.445 140.46L128.435 139.05L127.755 140.62L126.535 139.23L129.675 138.29ZM160.195 134.73L158.225 135L159.725 133.31L160.625 133.45L160.195 134.73ZM180.235 127.79L180.145 128.96L181.685 129.87L181.275 130.93L182.425 131.92L181.905 130.18L185.465 133.78L193.305 135.15L201.345 133.29L200.335 129.74L213.395 129.18L220.065 132.01L223.275 136.37L227.195 144.37L232.285 149.14L235.125 157.39L242.975 162.96L246.605 163.85L249.435 164.2L248.855 165.57L249.675 167.78L248.705 168.98L250.125 170L249.965 170.95L251.315 170.78L251.515 173.89L254.995 177.43L254.965 176.49L257.665 174.63L258.765 176.83L257.865 178.92L258.415 179.13L260.105 177.64L262.855 178.89L265.745 176.89L265.085 175.63L266.855 175.6L267.125 173.84L274.935 181.02H279.035L280.615 178.47L283.465 177.04L284.905 177.96L287.905 178.06L295.705 183.4L300.775 184.89L301.755 184.43L308.405 183.75L310.965 186.66L312.445 187.09L312.245 188.25L317.055 190.78L322.325 186.11L324.355 187.6L326.735 187.7L328.165 193.32L329.295 193.46L333.225 200.43L340.055 203.98L338.625 206.4L339.235 208.62L341.885 207.85L344.545 210.15L344.905 212.63L349.095 217.16L356.385 214.72L359.925 217.91L362.385 217.4L365.685 219.26L363.195 221.78L362.985 223.15L360.005 222.45L358.945 227.2L359.565 229.33L356.655 230.03L353.345 233.13L347.515 235.93L346.365 236.29L346.115 234.75L342.815 235.75L341.665 233.9L337.525 233.14L333.875 233.86L333.905 232.31L327.915 232.45L327.045 232.85L326.775 235.29L323.765 238.62L321.035 238.31L320.035 239.36L319.185 238.29L312.745 239.73L312.045 245.92L314.385 249.71L314.725 253.26L316.655 253L317.485 255.32V255.57L322.445 264.2L326.055 262.74L325.755 264.82L323.725 266.33L323.595 268.62L328.115 276.17L327.505 276.1L326.065 275.58L324.085 276.35L323.375 279.79L328.565 286.09L328.535 287.29L329.245 287.11L329.815 287.61L332.345 288.74L331.935 290.72L329.875 291.93L326.505 292.21L329.855 296.14L329.865 296.42L328.315 297.74L329.345 299.56L330.895 299.97L331.295 302.6H331.865L332.995 303.91L332.355 304.84L329.415 305.69L328.405 307.06L328.775 309.19L331.375 309.7L330.415 313.71H329.865L326.155 316.68L323.945 316.92L323.705 317.8L325.755 318.7L325.375 321.71L320.125 321.39L316.685 322.75L308.465 322.42L305.175 323.32L305.645 324.89L303.635 326.67L302.055 326.87L301.715 326.04L299.665 327.11L301.125 330.2L302.465 329.92L303.445 331.92L305.335 331.95L302.915 333.94L302.995 335.72L305.195 336.99L305.255 338.83L304.195 340.85L300.665 343.16L300.445 344.12L301.275 344.48L300.455 347.03L301.495 351.39L303.875 352.56L304.185 354.86L306.495 357.43L306.535 361.73L308.495 364.44L306.885 364.86L307.315 365.8L304.525 366.68L305.155 368.02L304.245 367.97L304.535 370.29L306.235 371.17L305.665 372.93L302.435 370.78L299.565 373.17L296.905 373.39L295.365 371.45L291.415 369.49H291.035L287.405 369.97L288.055 371.88V372.48L285.655 376.99L283.415 377.44L282.865 379.53L279.495 380.61L278.715 381.9L277.645 381.88L276.725 380.32L275.225 381.98L275.735 382.65L274.905 384.42L272.865 384.64L273.655 385.88L271.315 385.97H270.905L268.955 385.54L268.205 387.24L266.805 385.29L266.285 386.98L264.465 387.02L263.875 388.61L259.245 391.62L259.405 389.83L257.575 387.32L256.335 387.6L256.095 388.56L254.325 387.63L255.245 392.01L253.635 390.78L253.575 388.86L252.275 387.9L250.805 388.29L250.995 390.57L249.235 390.32L247.415 392.08L244.835 392.77L247.185 397.29L249.325 395.54L249.035 398.6L246.855 399.75L242.785 397.41L240.265 398.09L240.365 396.68L238.605 396.75L235.865 394.7L233.955 392.44L236.315 392.95L236.845 392.04L235.715 391.18L236.925 388.95L240.155 388.55L241.135 387.22L240.075 384.33L241.055 381.89L237.425 377.16L239.665 375.48L238.685 372.63L239.805 373.92L241.305 373.61L240.015 371.73L240.245 370.28L243.345 371.97L244.065 371.01L240.755 367.78L240.015 364.98L236.435 366.19L234.805 364.58L232.595 365.95L231.445 365L231.715 362.86L228.855 363.91L223.995 363.56L225.685 358.3L224.765 356.45L225.235 355.11L224.005 354L228.545 348.76L227.345 346.64L228.255 345.01L227.735 343.92L229.445 341.9L225.955 342.47L223.175 341.51L220.815 342.63L222.035 339.84L221.845 337.1L217.545 334.62L217.735 333.4L216.895 333.06L218.255 331.82L217.595 330.4L213.955 330.31L213.385 331.67L211.965 331.18L211.275 329.59L212.565 327.98L211.615 327.24L212.595 326.29L211.285 323.96L211.155 321.55L212.485 320.37L209.975 317.47L208.645 317.76L210.255 315.19L209.925 314.14L208.395 313.14L205.805 313.61L204.455 313.05L204.545 312.19L200.845 313.58L201.505 309.83L199.195 307.38L200.475 307.91L200.975 307.32L201.525 308.62L202.905 308.52L202.405 304.32L203.495 304.69L205.015 303.55L202.465 301.63L198.405 300.24L198.805 299.13L197.935 298.55L199.225 297.92L200.005 293.73L201.305 293.25L201.865 291.75L203.875 292.35L206.395 289L206.215 287.31L207.965 285.61L208.025 283.75L207.145 283.76L207.155 282.35L206.145 281.49L208.845 278.06L206.465 275.88L203.465 275.59L200.965 280.08L198.725 280.8L199.255 282.68L196.435 284.36L196.085 285.86L193.295 285.47L192.885 286.63L190.885 287.15L186.715 286.18L184.035 287.25L182.595 286.11L181.405 286.51L181.235 284.01L182.065 282.96L181.225 281.57L181.075 275.19L180.245 273.55L179.125 273.83L177.855 272.36L171.835 275.77L168.365 274.41L165.595 276.47L165.375 279.69L162.945 281.45L161.825 280.83L159.535 281.48L155.695 279.98L155.755 282.5L156.885 283.41L156.545 285.71L161.515 287.69L164.675 290.02L166.355 294.88L165.665 297.78L166.235 302L164.595 305.32L166.255 307.47L169.335 308.45L166.315 311.51L162.505 313.42L162.285 316.09L160.105 316.14L158.075 314.67L156.185 315.26L154.505 314.52L154.605 313.55L150.565 316.45L148.635 319.99L146.005 319.74L142.485 321.58L138.435 320.39L135.165 323.84L131.235 322.26L129.065 318.85L134.635 315.52L136.905 315.6L136.365 311.85L136.585 311L138.075 310.7L136.825 309.32L132.365 309.31L130.625 307.98L130.145 306.36L131.775 304.09L131.695 300.26L133.705 299.88L132.095 297.92L132.115 296.28L135.935 295.54L133.175 292.86L132.425 289.76L129.445 288.05L126.565 289.23L124.165 288.98L118.165 286.05L116.595 280.65L111.455 278.36L108.715 282.82L111.155 283.9L109.155 288.04L109.865 288.64L106.015 289.42L100.475 293.12L99.855 295.04L97.225 295.52L95.725 297.74L92.765 298.56L91.575 300.19L82.575 299.94L80.475 300.48L79.095 302.36L76.695 302.51L74.405 299.2L74.305 297.5L77.275 291.03L77.315 288.81L76.355 286.09L74.895 285.92L73.285 283L72.025 279.01L68.905 282.4L63.265 280.92L63.275 279.94L57.145 279.56L53.335 277.03L53.785 273.43L52.195 270.12L54.415 270.57L55.095 269.07L57.735 269.04L54.715 266.37L55.145 263.56L54.255 262.36L56.785 260.11L64.545 259.54L68.555 261.22L70.995 260.28L75.245 261.73L76.135 260.68L77.205 243.16L78.535 240.14L78.215 238.95L84.305 229.18L86.495 222.39L85.475 211.04L84.325 210.19L84.075 208.42L85.595 204.62L87.115 204.15L85.925 203.05L86.525 202L85.985 197.32L87.205 195.35L88.285 189.18L92.305 188.99L73.545 186.72L72.425 183.73L73.275 182.31L74.225 171.64L75.705 169.31L74.745 166.26L76.145 168.84L78.275 168.85L78.955 169.94L79.755 168.88L76.395 168.82L75.255 165.99L76.905 167.97L77.515 166.44L79.295 168.68L79.035 167.34L80.485 167.23L81.805 165.44L80.105 164.79L78.355 161.47L82.105 157.72L82.535 156.13L82.445 156.87L88.235 151.72L95.665 149.91L96.655 150.57L103.305 150.33L106.115 151.64L117.485 148.17L117.505 146.43L117.525 148.54L124.075 147.38L125.875 144.84L124.295 147.76L130.795 146.53L138.105 147.64L137.725 150.38L139.195 154.72L141.025 154.14L142.635 155.73L143.375 154.74L143.845 155.33L142.695 155.83L143.705 157.43L144.575 157.05L143.795 157.58L144.275 159.27L147.235 165.31L146.495 166.65L147.345 166.15L146.225 168.46L142.415 169.9L140.245 169.41L140.425 172.51L142.675 175.82L144.985 174.95L146.065 175.47L149.205 180.18L152.005 180.87L153.405 180.04L156.335 174.53L156.145 167.72L150.865 167.83L151.825 161.25L154.275 158.09L155.885 157.39L157.855 157.97L160.775 162.02L165.925 164.32L168.435 164.57L169.395 163.69L169.365 164.74L171.435 165.9L171.795 167.45L171.265 167.8L172.965 171.44L173.745 170.75L175.055 171.68L176.695 170.44L177.835 168.41L177.085 166.92L177.495 164.06L176.425 163.86L175.735 161.96L178.445 158.2H177.345L177.515 159.06L175.605 158.76L174.155 160L169.555 158.64L167.155 153.32L167.075 149.11L171.075 139.08L171.265 136.12L175.345 129.02L180.235 127.79V127.79ZM175.765 205.41L176.475 208.44L178.975 212.21L178.745 213.51L181.585 215.07L181.255 217.33L182.075 218.94L184.455 219.04L185.505 217.47L185.855 218.95L188.695 220.97L191.445 220.82L191.505 218.86L193.305 221.63L195.895 221.64L196.045 220.55L198.835 218.22L197.815 216.78L197.645 214.14L199.385 212.81L197.695 212.55L196.735 210.8L198.975 209.71L196.515 206.98L194.545 209.07L191.345 209.18L191.235 208.85L190.025 207.37L189.835 206.44L189.185 205.71L183.655 205.75L182.735 204.01L181.275 204.36L180.905 203.48L179.485 204.54L176.035 204.88L175.225 202.87L173.245 202.83L174.475 200.65L173.165 200.12L171.605 201L168.295 198.96L167.515 198.93L167.015 199.3L168.565 201.83L168.835 202.17L175.765 205.41V205.41ZM168.385 123.96L169.285 125.22L167.365 125.57L167.645 123.85L168.385 123.96V123.96ZM165.185 120.36L165.915 120.66L163.585 122.52L162.815 122.15L164.065 120.12L165.185 120.36V120.36Z" fill="#C4C4C4"/>
<path d="M76.6449 302.51L79.0449 302.36L80.4249 300.48L82.5249 299.94L91.5249 300.19L92.7149 298.56L95.6749 297.74L97.1849 295.51L99.8049 295.04L100.435 293.11L105.975 289.42L109.825 288.63L109.105 288.03L111.105 283.89L108.665 282.81L111.405 278.35L116.535 280.64L118.105 286.04L124.105 288.97L126.505 289.22L129.385 288.04L132.365 289.75L133.115 292.85L135.875 295.53L132.055 296.27L132.035 297.92L133.645 299.88L131.635 300.26L131.715 304.1L130.075 306.37L130.565 307.99L132.305 309.31L136.765 309.32L138.015 310.7L136.525 311L136.305 311.85L136.845 315.6L134.575 315.52L129.005 318.85L131.175 322.27L135.105 323.85L138.375 320.4L142.435 321.58L145.955 319.74L148.585 319.99L150.515 316.45L154.555 313.55L154.445 314.53L156.125 315.26L158.015 314.67L160.055 316.14L162.235 316.09L162.445 313.42L166.255 311.51L169.265 308.45L166.185 307.48L164.525 305.33L166.165 302.01L165.595 297.79L166.295 294.89L164.615 290.03L161.455 287.7L156.485 285.72L156.825 283.41L155.695 282.51L155.635 279.98L159.475 281.48L161.775 280.84L162.895 281.45L165.325 279.69L165.535 276.47L168.305 274.42L171.785 275.77L177.805 272.37L179.075 273.84L180.205 273.56L181.035 275.2L181.185 281.58L182.035 282.97L181.205 284.02L181.365 286.52L182.555 286.12L183.995 287.26L186.675 286.19L190.845 287.16L192.845 286.63L193.245 285.48L196.035 285.86L196.385 284.36L199.205 282.68L198.675 280.81L200.915 280.09L203.415 275.6L206.415 275.89L208.795 278.07L206.095 281.51L207.115 282.36L207.105 283.77L207.985 283.76L207.925 285.61L206.175 287.31L206.365 289L203.845 292.35L201.825 291.75L201.265 293.25L199.965 293.73L199.185 297.92L197.895 298.55L198.765 299.13L198.365 300.24L202.425 301.64L204.975 303.56L203.445 304.7L202.355 304.32L202.855 308.53L201.475 308.63L200.935 307.33L200.435 307.93L199.155 307.4L201.465 309.84L200.805 313.59L204.515 312.21L204.425 313.07L205.775 313.63L208.365 313.16L209.895 314.16L210.225 315.21L208.625 317.78L209.945 317.49L212.455 320.38L211.125 321.56L211.255 323.97L212.565 326.3L211.595 327.25L212.545 327.99L211.245 329.6L211.935 331.19L213.355 331.68L213.935 330.31L217.575 330.41L218.225 331.83L216.865 333.07L217.705 333.41L217.515 334.63L221.815 337.11L222.005 339.85L220.775 342.64L223.145 341.52L225.925 342.48L229.415 341.91L227.705 343.93L228.225 345.02L227.315 346.64L228.525 348.76L223.975 354L225.205 355.11L224.745 356.46L225.665 358.3L223.975 363.56L228.835 363.91L226.995 365.64L221.575 367.2L223.785 369.6L220.195 373.55L219.685 377.51L218.075 377.47L216.895 379.04L214.385 379.93L213.865 383.07L211.785 382.4L210.245 384.69L208.785 383.97L206.185 384.55L205.085 382.42L205.905 379.39L204.985 378.57L202.585 378.64L201.265 377.07L193.145 380.77L194.935 384.17L194.955 385.99L196.715 386.31L196.135 390.21L193.145 389.85L190.825 391.4L189.685 390.27L187.505 390.06L182.945 391.93L180.575 391.5L179.465 392.09L179.765 393.24L178.325 393.71L178.035 395.29L176.925 394.85L175.855 395.63L171.845 401.6L174.295 404.67L180.435 401.73L182.345 401.97L183.265 403.12L182.705 404.26L183.575 407.54L185.245 408.55L183.975 409.58L184.665 411.78L180.705 415.81L180.775 417.23H181.015L182.245 418.59L179.945 418.79L178.195 420.13L171.895 419.28L169.975 419.88L168.355 421.61L169.915 423.28L168.525 425.59L169.415 425.28L170.575 427.74L166.595 432.09L166.805 432.82L165.545 433.15L165.015 435.65L165.655 437.89L163.885 438.01L159.205 443.72H155.855L154.905 441.63L153.335 441.74L145.265 450.79L144.865 450.92L144.615 451.95L147.005 456.48L144.275 461.36L141.305 459.24L140.135 460.34L138.915 460.16L138.775 457.09L134.295 452.32L134.885 447.36L134.315 445.24L133.585 444.49L130.955 445.31L128.845 442.3L125.365 441.54L126.775 436.95L123.115 435.49L121.405 437.35L119.485 437.94L121.045 439.67L120.395 443.12L121.205 445.32L119.065 444.71L117.385 447.11L114.705 447.74L115.935 448.95L115.395 451.7L114.355 453.01L110.845 453.29L110.345 455.91L107.665 455.23L105.795 456.16L105.785 456.98L100.275 458.88L96.4849 458.03L95.3849 460.13L96.3249 461.77L95.1849 463.7L95.5249 464.86L93.9849 465.98L86.1749 467.58L85.4349 465.06L84.6449 467.57L83.5649 468.67L82.3949 468.5L81.9649 469.89L79.9549 468.7L78.3049 471.33L76.1449 469.31L72.4449 473.46L70.8849 474.28L68.1349 473.88L68.1749 476.53L65.0749 477.16L65.9749 478.15L65.4449 479.21L66.4849 479.61L66.2249 483.02L63.5149 484.61L60.6549 482.68L59.8749 480.71L56.3249 482.59L57.6649 484.02L56.2249 485.83L58.0049 486.39L58.7649 487.79L57.9349 490.61L59.9949 493.02L59.7849 493.85L58.4849 493.51L53.5749 496.28L51.5149 492.86L49.5549 495.48L48.4549 494.46L48.7649 492.54L47.3749 492.43L47.2549 491.16L41.1849 493.93L39.7049 496.07L37.7149 496.26L38.1649 493.82L37.2349 492.79L36.3049 493.67L35.1849 491.03L33.5149 491.52L34.0649 493.77L34.7949 493.63L34.8849 496.02L35.9449 496.63L35.9849 497.61L34.6649 497.66L34.3249 495.46L30.6549 491.92L32.8949 486.3L32.6149 484.47L30.6149 483.68L31.2649 481.03L26.1449 479.38L23.3349 480.37L22.1849 477.81L20.9449 477.24L21.4249 476.21L20.2949 475.69L20.1549 474.16L23.2849 470.9L24.4449 471.01L26.0649 467.26L21.5449 466.61L20.2249 467.27L20.6649 466.68L19.7149 465.61L20.6149 464.78L16.6449 457.9L11.8449 457.04L11.4049 457.96L11.5849 455.42L9.93492 453.71L10.5649 452.49L7.21492 450.2L7.90492 448.87L9.19492 449.62L10.4849 448.32L10.1049 445.22L12.4549 444.21L13.6149 445.15L14.5749 442.47L13.6849 440.49L14.9449 437.61L12.3649 437.55L10.1349 436.3L9.21492 433.99L10.4849 431.31L6.79492 431.79L5.93492 430.89L2.36492 432.22L2.81492 429.47L1.18492 427.82L0.294922 424.84L3.36492 422.98L4.84492 426.14L6.26492 426.07L7.57492 422.37L9.55492 420.43L11.6649 419.54L14.7049 416.08L20.0049 413.78L17.7949 412.19L20.4949 410.86L19.4349 410.03L15.2549 412.49L14.1249 412.28L13.1949 407.51L14.3449 407.09L13.4449 405.16L16.7149 401.97L19.6249 396.08L21.1649 395.75L23.2749 392.97L22.5149 390.46L23.2649 389.06L22.0049 389.12L23.1249 381.77L22.4849 377.64L19.1049 372.47L14.6749 368.06L16.2849 362.9L10.9249 361.06L10.5449 357.61L11.6649 356.66L8.44492 354.48L6.01492 354.42L6.04492 353.16L8.20492 351.65L8.28492 349.88L7.23492 349.55L7.42492 348.32L5.45492 346.81L6.24492 346.32L5.39492 345.67L6.42492 344.39L9.71492 344.5L12.9749 341.49L15.2249 343.09L19.4649 343.94L19.3449 341.9L17.7149 339.36L15.6049 338.65L16.4649 337.67L19.6649 337.74L22.4049 341.07L26.7449 340.54L27.9649 341.13L28.3849 343.01L31.4649 343.15L32.0749 344.44L34.5349 345.37L35.0649 342.74L33.5949 341.67L33.8849 340.5L36.4349 342.11L37.5649 341.44L38.8249 342.66L43.5649 339.5L52.5049 336.08L55.5449 337.98L59.1149 334.86L59.8049 331.82L61.6349 331.25L61.7949 328.93L56.8849 324.65L52.6649 323.47L53.0949 320.26L55.8249 319.77L57.3649 315.28L63.3749 315.07L66.6649 309.31L69.4349 308.78L71.6049 304.18L74.9749 304.05L76.6449 302.51Z" fill="#C4C4C4"/>
<path d="M34.6651 497.66L35.9851 497.61L35.9451 496.63L34.8851 496.02L34.7951 493.63L34.0651 493.77L33.5151 491.52L35.1851 491.03L36.3051 493.67L37.2351 492.79L38.1651 493.82L37.7151 496.26L39.7051 496.07L41.1851 493.93L47.2551 491.16L47.3751 492.43L48.7651 492.54L48.4551 494.46L49.5551 495.48L51.5151 492.86L53.5751 496.28L58.4851 493.51L59.7851 493.85L59.9951 493.02L57.9351 490.61L58.7651 487.79L58.0051 486.39L56.2251 485.83L57.6651 484.02L56.3251 482.59L59.8751 480.71L60.6551 482.68L63.5151 484.61L66.2251 483.02L66.4851 479.61L65.4451 479.21L65.9751 478.15L65.0751 477.16L68.1751 476.53L68.1351 473.88L70.8851 474.28L72.4451 473.46L76.1451 469.31L78.3051 471.33L79.9551 468.7L81.9651 469.89L82.3951 468.5L83.5651 468.67L84.6451 467.57L85.4351 465.06L86.1751 467.58L93.9851 465.98L95.5251 464.86L95.1851 463.7L96.3251 461.77L95.3851 460.13L96.4851 458.03L100.275 458.88L105.785 456.98L105.795 456.16L107.665 455.23L110.345 455.91L110.845 453.29L114.355 453.01L115.395 451.7L115.935 448.95L114.705 447.74L117.385 447.11L119.065 444.71L121.205 445.32L120.395 443.12L121.045 439.67L119.485 437.94L121.405 437.35L123.115 435.49L126.775 436.95L125.365 441.54L128.845 442.3L130.955 445.31L133.585 444.49L134.315 445.24L134.885 447.36L134.295 452.32L138.775 457.09L138.915 460.16L140.135 460.34L141.305 459.24L144.275 461.36L143.335 463.95L145.265 466.69L144.385 468.95L146.015 470L144.985 474.83L142.925 476.57L140.875 476.02L139.125 474.17L136.045 477.44L134.965 481.19L137.035 484.6L134.785 486.14L135.615 486.5L135.435 487.66L134.055 488.84L135.455 489.99L137.775 489.9L137.375 491.48L139.125 491.38L139.305 492.42L140.185 492.5L141.255 495.15L140.965 496.7L142.865 497.25L142.915 498.93L143.965 499.98L143.155 503.82L141.475 503.71L141.045 502.63L138.685 502.77L137.765 504.11L139.465 505.78L139.725 506.13L138.445 508.24L137.135 508.05L135.595 506.07L135.455 507.07L133.185 507.9L132.925 508.86L130.625 509.49L130.615 510.44L128.895 511.64L128.975 512.96L132.045 515.37L131.325 516.36L131.885 519.48L130.085 517.62L128.945 518.32L126.915 517.07L125.585 519.91L126.035 521.35L123.805 521.38L121.925 523.95L126.995 528.37L127.895 531.59L129.055 532.43L134.385 531.83L138.915 529.28L148.075 526.17L151.935 526.95L156.885 531.97L158.985 537.77L158.335 541.73L160.875 543.86L160.545 547.11L163.335 552.46L166.395 552.41L166.875 553.09L164.245 557.04L159.225 559.98L160.805 566.43L163.255 570.62L162.805 573.58L165.855 581.69L164.535 583.7L168.665 585.19L167.885 588.48L165.805 590.43L166.505 591.19L168.175 589.74L168.055 591.87L165.025 595.93L167.455 598.83L161.215 604.7L160.875 606.26L162.135 606.19L159.775 611.08L159.195 617.71L156.225 622.26L155.285 626.13L154.445 627.94L151.145 630.77L150.705 629.76L149.065 630.61L148.745 629.62L146.465 629.87L142.245 628.45L139.605 626.1L134.825 624.8L132.095 621.86L131.205 623.43L129.205 622.76L127.795 624.23L123.195 621.11L121.435 622.98L119.445 623.26L119.255 622.01L118.505 622.54L116.875 621.85L116.985 622.71L115.505 623.17L112.935 622.2L112.825 620.43L110.825 619.44L108.515 619.75L106.235 618.08L104.445 614.83L104.055 611.15L100.335 611.57L100.795 609.7L95.8251 610.91L95.7051 612.18L91.4951 607.57L91.9551 605.84L91.0651 604.39L92.2751 602.48L93.2951 603.44L93.3351 602.21L94.5351 601.34L94.0451 600.43L95.7551 600.49L97.1851 598.95L98.1651 591.56L95.9851 592.1L95.2151 590.6L91.1251 589.66L91.0351 586.98L88.6151 585.33L88.3451 584.11L90.8551 582.97L92.0451 581.27L90.3951 580.29L90.9251 577.07L92.2751 576.51L91.9251 575.47L90.1351 575.17L89.6651 570.56L86.2651 572.39L86.1751 571.38L84.4651 571.36L83.7051 570.46L83.5551 569.18L80.3951 569.48L79.0251 568.43L78.2651 569.04L76.4551 566.12L74.3951 565.1L71.6651 566.94L72.0351 565.57L69.5651 566.47L68.8251 565.6L68.1151 567.72L65.9351 567.39L64.8351 568.84L63.9351 568.22L62.1351 570.64L60.5651 569.87L56.5251 573.18L54.1351 573.55L52.8551 575.31L52.4951 574.13L51.0551 574.58L50.3351 573.87L50.0951 575.04L49.0951 574.78L47.5051 576.06L47.5851 576.99L45.8951 576.74L44.7451 574.82L41.8851 576.15L38.9851 574.5L37.6951 575.06L36.2451 574.05L35.4151 574.58L33.0451 573.79L31.6251 571.76L33.1551 571.23L32.8651 569.65L35.6851 567.11L36.9651 563.58L36.2751 562.26L41.1451 557.8L40.5051 556.56L41.7851 556.92L40.7551 554.35L41.8751 553.02L41.1151 550.26L42.5251 548.39L41.5051 549.19L38.8951 547.12L36.2851 548.29L34.1951 547.23L31.9151 544.35L29.4051 545.58L28.7351 542.59L27.7851 542.83L23.7551 539.55L23.5951 537.66L22.7551 537.19L23.0651 534.59L21.9751 534.09L21.5351 534.78L21.0251 532.78L20.1451 534.23L19.6251 531.05L17.6951 529.85L18.5751 528.87L17.6851 528.31L18.2751 527.35L17.2951 526.66L16.8951 523.72L15.9351 523.73L17.2251 522.43L16.2051 522.36L16.6251 520.59L17.4551 520.46L16.9651 517.85L18.7151 515.54L17.3851 514.38L17.9051 512.92L18.3851 511.99L19.0451 512.57L21.0651 511.51L19.5351 507.72L20.1451 506.29L21.4551 506.06L22.6151 504.12L26.7351 503.14L27.5051 502.1L27.0851 500.47L28.6851 497.88L30.1851 497.68L31.9151 499.49L31.9951 498.46L34.6651 497.66Z" fill="#C4C4C4"/>
<path d="M33.0447 573.791L35.4147 574.581L36.2447 574.051L37.6947 575.061L38.9847 574.501L41.8847 576.151L44.7447 574.821L45.8947 576.741L47.5847 576.991L47.5047 576.061L49.0947 574.781L50.0947 575.041L50.3347 573.871L51.0547 574.581L52.4947 574.131L52.8547 575.311L54.1347 573.551L56.5247 573.181L60.5647 569.871L62.1347 570.641L63.9347 568.221L64.8347 568.841L65.9347 567.391L68.1147 567.721L68.8247 565.601L69.5647 566.471L72.0347 565.571L71.6647 566.941L74.3947 565.101L76.4547 566.121L78.2647 569.041L79.0247 568.431L80.3947 569.481L83.5547 569.181L83.7047 570.461L84.4647 571.361L86.1747 571.381L86.2647 572.391L89.6647 570.561L90.1347 575.171L91.9247 575.471L92.2747 576.511L90.9247 577.071L90.3947 580.291L92.0447 581.271L90.8547 582.971L88.3447 584.111L88.6147 585.331L91.0347 586.981L91.1247 589.661L95.2147 590.601L95.9847 592.101L98.1647 591.561L97.1847 598.951L95.7547 600.491L94.0447 600.431L94.5347 601.341L93.3347 602.211L93.2947 603.441L92.2747 602.481L91.0647 604.391L91.9547 605.841L91.4947 607.571L95.7047 612.181L95.6747 613.641L93.3547 613.611L91.2947 616.391L88.2347 614.931L85.1547 616.361L84.2847 614.891L82.5747 615.851L80.5647 613.751L79.1947 614.021L79.7547 612.751L78.8047 612.431L77.7147 613.131L78.2547 614.791L76.1047 616.551L74.3047 611.051L74.7447 608.991L73.3547 609.301L70.8847 607.131L70.0447 607.811L67.8647 605.811L65.7847 607.181L63.7047 605.851L62.2847 606.831L63.8147 609.941L62.1247 612.631L58.5747 611.121L55.9547 611.551L54.2347 609.311L55.4847 607.491L55.0047 606.291L53.1947 606.521L52.7947 603.241L50.9647 602.351L51.5547 600.291L47.9847 598.191L46.3247 596.281L46.5347 594.901L44.9847 593.761L44.7947 592.881L46.3347 593.511L47.1347 591.931L46.0047 591.641L46.1747 590.001L43.2447 588.361L44.0347 586.141L36.1647 581.131L33.9047 582.311L32.2447 581.681L31.5547 575.831L33.0447 573.791Z" fill="#C4C4C4"/>
<path d="M409.325 420.64L408.825 419.64L405.995 419.2L405.155 417.37L406.405 417.25L406.555 416.35L403.775 415.33L404.845 411.18L402.405 411.31L402.385 410.48L403.245 410.5L404.305 407.95L404.035 405.62L403.395 403.56L401.835 402.74L402.255 400.75L400.675 397.13L403.815 396.27L403.715 391.98L402.305 390.7L403.165 390.28L402.445 388.05L403.445 386.87L402.895 385.69L401.325 385.71L400.765 382.71L402.375 382.19L402.605 380.76L404.455 379.78L403.465 376.42L406.345 373.5L406.115 372.39L409.835 372.62L413.115 370.69L412.765 370.09L418.355 370.49L419.465 367.71L420.575 368.5L421.925 368.05L422.235 369.18L423.545 367.78L425.605 368.53L428.215 366.08L429.135 366.8L431.145 365.97L430.085 367.57L433.545 365.63L435.335 362.03L440.435 363.8L445.105 359.96L446.295 361L446.485 362.84L448.115 361.85L448.565 363.81L450.495 363.56L451.365 364.73L451.765 363.57L453.115 363.46L452.765 362.05L453.385 362.18L453.765 362.29L453.745 361.56L455.825 362.05L456.565 364.78L458.435 363.89L460.595 367.71L462.835 366.54L465.325 369.29L464.215 371.82L466.865 373.02L468.275 376.41L467.885 379.64L466.815 379.72L466.675 381.44L467.995 383.91L466.215 386.21L467.065 386.64L467.365 385.37L468.725 389.45L472.065 390.61L471.675 389.03L473.265 389.21L473.305 387.91L476.005 386.41L475.665 385.31L479.155 386.48L478.995 385.37L480.495 383.61L482.285 385.56L481.845 386.78L483.465 385.71L485.185 387.12L484.535 387.8L488.155 388.83L488.375 390.85L489.265 390.9L489.665 392.14L491.275 390.56L492.485 390.7L493.005 392.21L496.975 392.14L497.535 391.41L502.265 392.91L503.905 392.04L504.335 392.85L504.965 392.04L507.285 392.14L508.255 390.61L512.805 391.09L516.175 389.38L516.975 389.7L516.915 391.43L518.695 391.77L519.065 389.57L520.545 389.41L519.835 388.55L521.705 387.16L521.175 385.46L522.765 384.46L520.945 381.33L524.425 381.21L523.555 379.62L524.845 379.08L525.535 376.73L527.755 376.49L527.065 375.59L527.585 374.44L532.435 374.84L534.485 376.04L536.025 375.57L539.475 377.21L539.515 377.69L540.055 378.52L540.625 376.97L543.565 374.58L547.325 374.47L547.765 373L553.095 372.82L553.505 371.44L554.985 370.66L556.815 371.54L558.025 373.75L562.105 373.45L563.645 370.87L563.225 368.89L565.345 370.49L564.145 372.52L565.725 376.18L569.445 376.99L573.105 379.86L577.365 380.55L579.435 381.96L580.815 384.77L579.905 388.02L580.495 391.11L581.405 391.68L581.135 394.93L585.245 401.97L582.075 413.34L582.295 417.35L581.305 417.85L581.125 421.92L578.055 429.76L577.175 430.24L577.315 432.31L576.425 432.64L575.805 435.87L570.865 441.53L571.335 442.92L569.545 447.77L567.655 447.92L566.195 446.94L564.795 447.63L563.875 445.7L562.715 446L558.285 444.01L559.385 440.04L560.385 439.24L560.225 436.61L555.965 438.43L554.845 437.92L556.945 431.09L554.755 428.71L552.865 429.34L552.645 428.01L550.555 427.46L550.745 425L550.165 427.34L547.755 426.05L544.905 427.8L543.325 426.97L543.115 425.79L541.875 425.14L540.375 425.79L538.085 424.13L537.145 425.74H536.245L537.035 426.94L536.715 428.24L535.415 428.85L535.365 430.98L536.905 432.04L539.535 431.24L539.745 432.39L538.135 433.16L539.015 433.75L538.615 434.28L544.115 436.15L543.465 439.99L541.105 439.62L541.055 440.54L538.155 441.42L535.795 440.3L533.675 441.07L533.075 443.81L524.445 447.24L523.705 448.65L520.695 449.45L518.135 447.87L515.885 449.08L514.795 450.82L512.435 450.53L511.585 452.98L512.305 455.42L509.995 455.61L509.645 457.13L504.615 456.31L502.275 457.18L501.395 456.51L500.145 458.16L497.425 456.72L493.475 458.88L490.655 458.42L488.615 459.34L489.665 462.18L487.785 464.55L488.505 465.98L486.685 466.87L484.805 469.58L481.525 468.27L479.945 465.26L478.765 464.91L479.065 467.17L475.785 469.19L475.625 471.94L473.585 472.43L472.795 470.68L470.805 470.7L467.495 479.56L463.855 479.23L463.445 478.05L460.505 479.93L457.085 478.92L456.375 485.05L453.795 487.99L451.335 488.67L451.675 489.59L443.515 483.94L442.935 486.78L441.975 484.99L438.165 486.67L436.325 490.18L434.185 488.23L423.965 490.22L422.345 492.82L422.515 494.95L421.185 494.41L419.465 495.74L418.805 497.62L416.755 497.7L416.745 500.59L414.945 501.39L413.785 503.63L414.245 505.66L412.385 505.69L412.655 507.96L411.905 509.13L412.885 510.6L411.905 511.68L412.765 512.54L409.775 512.14L408.815 510.17L410.015 507.76L406.565 505.27L406.935 504.01L408.255 504.81L407.545 502.79L404.095 502.61L404.025 499.27L403.055 497.66L397.735 498.07L397.155 496.53L394.325 496.69L394.255 497.31L391.135 494.46L389.865 494.82L390.235 491.06L389.045 489.92L388.085 490.36L388.345 489.12L386.435 487.57L386.725 486.68L384.905 486.33L384.635 485.07L386.975 483.72L388.085 484.55L387.415 482.83L389.125 481.24L386.995 479.04L386.965 477.59L384.195 478.19L383.045 476.15L383.985 474.69L386.785 474.27L386.585 471.44L390.475 468.99L390.185 467.8L391.405 466.51L392.575 467.46L391.495 468.45L393.675 470.58L392.505 473.17L393.145 474.89L394.905 474.83L396.185 474.34L396.415 472.29L397.825 472.06L399.245 473.18L401.705 472.24L401.565 471.5L399.975 471.57L400.845 466.96L403.445 468.59L404.045 466.06L408.105 466.91L408.205 465.47L411.505 463.56L411.705 461.47L407.985 460.45L407.475 458.23L408.705 457.08L408.235 456.13L405.695 456.04L406.505 453.23L408.305 453.72L409.725 451.55L409.595 450.76L407.475 450.92L407.265 447.76L409.075 448.81L409.765 447.34L410.445 448.2L410.235 446.82L410.815 447.89L413.415 447.5L413.485 446.06L415.135 444.42L416.975 444.94L417.805 443.99L418.045 445.87L419.385 445.51L419.605 443.34L422.095 440.32L423.815 440.51L423.595 439.56L424.465 439.05L425.555 439.77L430.875 438.82L432.015 439.5L432.985 437.82L431.055 435.8L430.025 430.07L427.975 431.12L424.875 429.79L425.785 429.1L425.655 427.27L424.105 427.02L423.615 427.99L423.365 423.36L422.275 423.04L421.205 423.07L420.395 421.3L417.415 422.18L416.375 421.2L414.345 421.64L414.035 420.09L412.765 419.31L409.325 420.64Z" fill="#C4C4C4"/>
<path d="M365.715 219.23L368.235 218.99L367.355 221.81L370.585 222.18L371.685 225.44L374.715 224.21L377.515 227.22L381.215 228.09L381.485 229.31L379.815 231.37L380.585 232.61L382.825 232.64L384.245 234.19L389.945 236.2L392.705 234.67L398.385 236.1L399.145 234.27L399.265 238.53L403.665 235.87L404.075 236.93L406.175 237.62L407.715 243.55L407.205 245.15L405.335 245.33L404.605 248.39L405.445 249.91L403.965 252.66L404.735 252.46L404.525 253.37L405.665 254.16L405.335 255.71L406.435 256.55L406.045 261L405.925 262L404.205 263.09L402.125 262.42L402.775 267.74L400.475 272.39L402.225 271.44L403.415 272.15L401.955 274.11L403.135 275.99L405.225 275.47L406.775 273.33L408.525 275.55L407.875 276.08L408.585 277.02L412.385 275.95L411.005 276.84L412.415 277.95L409.705 282.88L410.205 283.59L408.755 284.53L410.455 285.36L409.975 287.51L410.735 288.36L409.335 289.65L410.915 291.65L408.955 294.78L406.975 301.46L408.675 302.72L407.885 303.24L410.275 303.94L407.085 305.65L407.035 308.49L405.785 308.46L405.235 310.06L407.995 313.86L408.865 316.76L411.275 318.02L414.195 322.62L416.105 323.08L419.045 325.84L420.015 325.76L420.725 323.97L421.875 324.09L422.595 326.11L425.485 327.26L425.735 329L430.355 329.36L430.485 328.36L432.405 328.09L433.135 326.2L434.105 326.28L439.475 328.89L441.025 331.36L445.175 330.83L445.645 334.21L447.805 334.32L447.995 335.02L449.935 333.79L452.395 334.21L452.265 335.5L453.475 335.71L453.365 337.9L457.985 337.85L457.585 339.89L456.885 339.88L457.725 340.82L460.275 341.14L462.735 339.72L463.935 339.93L464.795 341.88L462.845 342.34L465.455 347.5L464.505 351.37L465.575 353.12L464.825 353.75L466.915 356.67L464.825 357.26L465.335 359.13L464.525 359.95L458.435 363.89L456.565 364.78L455.825 362.05L453.745 361.56L453.765 362.29L453.385 362.18L452.765 362.05L453.115 363.46L451.765 363.57L451.365 364.73L450.495 363.56L448.565 363.81L448.115 361.85L446.485 362.84L446.295 361L445.105 359.96L440.435 363.8L435.335 362.03L433.545 365.63L430.085 367.57L431.145 365.97L429.135 366.8L428.215 366.08L425.605 368.53L423.545 367.78L422.235 369.18L421.925 368.05L420.575 368.5L419.465 367.71L418.355 370.49L412.765 370.09L413.115 370.69L409.835 372.62L406.115 372.39L406.345 373.5L403.465 376.42L404.455 379.78L402.605 380.76L402.375 382.19L400.765 382.71L401.325 385.71L402.895 385.69L403.445 386.87L402.445 388.05L403.165 390.28L402.305 390.7L403.715 391.98L403.815 396.27L400.675 397.13L402.255 400.75L401.835 402.74L403.395 403.56L404.035 405.62L404.305 407.95L403.245 410.5L402.385 410.48L402.405 411.31L404.845 411.18L403.775 415.33L406.555 416.35L406.405 417.25L405.155 417.37L405.995 419.2L408.825 419.64L409.325 420.64L407.205 425.9L409.555 425.74L409.825 427.69L406.935 431.35L405.985 433.5L406.615 434.26L405.025 435.89L404.975 433.66L403.525 433.78L403.045 432.19L401.885 433.78L397.135 432.01L392.425 433.05L391.765 430.65L389.415 430.41L389.435 427.52L387.755 426.45L385.865 426.94L384.365 424.19L378.475 424.93L376.995 424.35L375.965 425.49L374.285 422.91L372.265 422.58L372.115 420.35L370.225 418.5L368.225 418.41L366.955 419.85L366.285 418.43L364.065 417.74L362.235 419.33L358.525 419.37L356.995 418.17L357.335 416.7L356.365 414.86L357.565 414.59L358.545 412.94L357.625 412.5L357.575 410.23L356.445 410.26L355.895 408.5L352.575 409.05L352.535 407.71L350.975 407.38L351.865 404.89L352.945 405.75L354.185 405.05L356.875 400.22L357.955 399.71L354.105 396.01L354.885 395.05L353.095 394.75L352.895 391.03L349.565 390.58L347.965 388.04L343.385 389.44L343.325 388.49L341.635 387.72L339.695 388.75L336.615 388.76L331.485 386.04L330.725 386.99L327.055 387.27L328.245 386.51L325.405 385.78L325.185 382.68L325.135 382.36L325.815 380.68L322.795 376.8L324.105 375.05L321.885 373.06L320.935 373.35L320.965 372.74L320.625 370.89H320.285L320.805 368.48L323.055 369.56L323.485 368.4L322.055 367.6L322.525 366.83L320.245 367.45L318.395 365.29L315.985 366.31L315.515 364.65L312.555 363.64L311.875 364.42L308.475 364.39L306.525 361.69L306.485 357.39L304.175 354.82L303.865 352.52L301.485 351.35L300.445 346.99L301.265 344.44L300.435 344.08L300.655 343.13L304.185 340.82L305.245 338.8L305.185 336.96L302.985 335.69L302.905 333.9L305.325 331.91L303.435 331.88L302.465 329.88L301.125 330.16L299.665 327.07L301.715 326L302.055 326.82L303.635 326.63L305.645 324.85L305.175 323.28L308.465 322.38L316.685 322.71L320.135 321.35L325.385 321.67L325.765 318.66L323.715 317.76L323.955 316.88L326.165 316.64L329.875 313.67H330.425L331.385 309.66L328.785 309.15L328.415 307.02L329.435 305.65L332.365 304.8L333.005 303.87L331.875 302.56H331.295L330.905 299.93L329.345 299.53L328.325 297.71L329.875 296.39L329.855 296.11L326.515 292.17L329.885 291.89L331.945 290.69L332.345 288.71L329.815 287.58L329.245 287.08L328.535 287.26L328.565 286.06L323.375 279.76L324.085 276.32L326.065 275.55L327.505 276.07L328.115 276.14L323.595 268.59L323.725 266.3L325.755 264.79L326.055 262.71L322.445 264.17L317.485 255.54V255.29L316.655 252.97L314.725 253.23L314.385 249.68L312.045 245.89L312.745 239.7L319.185 238.26L320.025 239.33L321.025 238.28L323.765 238.59L326.775 235.26L327.055 232.82L327.925 232.42L333.915 232.29L333.885 233.84L337.535 233.12L341.675 233.88L342.825 235.73L346.125 234.73L346.385 236.27L347.535 235.91L353.365 233.11L356.675 230.01L359.585 229.31L358.965 227.18L360.025 222.43L363.015 223.12L363.225 221.75L365.715 219.23Z" fill="#C4C4C4"/>
<path d="M181.095 108.66L179.735 109.64L180.975 109.8L180.355 111.39L179.205 109.73L180.095 108.38L181.095 108.66V108.66ZM167.085 66.8703L168.385 67.0803L168.095 67.9303L169.435 69.3203L167.495 70.9903L165.855 69.4903L164.825 66.7003L166.085 65.1703L167.085 66.8703V66.8703ZM332.755 58.3603L338.375 59.4103L342.165 61.2903L347.535 72.4303L343.315 71.3503L340.095 71.8903L339.975 71.1203H342.185L339.715 70.2503L338.215 71.2103L339.485 71.7503L338.895 72.4603L335.225 72.3903L333.595 71.6003L334.045 69.1103L333.095 67.4403L331.655 66.9603L328.985 67.9403L330.565 69.5403L328.055 68.0403L328.155 63.5503L329.375 60.7403L331.375 58.1203L332.755 58.3603V58.3603ZM167.635 58.0703L166.725 62.3503L165.555 57.1003L167.635 58.0703V58.0703ZM188.345 55.9903L189.605 56.6403L188.695 57.0903L186.615 56.1303L188.345 55.9903V55.9903ZM181.255 55.4103L180.865 58.8903L179.685 59.4703L180.665 59.7503L180.245 60.6503L181.085 61.6603L180.175 60.8203L179.025 62.4303L175.695 62.7903L173.915 60.5203L173.855 58.2803L181.255 55.4103V55.4103ZM171.705 53.1203L172.975 55.3503L171.325 55.4803L168.785 53.3103L171.705 53.1203ZM183.275 46.4003L182.725 47.7003L181.605 47.3703L181.935 46.4303L183.275 46.4003ZM178.605 44.3903L177.585 46.4203L173.585 47.0203L171.265 48.8403L170.105 47.9503L170.855 46.8003L176.935 45.3503L178.635 43.7403L178.605 44.3903ZM182.255 41.4203L181.475 42.9203L179.755 42.7203L181.595 40.4903L182.255 41.4203ZM160.725 46.4603L160.615 47.3603L161.945 47.7403L160.705 48.2703L161.665 49.1703L159.245 49.6203L154.795 43.4203L159.265 38.2703L157.895 41.0003L159.365 45.3203L160.725 46.4603V46.4603ZM169.805 33.6103L173.715 34.7703L173.475 36.5903L174.505 37.7603L172.465 42.0703L167.175 42.0203L161.755 39.6503L161.515 37.6903L163.565 34.6203L169.805 33.6103V33.6103ZM164.235 1.01027L166.005 1.61027L161.575 1.75027L161.865 2.75027L163.575 2.97027L164.385 5.03027L160.685 6.95027L158.825 10.2403L159.935 17.8203L163.515 20.1403L174.585 19.0903L176.775 17.8303V16.4403L179.615 16.3603L182.615 18.3003L185.685 18.4703L188.005 16.9903L191.055 18.0103L193.525 17.1603L196.645 17.4103L203.105 20.7703L209.255 20.6603L215.025 23.1503L215.915 27.6103L217.405 27.4003L218.765 28.5803L219.495 27.9103L221.915 28.7303L224.395 24.6003L226.105 24.1203L227.855 27.6003L227.835 30.0103L229.795 26.2203L231.825 26.2403L232.915 24.5803L236.455 22.5103L237.555 20.3603L239.095 20.3003L237.655 23.3703L238.635 25.3703L250.665 29.1403L254.505 33.9503L255.965 34.0103L257.135 31.9203L257.845 32.8203L257.835 29.1003L261.105 31.0603L263.115 37.7803L266.235 41.3403L266.035 42.8803L265.605 40.7703L263.755 41.2503L264.465 44.0103L266.095 43.1303L264.815 44.1303L266.065 44.4903L265.605 56.1503L261.605 61.3903L255.575 64.5803L253.265 64.5703L255.335 67.4403L258.385 66.9603L259.575 65.9603L259.005 65.8603L271.905 63.4203L276.655 66.6303L274.745 68.8703L276.045 73.8503L274.175 74.4003L273.765 76.2003L272.995 76.0903L273.915 79.5403L272.375 82.3803L274.445 80.1903L275.645 80.6203L274.655 80.0503L275.205 76.9503L276.315 76.3603L276.165 75.0103L278.335 71.1903L281.735 70.7403L282.775 69.2903L284.545 68.8203L289.225 70.1003L294.505 73.8303L302.095 76.6703L308.695 83.1103L314.185 82.2603L323.175 74.6803L328.765 74.9003L326.265 75.3603L329.195 76.1903L332.645 75.1603L333.195 73.6603L334.755 72.9203L334.535 73.9603L335.125 73.3703L335.975 74.0703L335.595 75.7403L332.445 78.7103L332.605 77.8003L331.225 77.8403L331.515 78.7803L332.175 78.5303L333.515 94.7703L324.525 101.01L319.325 107.01L316.135 106.54L315.435 104.69L314.265 108.14L311.745 110.97L313.865 116.38L319.305 117.09L320.225 118.47L320.065 120.63L321.425 120.89L320.765 124.53L325.355 126.15L321.905 127.18L321.365 126.22L321.975 125.33L319.945 124.3L317.655 127.26L315.875 127.63L314.885 129.54L313.015 129.93L311.555 132.22L313.115 138.55L312.435 141.12L312.165 142.95L315.145 144.46L315.565 146.33L318.015 148.32L322.645 148.61L322.455 149.62L323.855 150.18L324.505 154.09L323.045 156.16L321.855 162.38L318.015 163.1L317.275 161.84L316.235 162.02L316.965 165.49L315.735 167.81L316.405 168.57L313.995 168.9L312.035 171.83L308.565 172.34L307.955 174.74L305.465 174.17L304.155 174.91L303.065 182.54L301.735 184.47L300.755 184.93L295.685 183.44L287.885 178.1L284.885 178L283.445 177.08L284.575 175.43L282.425 175.09L279.145 171.85L277.245 167.73L275.725 168.66L274.095 167.55L273.385 162.11L276.455 160.76L275.955 157.91L277.915 155.62L275.975 155.11L276.475 154.1L275.575 152.44L272.945 150.9L273.985 149.55L273.825 148.09L275.425 147.54L276.065 145.98L276.155 145.23L274.535 144.4L271.505 147.11L268.925 146.36L268.085 147.4L268.745 148.08L267.925 150.91L263.685 150.57L262.415 154.3L257.795 153.65L256.775 156.8L253.315 160.7L251.005 159.89L250.805 157.93L249.265 157.44L249.175 155.85L246.565 163.89L242.935 163L235.085 157.43L232.245 149.18L227.155 144.41L223.235 136.41L220.025 132.05L213.355 129.22L200.295 129.78L199.305 127.92L197.215 127.18L194.025 123.28L192.555 118.41L191.225 116.96L192.525 115.9L191.165 116.71L189.425 113.7L187.625 113.6L192.375 111.27L195.015 111.8L194.515 112.9L195.355 112.89L195.385 112.07L195.785 112.85L197.375 112.45L199.075 110.07L199.015 109.41L197.405 109.3L198.665 108.71L196.745 106.38L197.515 106.13L196.645 106.12L195.445 102.07L193.415 101.79L191.135 103.34L191.375 102.21L190.985 103.36L187.865 97.6903L189.915 91.1303L189.805 85.5603L188.985 84.6203L186.265 85.7403L183.795 84.5503L181.555 84.8803L179.525 87.3203L177.425 86.3403L174.705 82.3403L175.255 84.4503L173.935 83.2603L175.095 85.2303L173.265 82.7503L174.975 77.6903L175.885 77.4203L175.455 78.5803L177.135 79.3103L177.985 77.7903L180.225 77.3403L179.285 77.7103L180.275 75.7303L179.265 76.3003L177.935 75.7203L177.625 76.4603L174.885 75.9603L175.685 73.8503L188.635 71.0603L191.835 71.8303L194.995 69.6703L197.495 66.3703L200.125 65.7903L200.495 64.3003L202.385 65.1003L203.235 64.3903L201.905 64.8003L200.205 64.0003L200.415 62.0003L199.015 59.6003L197.445 60.5503L195.615 65.1303L194.725 64.8503L195.255 65.2103L193.475 66.2303L190.125 66.1603L187.675 65.0603L188.425 63.3403L187.645 61.9703L192.015 58.1903L191.755 54.7903L192.535 51.6803L193.205 51.6203L191.765 51.1003L192.375 49.7703L191.445 51.0503L188.155 51.1003L187.865 50.3503L190.825 48.8103L189.865 49.0503L188.385 44.9603L183.965 41.9903L183.485 38.6603L180.415 37.1003L180.165 36.3703L181.325 35.5903L180.515 32.2103L174.875 24.4003L174.445 19.6503L168.895 19.8003L162.695 23.6703L160.345 22.3603L159.515 20.5003L157.985 20.0903L157.635 21.7903L155.445 23.2903L155.335 35.4103L154.205 34.3003L155.245 16.5903L161.495 0.920273L162.625 0.280273L164.235 1.01027V1.01027Z" fill="#C4C4C4"/>
<path d="M308.475 364.391L311.875 364.421L312.555 363.641L315.515 364.651L315.985 366.311L318.395 365.291L320.245 367.451L322.525 366.831L322.055 367.601L323.485 368.401L323.055 369.561L320.805 368.481L320.285 370.891H320.625L320.965 372.741L320.935 373.351L321.885 373.061L324.105 375.051L322.795 376.801L325.815 380.681L325.135 382.361L325.185 382.681L325.405 385.781L328.245 386.511L327.055 387.271L330.725 386.991L331.485 386.041L336.615 388.761L339.695 388.751L341.635 387.721L343.325 388.491L343.385 389.441L347.965 388.041L349.565 390.581L352.895 391.031L353.095 394.751L354.885 395.051L354.105 396.011L357.955 399.711L356.875 400.221L354.185 405.051L352.945 405.751L351.865 404.891L350.975 407.381L352.535 407.711L352.575 409.051L355.895 408.501L356.445 410.261L357.575 410.231L357.625 412.501L358.545 412.941L357.565 414.591L356.365 414.861L357.335 416.701L356.995 418.171L358.525 419.371L362.235 419.331L364.065 417.741L366.285 418.431L366.955 419.851L368.225 418.411L370.225 418.501L372.115 420.351L372.265 422.581L374.285 422.911L375.965 425.491L376.995 424.351L378.475 424.931L384.365 424.191L385.865 426.941L387.755 426.451L389.435 427.521L389.415 430.411L391.765 430.651L392.425 433.051L397.135 432.011L401.885 433.781L403.045 432.191L403.525 433.781L404.975 433.661L405.025 435.891L406.615 434.261L405.985 433.501L406.935 431.351L409.825 427.691L409.555 425.741L407.205 425.901L409.325 420.641L412.765 419.311L414.035 420.091L414.345 421.641L416.375 421.201L417.415 422.181L420.395 421.301L421.205 423.071L422.275 423.041L423.365 423.361L423.615 427.991L424.105 427.021L425.655 427.271L425.785 429.101L424.875 429.791L427.975 431.121L430.025 430.071L431.055 435.801L432.985 437.821L432.015 439.501L430.875 438.821L425.555 439.771L424.465 439.051L423.595 439.561L423.815 440.511L422.095 440.321L419.605 443.341L419.385 445.511L418.045 445.871L417.805 443.991L416.975 444.941L415.135 444.421L413.485 446.061L413.415 447.501L410.815 447.891L410.235 446.821L410.445 448.201L409.765 447.341L409.075 448.811L407.265 447.761L407.475 450.921L409.595 450.761L409.725 451.551L408.305 453.721L406.505 453.231L405.695 456.041L408.235 456.131L408.705 457.081L407.475 458.231L407.985 460.451L411.705 461.471L411.505 463.561L408.205 465.471L408.105 466.911L404.045 466.061L403.445 468.591L400.845 466.961L399.975 471.571L401.565 471.501L401.705 472.241L399.245 473.181L397.825 472.061L396.415 472.291L396.185 474.341L394.905 474.831L393.145 474.891L392.505 473.171L393.675 470.581L391.495 468.451L392.575 467.461L391.405 466.511L390.185 467.801L390.475 468.991L386.585 471.441L386.785 474.271L383.985 474.691L383.045 476.151L384.195 478.191L386.965 477.591L386.995 479.041L389.125 481.241L387.415 482.831L388.085 484.551L386.975 483.721L384.635 485.071L384.905 486.331L386.725 486.681L386.435 487.571L380.155 490.951V489.641L377.255 487.951L376.815 488.871L375.535 488.441L376.235 489.311L374.675 488.991L373.085 490.291L372.705 489.651L367.395 491.141L365.415 489.601L363.995 489.891L363.275 491.351L360.855 492.401L360.765 490.301L358.115 489.821L358.355 486.871L357.195 486.691L355.805 487.901L356.295 486.711L354.365 485.451L354.345 480.501L355.315 480.741L355.665 479.951L355.035 478.761L349.615 477.811L349.685 478.811L348.055 479.031L348.105 480.801L346.815 480.941L346.105 482.321L345.855 481.371L343.355 482.001L343.385 484.971L344.575 486.821L344.005 489.861L345.695 493.841L344.225 494.711L345.165 496.241L344.215 496.161L344.725 499.231L343.595 500.481L344.175 500.961H343.915L343.585 502.981L339.995 500.541L339.685 502.531L338.765 502.851L339.175 501.771L336.875 501.281L336.065 499.871L337.625 496.821L336.355 494.571L335.085 494.971L334.915 493.221L333.235 493.351L333.005 494.701L330.385 495.481L329.925 493.881L327.165 493.351L327.425 494.941L326.605 495.101L323.485 490.661L322.215 491.011L321.735 491.201L320.655 491.851L319.695 490.251L318.805 491.101L316.885 490.651L315.175 491.951L313.955 491.421L311.945 494.071L309.495 493.441L309.315 495.281L310.285 495.431L309.475 497.781L311.135 498.301L312.975 500.531L315.035 500.691L315.205 501.911H315.555L317.725 502.301L317.795 505.371L316.265 506.031L314.905 504.641L312.875 505.661L310.465 504.681L310.355 508.651L309.525 509.321L308.455 508.591H308.125L305.835 506.801L303.955 507.491L302.555 506.781L301.905 505.251L302.765 504.901L301.975 503.501L302.565 502.671L301.515 502.691L302.335 500.571L301.565 499.081L302.055 496.501L299.625 496.081L298.535 493.481L297.765 493.311L296.645 494.861L296.465 493.901L295.165 494.351L295.185 492.351L294.475 492.531H294.005L292.665 489.721L289.025 490.501L288.345 489.011L289.505 487.331L287.495 486.691L288.175 485.941L287.305 486.061L285.335 483.371L284.895 480.521L283.105 480.551L280.155 478.611L278.635 478.811L278.605 476.821L277.125 475.881L276.825 474.501L275.265 474.741L275.015 475.641L273.455 474.691L272.935 475.641L270.745 473.541L268.345 476.321L268.455 477.241L266.495 478.281L266.295 476.971L267.735 474.311L266.195 468.821L266.965 467.541L269.085 467.631L267.265 462.771L263.855 462.241L260.865 463.151L260.565 464.211L261.765 465.751L261.265 466.941L255.945 465.851L256.115 462.861L258.905 460.471L257.985 459.321L260.005 455.961L259.905 454.291L258.835 453.951L259.095 452.431L260.855 452.471L260.235 449.871L260.815 447.701L262.235 446.621L262.645 446.771L263.655 447.231L264.225 446.091L265.565 446.351L266.265 444.511L265.205 444.951L265.275 443.201L267.685 441.511L267.605 440.731L266.855 440.811L267.055 439.711L264.595 437.551L262.025 438.941L263.055 436.551L261.575 436.451L260.895 437.381L260.665 435.491L264.605 436.271L265.385 435.371L265.695 435.971L267.865 435.241L266.575 434.791L266.435 432.941L265.075 431.531L266.335 428.341L270.375 429.261L271.445 428.611L273.185 430.391L276.865 428.871L276.145 427.781L277.535 427.031L276.925 426.101L272.815 423.641L273.655 422.691L273.075 421.111L274.945 417.901L271.435 415.581L274.385 414.181L276.485 418.251L277.295 416.951L276.685 414.361L278.915 410.861L276.285 410.181L274.365 408.191L273.275 408.651L272.665 407.291L271.005 407.841L268.185 406.711L268.765 405.041L266.815 403.971L267.345 401.431L262.045 400.831L261.835 399.221L259.935 398.531L260.515 397.261L259.025 393.731L259.225 391.601L263.855 388.601L264.435 387.011L266.255 386.971L266.775 385.281L268.175 387.221L268.935 385.521L270.885 385.951H271.285L273.625 385.861L272.835 384.611L274.875 384.391L275.705 382.621L275.195 381.951L276.705 380.291L277.625 381.851L278.695 381.871L279.485 380.581L282.855 379.501L283.405 377.411L285.645 376.961L288.045 372.451V371.841L287.395 369.931L291.025 369.451H291.405L295.345 371.411L296.885 373.361L299.555 373.131L302.425 370.741L305.655 372.891L306.225 371.131L304.515 370.251L304.235 367.931L305.145 367.981L304.515 366.631L307.295 365.751L306.865 364.811L308.475 364.391Z" fill="#C4C4C4"/>
</g>
<defs>
<clipPath id="clip0">
<rect width="585.514" height="792.668" fill="white"/>
</clipPath>
</defs>
</svg>
