<?xml version="1.0" ?><svg width="80px" height="80px" data-name="Layer 1" id="Layer_1" viewBox="0 0 128 128" xmlns="http://www.w3.org/2000/svg"><title/><path fill="#6AC4C1" d="M125.62207,58.42389c-2.37683.26135-2.8205-.442-2.06268-2.61945.826-2.37317,1.80084-4.81427,2.444-7.28528a4.05638,4.05638,0,0,0-.83679-3.635,4.2249,4.2249,0,0,0-1.816-1.23138,9.15307,9.15307,0,0,1-4.90387-3.91833,11.80831,11.80831,0,0,0-2.59027-3.01135,83.08543,83.08543,0,0,1-7.56293-7.21838A15.44342,15.44342,0,0,0,99.10858,24.502c-1.66278-.25269-3.29651-.49341-4.37665-.63422A4.198,4.198,0,0,1,91.1474,21.158c-.30658-.672-.78491-1.68195-1.29675-2.7511a5.102,5.102,0,0,0-8.85205-.67767q-.10117.15875-.19513.32953c-.96051,1.74927-2.64917,2.95764-4.80792,1.27911a2.19665,2.19665,0,0,0-2.811.1618c-1.74927,1.23358-3.21539.91-4.75232-.42975-2.62384-2.28516-6.20837-2.366-9.13562-2.25482a15.40359,15.40359,0,0,1-6.88074-.79376,3.33513,3.33513,0,0,0-3.69574.89484c-2.11829,2.13348-2.5885,2.09814-3.75641-.6875-.8139-1.9566-1.72394-2.351-3.61981-1.15778-1.30438.819-2.86151,2.265-4.56531.94537a6.70383,6.70383,0,0,0-4.2569-1.15265c-1.99194-.06573-4.0799.69769-5.95557-.34381a3.50812,3.50812,0,0,0-3.3266.08087c-2.3714.9292-6.36444,2.66534-8.48352,3.59534-.752.33-1.50958.64221-2.272.9472-1.83868.73553-6.11865,2.68768-7.40448,5.36157,0,0-.47894,1.26923-.99231,2.29431a1.75065,1.75065,0,0,1-1.28375.94806l-.022.00354a1.74169,1.74169,0,0,0-1.45886,1.58685,68.12664,68.12664,0,0,0-.17291,10.44714,21.47386,21.47386,0,0,0,2.87366,7.90057,10.56222,10.56222,0,0,1,.91028,7.85712,2.47789,2.47789,0,0,0,.36053,1.39014c.97021.79218,3.51813,3.00165,3.78821,3.3252,2.52051,3.0191,6.387,4.33936,9.96259,6.092A22.87867,22.87867,0,0,0,31.65,68.62995a9.93166,9.93166,0,0,0,1.33661-.22107c3.41693-.9046,2.28589,2.21149,4.52374,3.96167a14.42769,14.42769,0,0,1,3.24762,2.6991,4.35114,4.35114,0,0,1-.19006,5.1026,16.13,16.13,0,0,0-1.99207,3.51935l-.02246.11432a11.50549,11.50549,0,0,0,6.08472,12.543,4.37251,4.37251,0,0,1,.97113.62885,9.39732,9.39732,0,0,0,2.6795,1.71985,16.79215,16.79215,0,0,1,4.44647,2.55365,9.11169,9.11169,0,0,1,3.36993,5.704c.19165,1.71228-.71509,4.285.85535,5.57062,1.30249,1.06616,4.08423.62451,5.58142.4129,3.83948-.54272,7.25067-1.87164,10.9679.10144a5.8981,5.8981,0,0,0,1.884.80786c2.44678.33612,3.95123-3.14185,6.41718-3.27948,1.4231-.07941,3.1214.92676,4.1095-.10046,1.21912-1.26739-.72382-3.47833.02563-5.06915.55231-1.17242,2.17609-1.262,3.45441-1.04889s2.76331.501,3.73-.36218c1.17236-1.04687,1.00848-3.36292,2.51093-3.8244.914-.28076,1.93091.37683,2.835.06561,1.02515-.35284,4.07281-3.58533,4.14771-3.97565a15.21165,15.21165,0,0,1,3.3949-7.52271c1.70032-2.07367.3443-3.80859.47144-6.371.16144-3.25488.941-7.149,3.88886-8.7901a16.87312,16.87312,0,0,0,3.79688-2.76025l3.08612-3.09448a7.3868,7.3868,0,0,1,5.90912-2.13983,3.35282,3.35282,0,0,0,2.674-.91467l.16125-.15936a3.34748,3.34748,0,0,0,.98541-2.61292C126.88794,60.36756,126.57166,58.31946,125.62207,58.42389Z"/></svg>